<svg width="13" height="13" viewBox="0 0 13 13" fill="none" xmlns="http://www.w3.org/2000/svg">
<g clip-path="url(#clip0_22_21806)">
<path d="M10.1218 6.83826C10.195 7.53259 10.1007 8.25106 9.81171 8.92974V8.92999L10.8147 10.2254C10.9045 10.3414 11.0728 10.3573 11.184 10.2616C12.0846 9.48656 12.6806 8.36776 12.7689 7.10879C12.7792 6.96223 12.6613 6.83828 12.5143 6.83828H10.1218V6.83826Z" fill="#777777" fill-opacity="0.32"/>
<path d="M7.60342 0.255126V3.42269C8.45318 3.79044 9.15858 4.43082 9.60896 5.23262H12.5209C12.6649 5.23262 12.7814 5.11345 12.7759 4.96956C12.6722 2.27683 10.5253 0.135033 7.86926 0.000327753C7.72436 -0.00701704 7.60342 0.110041 7.60342 0.255126Z" fill="#777777" fill-opacity="0.32"/>
<path d="M5.98075 11.4961C3.66237 11.5201 1.74648 9.64038 1.72773 7.32195C1.70884 4.98539 3.60428 3.07835 5.93658 3.07835V1.83608C5.93658 1.69072 5.81521 1.57443 5.67 1.58108C2.63902 1.72033 0.223963 4.22176 0.223938 7.28734C0.223938 10.4484 2.81308 13.0202 5.97407 12.9999C7.16614 12.9922 8.2712 12.6196 9.18343 11.9882C9.30345 11.9051 9.3287 11.7379 9.23934 11.6225L8.47864 10.64C7.78267 11.1687 6.91805 11.4864 5.98075 11.4961Z" fill="#777777" fill-opacity="0.32"/>
<path d="M2.49268 7.2874C2.49268 9.18633 4.03763 10.7313 5.93657 10.7313C7.8353 10.7313 9.38046 9.18664 9.38046 7.2874C9.38046 5.38851 7.8353 3.84351 5.93657 3.84351C4.03763 3.84351 2.49268 5.38846 2.49268 7.2874ZM6.31911 4.99955V5.36449C6.71129 5.36449 7.05846 5.5313 7.30326 5.79243C7.44761 5.94646 7.4397 6.18874 7.28566 6.33308C7.13257 6.47651 6.89147 6.47103 6.745 6.31549C6.63534 6.19868 6.4859 6.13085 6.33467 6.12957C6.02511 6.12957 5.81586 6.12957 5.50761 6.12957C5.29321 6.12957 5.11997 6.30327 5.11997 6.51721C5.11997 6.73093 5.2939 6.90485 5.50787 6.90485H6.36552C7.00105 6.90485 7.51825 7.42205 7.51825 8.05758C7.51825 8.65144 7.06147 9.21056 6.31911 9.21056V9.57525C6.31911 9.78641 6.14798 9.95779 5.93657 9.95779C5.7254 9.95779 5.55403 9.78641 5.55403 9.57525V9.21056C5.28456 9.21056 5.01908 9.18138 4.7081 8.96573C4.53468 8.84536 4.49158 8.60691 4.61195 8.43349C4.73233 8.25982 4.97078 8.21672 5.1442 8.33709C5.23601 8.40136 5.35003 8.444 5.46349 8.44548H6.36552C6.57855 8.44548 6.75316 8.27349 6.75316 8.05758C6.75316 7.84387 6.57924 7.66994 6.36552 7.66994C5.98599 7.66994 5.90777 7.66994 5.50787 7.66994C4.87208 7.66994 4.35489 7.15274 4.35489 6.51721C4.35489 5.92149 4.8133 5.36449 5.55403 5.36449V4.99955C5.55403 4.78838 5.7254 4.617 5.93657 4.617C6.14798 4.617 6.31911 4.78838 6.31911 4.99955Z" fill="#777777" fill-opacity="0.32"/>
</g>
<defs>
<clipPath id="clip0_22_21806">
<rect width="13" height="13" fill="white"/>
</clipPath>
</defs>
</svg>
