<svg width="12" height="12" viewBox="0 0 12 12" fill="none" xmlns="http://www.w3.org/2000/svg">
<g clip-path="url(#clip0_22_21799)">
<path d="M10.6461 7.06113V0H8.85029V6.46778C9.17626 6.84416 9.43014 7.29056 9.58454 7.76412H11.9988V7.06113H10.6461Z" fill="#777777" fill-opacity="0.32"/>
<path d="M5.99999 5.86578C4.30879 5.86578 2.93287 7.24167 2.93287 8.93288C2.93287 10.6241 4.30879 12 5.99999 12C7.6912 12 9.06711 10.6241 9.06711 8.93288C9.06711 7.24167 7.6912 5.86578 5.99999 5.86578ZM5.99999 8.58138C6.65429 8.58138 7.18659 9.11369 7.18659 9.76798C7.18659 10.3 6.83472 10.7513 6.35149 10.9014V11.4373H5.6485V10.9014C5.16529 10.7513 4.81339 10.3 4.81339 9.76801H5.51638C5.51638 10.0347 5.73333 10.2516 5.99999 10.2516C6.26666 10.2516 6.4836 10.0347 6.4836 9.76801C6.4836 9.50134 6.26666 9.28437 5.99999 9.28437C5.3457 9.28437 4.81339 8.75207 4.81339 8.09777C4.81339 7.5658 5.16526 7.1145 5.6485 6.96434V6.42853H6.35149V6.96434C6.8347 7.1145 7.18659 7.5658 7.18659 8.09777H6.4836C6.4836 7.83111 6.26666 7.61416 5.99999 7.61416C5.73333 7.61416 5.51638 7.83111 5.51638 8.09777C5.51638 8.36444 5.73333 8.58138 5.99999 8.58138Z" fill="#777777" fill-opacity="0.32"/>
<path d="M3.14972 6.46781V4.65851H1.35393V7.06116H0.00114822V7.76415H2.41545C2.56989 7.29045 2.82356 6.8444 3.14972 6.46781Z" fill="#777777" fill-opacity="0.32"/>
<path d="M8.14729 1.55286H6.35148V5.17937C7.01449 5.24097 7.62818 5.47493 8.14729 5.83593V1.55286Z" fill="#777777" fill-opacity="0.32"/>
<path d="M5.64848 3.10565H3.85267V5.8359C4.37178 5.47486 4.98547 5.24091 5.64848 5.17933V3.10565Z" fill="#777777" fill-opacity="0.32"/>
</g>
<defs>
<clipPath id="clip0_22_21799">
<rect width="12" height="12" fill="white"/>
</clipPath>
</defs>
</svg>
