<svg width="11" height="11" viewBox="0 0 11 11" fill="none" xmlns="http://www.w3.org/2000/svg">
<path d="M5.51164 10.9999C5.75794 10.9977 5.99391 10.8915 6.16945 10.7038L10.7205 5.7612C10.8989 5.56827 10.9995 5.3064 11 5.03301C11.0005 4.75964 10.9011 4.4972 10.7235 4.30354C10.5459 4.10975 10.3048 4.00058 10.053 4C9.80131 3.99943 9.55967 4.10746 9.38135 4.30024L5.50009 8.51541L1.61882 4.30024L1.61869 4.30024C1.37848 4.04051 1.02875 3.93967 0.701504 4.03577C0.374126 4.13188 0.11884 4.41029 0.0318147 4.76609C-0.0552209 5.12207 0.039222 5.5013 0.279563 5.76119L4.83062 10.7038C5.01197 10.8979 5.25759 11.0046 5.51209 10.9998L5.51164 10.9999Z" fill="#FDA53C"/>
<path d="M5.51164 6.99986C5.75794 6.9977 5.99391 6.89154 6.16945 6.70379L10.7205 1.7612C10.8989 1.56827 10.9995 1.3064 11 1.03301C11.0005 0.759642 10.9011 0.497199 10.7235 0.303541C10.5459 0.109754 10.3048 0.000575569 10.053 1.94475e-06C9.80131 -0.000571679 9.55967 0.107455 9.38135 0.300238L5.50009 4.51541L1.61882 0.300239L1.61869 0.300239C1.37848 0.0405139 1.02875 -0.0603314 0.701504 0.0357732C0.374126 0.131878 0.11884 0.410292 0.0318147 0.766092C-0.0552209 1.12207 0.039222 1.5013 0.279563 1.76119L4.83062 6.70378C5.01197 6.89785 5.25759 7.00459 5.51209 6.99985L5.51164 6.99986Z" fill="#FDA53C"/>
</svg>
