<svg width="43" height="41" viewBox="0 0 43 41" fill="none" xmlns="http://www.w3.org/2000/svg">
<path fill-rule="evenodd" clip-rule="evenodd" d="M37.6374 10.1776C38.8395 10.1776 39.9362 10.6719 40.7304 11.4675C41.5259 12.2569 42.0203 13.3547 42.0203 14.5611V19.715H32.4109C29.5294 19.715 27.1673 22.0774 27.1673 24.9586V26.0674C27.1673 28.9489 29.5297 31.311 32.4109 31.311H42.0203V36.4642C42.0203 37.67 41.526 38.7677 40.7336 39.5603C39.9409 40.353 38.8432 40.8476 37.6374 40.8476H10.1455C5.10877 40.8476 0.979935 36.7183 0.979935 31.682V6.66066C0.979935 3.40604 3.63369 0.750732 6.88831 0.750732H32.1833C32.8436 0.750732 33.379 1.28606 33.379 1.94578C33.379 2.60612 32.8437 3.14148 32.1833 3.14148H6.88831C2.26789 3.14148 2.25959 10.1777 6.88831 10.1777H37.6374L37.6374 10.1776ZM42.0206 21.0834V29.9436H32.4112C30.2772 29.9436 28.5354 28.2018 28.5354 26.0678V24.959C28.5354 22.825 30.2772 21.0831 32.4112 21.0831L42.0206 21.0834ZM35.27 22.7141C36.0413 22.7141 36.7405 23.0281 37.2465 23.5338C37.7554 24.0402 38.0691 24.7409 38.0691 25.5132C38.0691 26.2862 37.7558 26.9863 37.2494 27.4927C36.7431 27.9991 36.043 28.3123 35.27 28.3123C34.4977 28.3123 33.797 27.999 33.2905 27.4927L33.2508 27.4497C32.7689 26.9469 32.4709 26.2642 32.4709 25.5136C32.4709 24.7436 32.7848 24.0438 33.2905 23.5371C33.8001 23.0288 34.4996 22.7145 35.27 22.7145L35.27 22.7141ZM36.2825 24.5005C36.0245 24.2419 35.6664 24.0819 35.27 24.0819C34.874 24.0819 34.5149 24.2426 34.2569 24.4999C33.9996 24.7578 33.839 25.117 33.839 25.5129C33.839 25.8949 33.9875 26.241 34.229 26.4974L34.2579 26.5248C34.5165 26.7834 34.875 26.9437 35.2701 26.9437C35.6654 26.9437 36.0236 26.783 36.2822 26.5248C36.5408 26.2662 36.7011 25.908 36.7011 25.5126C36.7011 25.1179 36.5405 24.7591 36.2825 24.5001L36.2825 24.5005Z" fill="#FDA53C" fill-opacity="0.61"/>
</svg>
