<svg width="111" height="111" viewBox="0 0 111 111" fill="none" xmlns="http://www.w3.org/2000/svg">
<g clip-path="url(#clip0_53_8)">
<path d="M98.3779 46.4492L96.8408 40.7127C101.594 58.4518 86.921 77.961 63.7577 84.5007C40.3419 91.1118 17.1162 81.9659 11.883 64.0744C11.8257 63.8813 11.7723 63.689 11.7207 63.4963L13.2578 69.2329C13.3094 69.4256 13.3633 69.6196 13.4201 69.8109C18.6533 87.7025 41.879 96.8483 65.2948 90.2372C88.4581 83.6976 103.132 64.1901 98.3779 46.4492Z" fill="url(#paint0_linear_53_8)"/>
<path d="M17.788 61.7143C21.92 77.1353 41.5892 85.2637 61.7204 79.8696C81.8515 74.4755 94.8213 57.6015 90.6893 42.1804C86.5572 26.7594 66.888 18.631 46.7569 24.0251C26.6257 29.4193 13.6559 46.2933 17.788 61.7143Z" fill="url(#paint1_linear_53_8)"/>
<path d="M91.2714 40.8874L90.5516 41.6944C95.0335 57.0182 82.4106 74.0316 62.3544 79.6941C42.2983 85.3566 22.4076 77.5241 17.9234 62.199C13.4415 46.8752 26.0645 29.8618 46.1206 24.1993C66.1767 18.5369 86.0697 26.3706 90.5516 41.6944L91.2714 40.8874C86.6817 25.1961 66.3126 17.1755 45.7773 22.9738C25.2421 28.7721 12.3152 46.1926 16.9048 61.8839C21.4945 77.5752 41.8637 85.5958 62.3989 79.7975C82.9346 74.001 95.8611 56.5788 91.2714 40.8874Z" fill="url(#paint2_linear_53_8)"/>
<path d="M63.3154 82.9332C40.5136 89.3705 17.8976 80.4651 12.8014 63.043C7.70464 45.6192 22.0573 26.2758 44.8591 19.8386C67.6609 13.4014 90.2769 22.3067 95.3731 39.7288C100.469 57.1509 86.1189 76.4955 63.3154 82.9332ZM91.2714 40.8874C86.6817 25.1961 66.3125 17.1755 45.7773 22.9738C25.2421 28.7721 12.3151 46.1926 16.9048 61.8839C21.4945 77.5753 41.8637 85.5958 62.3989 79.7976C82.9346 74.001 95.8611 56.5788 91.2714 40.8874Z" fill="url(#paint3_linear_53_8)"/>
<path d="M96.6782 40.1347L95.3746 39.7284C100.471 57.1523 86.1182 76.4939 63.3169 82.9328C40.5151 89.3701 17.8991 80.4647 12.8029 63.0426C7.70442 45.6192 22.0571 26.2759 44.8589 19.8387C67.6606 13.4014 90.2767 22.3068 95.3729 39.7289L96.6782 40.1347C91.445 22.2431 68.2193 13.0973 44.8035 19.7083C21.3877 26.3194 6.64785 46.1833 11.8828 64.0744C17.116 81.966 40.3417 91.1118 63.7575 84.5008C87.1733 77.8897 101.912 58.028 96.6782 40.1347Z" fill="url(#paint4_linear_53_8)"/>
</g>
<path d="M58.5045 40.5856C54.1686 38.5141 49.4108 39.7132 44.7011 41.9821L39.2011 38.8069L35.8637 40.7336L41.2035 43.8163C40.3224 44.3249 39.42 44.8459 38.5336 45.3576L33.1724 42.2626L29.8243 44.1954L35.3244 47.3706C34.6035 47.7868 33.8879 48.1998 33.1884 48.6037L28.5748 51.2671L32.1311 53.3448C32.1311 53.3448 34.5608 51.8929 34.5608 51.9422C35.9171 51.1592 37.1506 51.3596 37.9515 51.6802L44.2205 55.2992C44.3329 55.2266 44.4523 55.1576 44.5783 55.0927L44.2098 55.3054L52.9992 60.4103C53.2781 60.6043 53.4142 60.8537 53.3783 61.105C53.3424 61.3563 53.1372 61.5894 52.8069 61.7544C52.887 61.7513 50.372 63.1601 50.372 63.1601L53.704 65.8605L58.0613 63.345L60.4536 61.964L66.0176 65.1761L69.3657 63.2433L63.8657 60.0682C64.7841 59.5379 65.7026 59.0447 66.5676 58.5453L72.0463 61.7081L75.3944 59.7753L69.841 56.5693C75.2128 53.1722 77.7439 50.0834 72.9434 46.7571C69.0774 44.0567 65.1793 44.1245 61.1958 45.5241C62.1516 43.8317 61.6337 42.127 58.4511 40.6103L58.5045 40.5856ZM65.6706 50.1666C69.8303 52.568 62.2157 56.3967 59.9409 57.7037L52.572 53.4496C54.8414 52.1395 61.3346 47.6696 65.6545 50.1758L65.6706 50.1666ZM53.7414 45.0493C57.522 47.2319 51.1195 50.3978 49.2292 51.4891L42.5438 47.6295C44.4554 46.5321 49.8059 42.7651 53.7414 45.0493Z" fill="#B47D1E"/>
<defs>
<linearGradient id="paint0_linear_53_8" x1="101.972" y1="59.8649" x2="16.8583" y2="82.671" gradientUnits="userSpaceOnUse">
<stop stop-color="#FFEDC2"/>
<stop offset="0.0889" stop-color="#FCEEB6"/>
<stop offset="0.1767" stop-color="#F7EFA6"/>
<stop offset="0.3763" stop-color="#F3D16E"/>
<stop offset="0.4657" stop-color="#EEC65E"/>
<stop offset="0.5574" stop-color="#E4B650"/>
<stop offset="0.6203" stop-color="#AF7121"/>
<stop offset="0.6528" stop-color="#AF7121"/>
<stop offset="0.7254" stop-color="#F2D76C"/>
<stop offset="0.7921" stop-color="#F8E77D"/>
<stop offset="0.8441" stop-color="#F7F1A4"/>
<stop offset="0.8919" stop-color="#FFF2C5"/>
<stop offset="0.9342" stop-color="#E6AD06"/>
<stop offset="0.9529" stop-color="#E6AD06"/>
<stop offset="1" stop-color="#FBCB4A"/>
</linearGradient>
<linearGradient id="paint1_linear_53_8" x1="37.4309" y1="81.0584" x2="71.0456" y2="22.836" gradientUnits="userSpaceOnUse">
<stop stop-color="#E2AA21"/>
<stop offset="0.3709" stop-color="#E8C53E"/>
<stop offset="0.8239" stop-color="#EEC86A"/>
<stop offset="1" stop-color="#EEBE5B"/>
</linearGradient>
<linearGradient id="paint2_linear_53_8" x1="91.4108" y1="41.3855" x2="16.7652" y2="61.3867" gradientUnits="userSpaceOnUse">
<stop stop-color="#BA7322"/>
<stop offset="0.0259" stop-color="#AA6118"/>
<stop offset="0.0645" stop-color="#8B3E04"/>
<stop offset="0.0763" stop-color="#A05B17"/>
<stop offset="0.1063" stop-color="#D3A045"/>
<stop offset="0.128" stop-color="#F3CB62"/>
<stop offset="0.139" stop-color="#FFDC6D"/>
<stop offset="0.2087" stop-color="#FFFFB5"/>
<stop offset="0.318" stop-color="#FCFDF6"/>
<stop offset="0.5529" stop-color="#FFFF9C"/>
<stop offset="0.6844" stop-color="#FDDF59"/>
<stop offset="0.7758" stop-color="#FDDC53"/>
<stop offset="0.7981" stop-color="#F5CF4A"/>
<stop offset="0.8393" stop-color="#E1AD31"/>
<stop offset="0.8944" stop-color="#C0770A"/>
<stop offset="0.903" stop-color="#BB6E03"/>
<stop offset="1" stop-color="#5B1F03"/>
</linearGradient>
<linearGradient id="paint3_linear_53_8" x1="45.5816" y1="19.6401" x2="62.5942" y2="83.1321" gradientUnits="userSpaceOnUse">
<stop stop-color="#E6C049"/>
<stop offset="1" stop-color="#E09719"/>
</linearGradient>
<linearGradient id="paint4_linear_53_8" x1="96.8372" y1="40.7022" x2="11.7234" y2="63.5083" gradientUnits="userSpaceOnUse">
<stop stop-color="#DBA42F"/>
<stop offset="0.1348" stop-color="#FFE964"/>
<stop offset="0.3944" stop-color="#FFDC6D"/>
<stop offset="0.62" stop-color="#FFFFB5"/>
<stop offset="0.7538" stop-color="#FCFDF6"/>
<stop offset="0.8106" stop-color="#FFFF9C"/>
<stop offset="0.8561" stop-color="#FDDC53"/>
<stop offset="0.8714" stop-color="#F5CF4A"/>
<stop offset="0.8996" stop-color="#E1AD31"/>
<stop offset="0.9373" stop-color="#C0770A"/>
<stop offset="0.9432" stop-color="#BB6E03"/>
<stop offset="1" stop-color="#5B1F03"/>
</linearGradient>
<clipPath id="clip0_53_8">
<rect width="89.8745" height="89.8745" fill="white" transform="translate(86.812) rotate(75)"/>
</clipPath>
</defs>
</svg>
