<svg width="45" height="47" viewBox="0 0 45 47" fill="none" xmlns="http://www.w3.org/2000/svg">
<path d="M41.8026 42.0847C45.4611 40.0635 45.5551 34.8381 41.975 32.6838L41.2464 32.2451C32.7621 27.1372 22.2331 26.8161 13.4433 31.3833L3.7525 36.4206L13.1221 41.8261C21.9746 46.9261 32.8561 47.028 41.8026 42.0847Z" fill="#FDA53C"/>
<path d="M27.7013 46.0879C22.5857 46.0879 17.47 44.7796 12.9263 42.1552L3.55669 36.7497C3.43135 36.6792 3.36084 36.546 3.36084 36.405C3.36084 36.2639 3.44702 36.1308 3.57236 36.0681L13.2631 31.0308C22.1078 26.4322 32.9032 26.7691 41.4501 31.9082L42.1787 32.3469C43.9805 33.4359 45.0381 35.3395 44.999 37.4391C44.9598 39.5464 43.8395 41.4109 41.9985 42.4294C37.5723 44.8736 32.6368 46.0879 27.7013 46.0879ZM4.56728 36.4285L13.318 41.4815C21.9981 46.4953 32.8405 46.5893 41.6146 41.74C43.2128 40.8547 44.1842 39.2409 44.2156 37.4234C44.2469 35.5981 43.3382 33.9529 41.7713 33.0128L41.0428 32.5741C32.7308 27.576 22.2253 27.2469 13.6235 31.7202L4.56728 36.4285Z" fill="#FDA53C"/>
<path d="M28.6649 8.56262L28.6335 31.8455H14.5165L14.5478 8.56262H28.6649Z" fill="#FCFAD4"/>
<path d="M28.6336 32.2372H14.5166C14.4147 32.2372 14.3129 32.198 14.2424 32.1197C14.1718 32.0492 14.1248 31.9474 14.1248 31.8455L14.1562 8.57048C14.1562 8.35112 14.3285 8.17877 14.5479 8.17877H28.6649C28.7667 8.17877 28.8686 8.21794 28.9391 8.29628C29.0096 8.36679 29.0566 8.46863 29.0566 8.57048L29.0253 31.8455C29.0253 32.057 28.8529 32.2372 28.6336 32.2372ZM14.9083 31.4538H28.2418L28.2732 8.96218H14.9396L14.9083 31.4538Z" fill="#FDA53C"/>
<path d="M24.505 2.78108C27.0668 4.26172 28.6571 6.3064 28.6727 8.56262H14.5557L14.6027 16.7414C10.7014 16.7414 7.16819 15.8248 4.60645 14.3442C2.0447 12.8635 0.454393 10.8188 0.438725 8.56262C0.415223 4.04235 6.71382 0.38385 14.5166 0.38385C18.4023 0.38385 21.9354 1.30044 24.505 2.78108Z" fill="white"/>
<path d="M14.5949 17.1331C10.7562 17.1331 7.13684 16.2635 4.40275 14.6889C1.59815 13.0751 0.0548272 10.8972 0.039159 8.57048C0.031325 7.02717 0.720731 5.50736 2.02902 4.19907C4.60643 1.60599 9.38521 0 14.5087 0C18.3474 0 21.9668 0.869579 24.7008 2.44423C27.5054 4.05805 29.0488 6.23592 29.0644 8.56264C29.0644 8.66448 29.0252 8.76633 28.9469 8.84467C28.8764 8.91518 28.7746 8.96219 28.6727 8.96219H14.9474L14.9866 16.7493C14.9866 16.8511 14.9474 16.9529 14.8691 17.0313C14.7986 17.094 14.6967 17.1331 14.5949 17.1331ZM14.5009 0.775578C9.58107 0.775578 5.0138 2.29538 2.5774 4.74745C1.41796 5.91473 0.814733 7.23085 0.822567 8.56264C0.830401 10.5995 2.24837 12.5345 4.79445 14.0073C7.31702 15.4645 10.6465 16.287 14.2032 16.3497L14.164 8.57048C14.164 8.46864 14.2032 8.3668 14.2815 8.28846C14.352 8.21795 14.4539 8.17094 14.5557 8.17094H28.2653C28.0852 6.27509 26.6985 4.49676 24.317 3.11796C21.6847 1.61382 18.2064 0.775578 14.5009 0.775578Z" fill="#FDA53C"/>
<path d="M14.5949 16.7414L14.5635 40.0165C10.6621 40.0165 7.12897 39.0999 4.56723 37.6192C2.00549 36.1386 0.415174 34.0939 0.399506 31.8377L0.430837 8.56262C0.446505 10.8188 2.03683 12.8635 4.59857 14.3442C7.16032 15.8248 10.6935 16.7414 14.5949 16.7414Z" fill="white"/>
<path d="M14.5557 40.416C10.717 40.416 7.09767 39.5464 4.36358 37.9718C1.55898 36.3579 0.0156682 34.1801 0 31.8533L0.0313311 8.57048C0.0313311 8.35112 0.203681 8.17877 0.423035 8.17877C0.634555 8.17877 0.814739 8.35112 0.814739 8.57048C0.822573 10.6073 2.24055 12.5424 4.78662 14.0152C7.4032 15.5271 10.8815 16.3576 14.5871 16.3576C14.6889 16.3576 14.7907 16.3967 14.8612 16.4751C14.9318 16.5456 14.9788 16.6474 14.9788 16.7493L14.9474 40.0243C14.9474 40.2358 14.7751 40.416 14.5557 40.416ZM0.814739 11.3437L0.783408 31.8455C0.791242 33.8824 2.2092 35.8174 4.75528 37.2902C7.27785 38.7473 10.6073 39.5699 14.164 39.6326L14.1953 17.141C10.5055 17.0861 7.035 16.2244 4.39492 14.6967C2.7576 13.7331 1.53547 12.5972 0.814739 11.3437Z" fill="#FDA53C"/>
<path d="M33.9529 12.8557C33.9764 17.3681 27.6778 21.0345 19.875 21.0345L19.828 12.8557H33.9529Z" fill="#FDA53C"/>
<path d="M19.8751 21.4262C19.6636 21.4262 19.4834 21.2538 19.4834 21.0345L19.4364 12.8557C19.4364 12.7539 19.4755 12.652 19.5539 12.5737C19.6244 12.5032 19.7262 12.4562 19.8281 12.4562H33.9451C34.1566 12.4562 34.3368 12.6285 34.3368 12.8479C34.3446 14.3912 33.663 15.9032 32.3548 17.2193C29.7852 19.8202 24.9986 21.4262 19.8751 21.4262ZM20.2198 13.2474L20.259 20.6428C25.0299 20.5644 29.4248 19.0603 31.7985 16.6709C32.8405 15.6211 33.4359 14.446 33.5377 13.2474H20.2198Z" fill="#FDA53C"/>
<path d="M33.9529 12.8557L33.9216 36.1308C33.9451 40.6432 27.6465 44.3095 19.8437 44.3095L19.8751 21.0345C27.67 21.0345 33.9764 17.376 33.9529 12.8557Z" fill="#FCFAD4"/>
<path d="M19.8437 44.7091C19.7419 44.7091 19.6401 44.6699 19.5695 44.5916C19.499 44.5211 19.452 44.4192 19.452 44.3174L19.4834 21.0423C19.4834 20.823 19.6557 20.6506 19.8751 20.6506C24.7949 20.6506 29.37 19.1308 31.7985 16.6788C32.9345 15.535 33.5455 14.2424 33.5534 12.9262V12.8636C33.5534 12.6442 33.7257 12.4719 33.9451 12.4719C34.1644 12.4719 34.3368 12.6442 34.3368 12.8636C34.3368 12.8871 34.3368 12.9106 34.3368 12.9341L34.3055 36.1464C34.3133 37.6898 33.6317 39.2017 32.3234 40.5179C29.746 43.0953 24.9594 44.7091 19.8437 44.7091ZM20.2668 21.4262L20.2354 43.9179C25.0064 43.8395 29.4013 42.3354 31.7672 39.946C32.9266 38.7865 33.5299 37.4626 33.522 36.1308L33.5534 15.6838C33.24 16.2166 32.8405 16.7336 32.3548 17.2193C29.8478 19.7497 25.2414 21.3479 20.2668 21.4262Z" fill="#FDA53C"/>
</svg>
