<svg width="45" height="52" viewBox="0 0 45 52" fill="none" xmlns="http://www.w3.org/2000/svg">
<path d="M33.6492 38.9974L44.5545 32.9497L33.7365 26.4206L22.2642 32.4071L33.6492 38.9974Z" fill="#FDA53C"/>
<path d="M33.6492 39.4351C33.5707 39.4351 33.5009 39.4176 33.4311 39.3738L22.046 32.7834C21.9065 32.7047 21.8279 32.5559 21.8279 32.3983C21.8279 32.2408 21.9239 32.092 22.0635 32.022L33.5445 26.0355C33.6754 25.9655 33.8411 25.9742 33.972 26.053L44.79 32.5821C44.9209 32.6609 45.0081 32.8097 44.9994 32.9672C44.9994 33.1248 44.9122 33.2648 44.7726 33.3436L33.8586 39.3913C33.7888 39.4176 33.719 39.4351 33.6492 39.4351ZM23.1715 32.4246L33.6579 38.4898L43.6908 32.9235L33.7277 26.9107L23.1715 32.4246Z" fill="#FDA53C"/>
<path d="M36.7812 4.61893L29.5925 8.80246L22.3688 4.61893L29.5489 0.426636L36.7812 4.61893Z" fill="white"/>
<path d="M29.5925 9.2401C29.514 9.2401 29.4442 9.22258 29.3744 9.17882L22.142 4.99529C22.0112 4.91652 21.9239 4.7765 21.9239 4.61896C21.9239 4.46142 22.0024 4.32138 22.142 4.24261L29.322 0.0590771C29.4529 -0.0196924 29.6274 -0.0196924 29.7582 0.0590771L36.9906 4.24261C37.1215 4.32138 37.2087 4.46142 37.2087 4.61896C37.2087 4.7765 37.1302 4.91652 36.9906 4.99529L29.8106 9.17882C29.7495 9.22258 29.671 9.2401 29.5925 9.2401ZM23.2413 4.61896L29.6012 8.30361L35.9175 4.61896L29.5576 0.934293L23.2413 4.61896Z" fill="#FDA53C"/>
<path d="M36.7812 4.61896L36.6765 32.4071L29.4878 36.5906L29.5925 8.80249L36.7812 4.61896Z" fill="#FCECD4"/>
<path d="M29.4878 37.0282C29.4093 37.0282 29.3395 37.0107 29.2697 36.9669C29.1301 36.8882 29.0516 36.7394 29.0516 36.5906L29.1563 8.80249C29.1563 8.64495 29.2435 8.50491 29.3744 8.42614L36.5544 4.24261C36.6853 4.16384 36.8597 4.16384 36.9906 4.24261C37.1302 4.32138 37.2087 4.47017 37.2087 4.62771L37.104 32.4158C37.104 32.5734 37.0168 32.7134 36.8859 32.7922L29.7059 36.9757C29.6448 37.0107 29.5663 37.0282 29.4878 37.0282ZM30.0287 9.0563L29.924 35.8292L36.2316 32.1532L36.3363 5.38039L30.0287 9.0563Z" fill="#FDA53C"/>
<path d="M29.5924 8.80255L29.4878 36.5906L22.2641 32.4071L22.3688 4.61902L29.5924 8.80255Z" fill="white"/>
<path d="M29.4878 37.0282C29.4093 37.0282 29.3395 37.0107 29.2697 36.9669L22.0373 32.7834C21.8977 32.7046 21.8192 32.5559 21.8192 32.3983L21.9239 4.61022C21.9239 4.45268 22.0112 4.31265 22.142 4.23388C22.2729 4.15511 22.4386 4.15511 22.5782 4.23388L29.8106 8.41741C29.9502 8.49618 30.0287 8.64497 30.0287 8.80251L29.924 36.5906C29.924 36.7481 29.8368 36.8882 29.7059 36.9669C29.6361 37.0107 29.5663 37.0282 29.4878 37.0282ZM22.7004 32.1533L29.0603 35.8379L29.165 9.05632L22.8051 5.37166L22.7004 32.1533Z" fill="#FDA53C"/>
<path d="M11.8213 51.1016L22.7352 45.0539L11.9172 38.5248L0.436188 44.5113L11.8213 51.1016Z" fill="#FDA53C"/>
<path d="M11.83 51.5392C11.7515 51.5392 11.6817 51.5218 11.6119 51.478L0.226802 44.8876C0.0872153 44.8089 0.00869751 44.6601 0.00869751 44.5025C0.00869751 44.345 0.104667 44.1962 0.244255 44.1262L11.7253 38.1397C11.8562 38.0697 12.0219 38.0784 12.1528 38.1572L22.9708 44.6863C23.1017 44.7651 23.1889 44.9139 23.1802 45.0714C23.1802 45.229 23.0929 45.369 22.9533 45.4478L12.0394 51.5043C11.9696 51.5218 11.8998 51.5392 11.83 51.5392ZM1.3435 44.5288L11.83 50.594L21.8628 45.0276L11.8998 39.0237L1.3435 44.5288Z" fill="#FDA53C"/>
<path d="M22.7353 45.0539L33.6492 38.9974L22.8312 32.4683L11.3502 38.4548L22.7353 45.0539Z" fill="#FDA53C"/>
<path d="M22.7353 45.4915C22.6567 45.4915 22.5869 45.474 22.5172 45.4303L11.1321 38.8399C10.9925 38.7611 10.914 38.6123 10.914 38.4548C10.914 38.2973 11.0099 38.1485 11.1495 38.0785L22.6306 32.092C22.7614 32.0219 22.9272 32.0307 23.0581 32.1095L33.8761 38.6386C34.0069 38.7174 34.0942 38.8661 34.0854 39.0237C34.0854 39.1812 33.9982 39.3213 33.8586 39.4L22.9446 45.4565C22.8836 45.4653 22.8051 45.4915 22.7353 45.4915ZM12.2575 38.4811L22.744 44.5463L32.7768 38.9799L22.8138 32.9672L12.2575 38.4811Z" fill="#FDA53C"/>
<path d="M25.8673 20.968L18.6872 25.1515L11.4549 20.968L18.6349 16.7757L25.8673 20.968Z" fill="white"/>
<path d="M18.6872 25.5891C18.6087 25.5891 18.5389 25.5716 18.4691 25.5279L11.2368 21.3444C11.1059 21.2656 11.0187 21.1255 11.0187 20.968C11.0187 20.8105 11.0972 20.6704 11.2368 20.5917L18.4168 16.4081C18.5477 16.3294 18.7221 16.3294 18.853 16.4081L26.0854 20.5917C26.2162 20.6704 26.3035 20.8105 26.3035 20.968C26.3035 21.1255 26.2249 21.2656 26.0854 21.3444L18.9053 25.5279C18.8356 25.5716 18.7658 25.5891 18.6872 25.5891ZM12.3273 20.9593L18.6872 24.6439L25.0036 20.9593L18.6436 17.2746L12.3273 20.9593Z" fill="#FDA53C"/>
<path d="M25.8673 20.968L25.7626 38.4548L18.5826 42.6471L18.6873 25.1515L25.8673 20.968Z" fill="#FCECD4"/>
<path d="M18.5826 43.0847C18.5041 43.0847 18.4343 43.0672 18.3645 43.0234C18.2249 42.9447 18.1464 42.7959 18.1464 42.6383L18.251 25.1428C18.251 24.9852 18.3383 24.8452 18.4692 24.7664L25.6492 20.5829C25.78 20.5041 25.9545 20.5041 26.0854 20.5829C26.225 20.6617 26.3035 20.8104 26.3035 20.968L26.1988 38.4635C26.1988 38.6211 26.1115 38.7611 25.9807 38.8399L18.8007 43.0234C18.7309 43.0672 18.6524 43.0847 18.5826 43.0847ZM19.1235 25.4053L19.0188 41.8856L25.3264 38.2097L25.4223 21.7294L19.1235 25.4053Z" fill="#FDA53C"/>
<path d="M18.6872 25.1515L18.5826 42.6471L11.3502 38.4548L11.4549 20.968L18.6872 25.1515Z" fill="white"/>
<path d="M18.5825 43.0847C18.504 43.0847 18.4342 43.0672 18.3644 43.0234L11.1321 38.8399C10.9925 38.7611 10.914 38.6123 10.914 38.4548L11.0187 20.9592C11.0187 20.8017 11.1059 20.6617 11.2368 20.5829C11.3676 20.5041 11.5334 20.5041 11.673 20.5829L18.9053 24.7664C19.0449 24.8452 19.1234 24.994 19.1234 25.1515L19.0188 42.6471C19.0188 42.8046 18.9315 42.9447 18.8007 43.0234C18.7309 43.0672 18.6523 43.0847 18.5825 43.0847ZM11.7864 38.2097L18.1463 41.8944L18.251 25.4053L11.8911 21.7207L11.7864 38.2097Z" fill="#FDA53C"/>
<path d="M14.962 35.4791L7.77325 39.6626L0.549622 35.4791L7.72963 31.2955L14.962 35.4791Z" fill="white"/>
<path d="M7.77328 40.1002C7.69476 40.1002 7.62497 40.0827 7.55518 40.0389L0.322811 35.8554C0.191948 35.7766 0.104706 35.6366 0.104706 35.4791C0.104706 35.3215 0.183224 35.1815 0.322811 35.1027L7.50283 30.9192C7.6337 30.8404 7.80818 30.8404 7.93904 30.9192L15.1714 35.1027C15.3023 35.1815 15.3895 35.3215 15.3895 35.4791C15.3895 35.6366 15.311 35.7766 15.1714 35.8554L7.99139 40.0389C7.93032 40.0827 7.8518 40.1002 7.77328 40.1002ZM1.41334 35.4791L7.77328 39.1637L14.0896 35.4791L7.72966 31.7944L1.41334 35.4791Z" fill="#FDA53C"/>
<path d="M14.962 35.4791L14.8486 44.5113L7.66855 48.6948L7.77325 39.6626L14.962 35.4791Z" fill="#FCECD4"/>
<path d="M7.66854 49.1324C7.59002 49.1324 7.52023 49.1149 7.45044 49.0712C7.31085 48.9924 7.23233 48.8436 7.23233 48.6861L7.33703 39.6539C7.33703 39.4963 7.42427 39.3563 7.55513 39.2775L14.7351 35.094C14.866 35.0152 15.0405 35.0152 15.1714 35.094C15.3109 35.1728 15.3895 35.3215 15.3895 35.4791L15.2848 44.5113C15.2848 44.6688 15.1975 44.8089 15.0667 44.8877L7.88665 49.0712C7.81685 49.1149 7.74706 49.1324 7.66854 49.1324ZM8.20945 39.9164L8.11348 47.9247L14.4211 44.2487L14.517 36.2405L8.20945 39.9164Z" fill="#FDA53C"/>
<path d="M7.77327 39.6626L7.66857 48.6948L0.436218 44.5113L0.549637 35.4791L7.77327 39.6626Z" fill="white"/>
<path d="M7.66856 49.1324C7.59004 49.1324 7.52025 49.1149 7.45046 49.0712L0.218105 44.8877C0.0785178 44.8089 0 44.6601 0 44.5026L0.104686 35.4703C0.104686 35.3128 0.191928 35.1728 0.322791 35.094C0.453654 35.0152 0.619414 35.0152 0.759001 35.094L7.99137 39.2775C8.13095 39.3563 8.20947 39.5051 8.20947 39.6626L8.10477 48.6948C8.10477 48.8524 8.01753 48.9924 7.88667 49.0712C7.81687 49.1149 7.74708 49.1324 7.66856 49.1324ZM0.881139 44.2575L7.24109 47.9422L7.33705 39.9164L0.977106 36.2318L0.881139 44.2575Z" fill="#FDA53C"/>
</svg>
