<svg width="44" height="53" viewBox="0 0 44 53" fill="none" xmlns="http://www.w3.org/2000/svg">
<path d="M34.8032 42.8381C30.9863 40.6366 24.8176 40.6366 21.0232 42.8381C17.2288 45.0396 17.2514 48.6161 21.0683 50.8176C24.8852 53.0191 31.0539 53.0191 34.8483 50.8176C38.6427 48.6161 38.6202 45.0396 34.8032 42.8381Z" fill="#F30C2B"/>
<path d="M40.3558 34.0246C36.5389 31.8231 30.3702 31.8231 26.5758 34.0246C22.7814 36.2261 22.8039 39.8026 26.6209 42.0041C30.4378 44.2056 36.6065 44.2056 40.4009 42.0041C44.1953 39.8026 44.1727 36.2261 40.3558 34.0246Z" fill="#F30C2B"/>
<path d="M33.6987 33.8668L33.6912 37.4583C33.6837 38.7732 32.8196 40.0881 31.0915 41.0949C27.6127 43.1161 21.9549 43.1161 18.4611 41.0949C16.7029 40.0806 15.8238 38.7432 15.8238 37.4133L15.8313 33.8217C15.8238 35.1517 16.7104 36.4891 18.4686 37.5034C21.9699 39.5246 27.6277 39.5246 31.099 37.5034C32.8271 36.4966 33.6912 35.1892 33.6987 33.8668Z" fill="#FCD4D4"/>
<path d="M24.78 42.9733C22.4207 42.9733 20.069 42.4549 18.2657 41.418C16.4399 40.3661 15.4331 38.9385 15.4406 37.4057L15.4481 33.8142C15.4481 33.6038 15.6134 33.4385 15.8238 33.4385C16.0341 33.4385 16.1994 33.6113 16.1994 33.8142V33.8217C16.1994 35.069 17.071 36.2636 18.6489 37.1728C22.0375 39.1263 27.5375 39.1338 30.9037 37.1728C32.4515 36.2712 33.308 35.099 33.3155 33.8593C33.3155 33.6489 33.4658 33.4836 33.6912 33.4836C33.9016 33.4836 34.0669 33.6564 34.0669 33.8593L34.0594 37.4508C34.0519 38.961 33.0676 40.3661 31.2793 41.4105C29.4911 42.4549 27.1393 42.9733 24.78 42.9733ZM16.1994 36.0307L16.1919 37.4132C16.1919 38.668 17.056 39.8552 18.6414 40.7718C22.03 42.7329 27.53 42.7329 30.8961 40.7718C32.4439 39.8702 33.3005 38.6981 33.308 37.4583L33.3155 36.0758C32.8422 36.7295 32.1659 37.3231 31.2868 37.8265C27.7103 39.9002 21.8722 39.9077 18.2807 37.8265C17.3791 37.308 16.6728 36.6994 16.1994 36.0307Z" fill="#F30C2B"/>
<path d="M31.0614 30.1851C34.5628 32.2063 34.5778 35.4822 31.099 37.5034C27.6202 39.5246 21.9624 39.5246 18.4686 37.5034C14.9672 35.4822 14.9522 32.2063 18.431 30.1851C21.9023 28.1639 27.5601 28.1639 31.0614 30.1851Z" fill="white"/>
<path d="M24.7875 39.3893C22.4283 39.3893 20.0765 38.8709 18.2732 37.834C16.4549 36.7821 15.4481 35.362 15.4481 33.8368C15.4481 32.319 16.4324 30.9064 18.2281 29.862C21.8046 27.7883 27.6427 27.7808 31.2418 29.862C33.0601 30.9139 34.0669 32.334 34.0669 33.8593C34.0669 35.3771 33.0826 36.7896 31.2868 37.834C29.4986 38.8709 27.1468 39.3893 24.7875 39.3893ZM24.7349 29.0431C22.5184 29.0431 20.3019 29.5314 18.6113 30.5082C17.056 31.4098 16.1995 32.5895 16.1995 33.8292C16.1995 35.0765 17.071 36.2637 18.6489 37.1803C22.0375 39.1339 27.5375 39.1414 30.9037 37.1803C32.459 36.2787 33.3155 35.099 33.3155 33.8593C33.3155 32.612 32.4439 31.4249 30.8661 30.5157C29.1755 29.5314 26.9515 29.0431 24.7349 29.0431Z" fill="#F30C2B"/>
<path d="M31.0614 25.4666C34.5628 27.4877 34.5778 30.7637 31.099 32.7849C27.6202 34.806 21.9624 34.806 18.4686 32.7849C14.9672 30.7637 14.9522 27.4877 18.431 25.4666C21.9023 23.4454 27.5601 23.4454 31.0614 25.4666Z" fill="white"/>
<path d="M24.7875 34.6707C22.4358 34.6707 20.0765 34.1523 18.2732 33.1154C16.4549 32.0635 15.4481 30.6434 15.4481 29.1182C15.4481 27.6004 16.4324 26.1878 18.2281 25.1434C21.8046 23.0622 27.6427 23.0622 31.2418 25.1434C33.0601 26.1954 34.0669 27.6154 34.0669 29.1407C34.0669 30.6585 33.0826 32.071 31.2793 33.1154C29.4986 34.1523 27.1468 34.6707 24.7875 34.6707ZM24.7349 24.3245C22.5184 24.3245 20.3019 24.8129 18.6113 25.7971C17.056 26.6988 16.1995 27.8784 16.1995 29.1182C16.1995 30.3654 17.071 31.5526 18.6489 32.4617C22.0375 34.4228 27.5375 34.4228 30.9037 32.4617C32.459 31.5601 33.3155 30.3805 33.3155 29.1407C33.3155 27.8934 32.4439 26.7063 30.8661 25.7971C29.1755 24.8129 26.9515 24.3245 24.7349 24.3245Z" fill="#F30C2B"/>
<path d="M33.6987 29.1557L33.6912 32.7472C33.6837 34.0621 32.8196 35.377 31.0915 36.3838C27.6127 38.405 21.9549 38.405 18.4611 36.3838C16.7029 35.3695 15.8238 34.0321 15.8238 32.7021L15.8313 29.1106C15.8238 30.4405 16.7104 31.778 18.4686 32.7923C21.9699 34.8135 27.6277 34.8135 31.099 32.7923C32.8271 31.7855 33.6912 30.4706 33.6987 29.1557Z" fill="#FCD4D4"/>
<path d="M24.78 38.2548C22.4207 38.2548 20.069 37.7363 18.2657 36.6994C16.4399 35.6475 15.4331 34.2199 15.4406 32.6871L15.4481 29.0956C15.4481 28.8852 15.6134 28.7199 15.8238 28.7199C16.0341 28.7199 16.1994 28.8928 16.1994 29.0956V29.1031C16.1994 30.3504 17.071 31.5451 18.6489 32.4542C22.0375 34.4153 27.5375 34.4153 30.9037 32.4542C32.4515 31.5526 33.308 30.3805 33.3155 29.1407C33.3155 28.9303 33.4808 28.765 33.6912 28.765C33.9016 28.765 34.0669 28.9378 34.0669 29.1407L34.0594 32.7322C34.0519 34.2425 33.0676 35.6475 31.2793 36.6919C29.4911 37.7363 27.1393 38.2548 24.78 38.2548ZM16.1994 31.3121L16.1919 32.6947C16.1919 33.9494 17.056 35.1366 18.6414 36.0533C22.03 38.0068 27.53 38.0143 30.8961 36.0533C32.4439 35.1516 33.3005 33.9795 33.308 32.7397L33.3155 31.3572C32.8422 32.0109 32.1659 32.6045 31.2868 33.1079C27.7103 35.1892 21.8798 35.1892 18.2807 33.1079C17.3791 32.5895 16.6728 31.9808 16.1994 31.3121Z" fill="#F30C2B"/>
<path d="M31.0614 20.748C34.5628 22.7691 34.5778 26.0451 31.099 28.0662C27.6202 30.0874 21.9624 30.0874 18.4686 28.0662C14.9672 26.0451 14.9522 22.7691 18.431 20.748C21.9023 18.7268 27.5601 18.7268 31.0614 20.748Z" fill="white"/>
<path d="M24.7875 29.9522C22.4358 29.9522 20.0765 29.4338 18.2732 28.3969C16.4549 27.345 15.4481 25.9249 15.4481 24.3997C15.4481 22.8819 16.4324 21.4693 18.2281 20.4249C21.8046 18.3512 27.6427 18.3437 31.2418 20.4249C33.0601 21.4768 34.0669 22.8969 34.0669 24.4222C34.0669 25.94 33.0826 27.3525 31.2793 28.3969C29.4986 29.4338 27.1468 29.9522 24.7875 29.9522ZM24.7349 19.6059C22.5184 19.6059 20.3019 20.0943 18.6113 21.0786C17.056 21.9803 16.1995 23.1599 16.1995 24.3997C16.1995 25.6469 17.071 26.8341 18.6489 27.7432C22.0375 29.7043 27.5375 29.7043 30.9037 27.7432C32.459 26.8416 33.3155 25.6619 33.3155 24.4222C33.3155 23.1749 32.4439 21.9878 30.8661 21.0786C29.1755 20.0943 26.9515 19.6059 24.7349 19.6059Z" fill="#F30C2B"/>
<path d="M33.6987 24.4372L33.6912 28.0287C33.6837 29.3436 32.8196 30.6585 31.0915 31.6653C27.6127 33.6865 21.9549 33.6865 18.4611 31.6653C16.7029 30.6509 15.8238 29.3135 15.8238 27.9836L15.8313 24.3921C15.8238 25.722 16.7104 27.0594 18.4686 28.0738C21.9699 30.0949 27.6277 30.0949 31.099 28.0738C32.8271 27.067 33.6912 25.7521 33.6987 24.4372Z" fill="#FCD4D4"/>
<path d="M24.78 33.5437C22.4207 33.5437 20.069 33.0253 18.2657 31.9884C16.4399 30.9365 15.4331 29.5089 15.4406 27.9761L15.4481 24.3846C15.4481 24.1742 15.6134 24.0089 15.8238 24.0089C16.0341 24.0089 16.1994 24.1817 16.1994 24.3846V24.3921C16.1994 25.6394 17.071 26.834 18.6489 27.7432C22.0375 29.7043 27.5375 29.7043 30.9037 27.7432C32.4515 26.8416 33.308 25.6694 33.3155 24.4297C33.3155 24.2193 33.4808 24.054 33.6912 24.054C33.879 24.0465 34.0669 24.2193 34.0669 24.4297L34.0594 28.0212C34.0519 29.5314 33.0676 30.9365 31.2793 31.9809C29.4911 33.0178 27.1318 33.5437 24.78 33.5437ZM16.1994 26.5936L16.1919 27.9761C16.1919 29.2309 17.056 30.418 18.6414 31.3347C22.03 33.2882 27.53 33.2882 30.8961 31.3347C32.4439 30.4331 33.3005 29.261 33.308 28.0287L33.3155 26.6462C32.8422 27.2999 32.1659 27.8935 31.2868 28.3969C27.7103 30.4706 21.8798 30.4782 18.2807 28.3969C17.3791 27.8709 16.6728 27.2623 16.1994 26.5936Z" fill="#F30C2B"/>
<path d="M31.0614 16.0369C34.5628 18.0581 34.5778 21.3341 31.099 23.3552C27.6202 25.3764 21.9624 25.3764 18.4686 23.3552C14.9672 21.3341 14.9522 18.0581 18.431 16.0369C21.9023 14.0158 27.5601 14.0158 31.0614 16.0369Z" fill="white"/>
<path d="M24.7875 25.2336C22.4283 25.2336 20.0765 24.7152 18.2732 23.6783C16.4549 22.6264 15.4481 21.2063 15.4481 19.6811C15.4481 18.1633 16.4324 16.7582 18.2281 15.7139C21.8046 13.6326 27.6427 13.6326 31.2418 15.7139C33.0601 16.7658 34.0669 18.1858 34.0669 19.7111C34.0669 21.2289 33.0826 22.6414 31.2868 23.6858C29.4986 24.7152 27.1468 25.2336 24.7875 25.2336ZM24.7349 14.8873C22.5184 14.8873 20.3019 15.3757 18.6113 16.36C17.056 17.2617 16.1995 18.4413 16.1995 19.6811C16.1995 20.9283 17.071 22.1155 18.6489 23.0321C22.0375 24.9932 27.5375 24.9932 30.9037 23.0321C32.459 22.1305 33.3155 20.9509 33.3155 19.7111C33.3155 18.4638 32.4439 17.2767 30.8661 16.3675C29.1755 15.3832 26.9515 14.8873 24.7349 14.8873Z" fill="#F30C2B"/>
<path d="M33.6987 19.7186L33.6912 23.3101C33.6837 24.625 32.8196 25.9399 31.0915 26.9467C27.6127 28.9679 21.9549 28.9679 18.4611 26.9467C16.7029 25.9324 15.8238 24.595 15.8238 23.265L15.8313 19.6735C15.8238 21.0034 16.7104 22.3409 18.4686 23.3552C21.9699 25.3764 27.6277 25.3764 31.099 23.3552C32.8271 22.3484 33.6912 21.0335 33.6987 19.7186Z" fill="#FCD4D4"/>
<path d="M24.78 28.8252C22.4207 28.8252 20.069 28.3067 18.2657 27.2698C16.4399 26.2179 15.4331 24.7903 15.4406 23.2575L15.4481 19.666C15.4481 19.4556 15.6134 19.2903 15.8238 19.2903C16.0341 19.2903 16.1994 19.4632 16.1994 19.666V19.6735C16.1994 20.9208 17.071 22.1155 18.6489 23.0246C22.0375 24.9857 27.5375 24.9857 30.9037 23.0246C32.4515 22.123 33.308 20.9509 33.3155 19.7111C33.3155 19.5007 33.4808 19.3354 33.6912 19.3354C33.9016 19.3354 34.0669 19.5082 34.0669 19.7111L34.0594 23.3026C34.0519 24.8129 33.0676 26.2179 31.2793 27.2623C29.4911 28.3067 27.1393 28.8252 24.78 28.8252ZM16.1994 21.875L16.1919 23.2575C16.1919 24.5123 17.056 25.6995 18.6414 26.6161C22.03 28.5772 27.53 28.5697 30.8961 26.6161C32.4439 25.7145 33.3005 24.5424 33.308 23.3101L33.3155 21.9276C32.8422 22.5813 32.1659 23.1749 31.2868 23.6783C27.7103 25.7596 21.8722 25.7596 18.2807 23.6783C17.3791 23.1599 16.6728 22.5438 16.1994 21.875Z" fill="#F30C2B"/>
<path d="M31.0614 11.3183C34.5628 13.3395 34.5778 16.6155 31.099 18.6366C27.6202 20.6578 21.9624 20.6578 18.4686 18.6366C14.9672 16.6155 14.9522 13.3395 18.431 11.3183C21.9023 9.29717 27.5601 9.29717 31.0614 11.3183Z" fill="white"/>
<path d="M24.7875 20.5151C22.4358 20.5151 20.0765 19.9966 18.2732 18.9597C16.4549 17.9078 15.4481 16.4878 15.4481 14.9625C15.4481 13.4447 16.4324 12.0322 18.2281 10.9878C21.8046 8.914 27.6427 8.90649 31.2418 10.9878C33.0601 12.0397 34.0669 13.4598 34.0669 14.985C34.0669 16.5028 33.0826 17.9153 31.2868 18.9597C29.4986 19.9966 27.1468 20.5151 24.7875 20.5151ZM24.7349 10.1763C22.5184 10.1763 20.3019 10.6647 18.6113 11.6415C17.056 12.5431 16.1995 13.7227 16.1995 14.9625C16.1995 16.2098 17.071 17.3969 18.6489 18.3136C22.0375 20.2746 27.5375 20.2746 30.9037 18.3136C32.459 17.4119 33.3155 16.2323 33.3155 14.9925C33.3155 13.7453 32.4439 12.5581 30.8661 11.649C29.1755 10.6647 26.9515 10.1763 24.7349 10.1763Z" fill="#F30C2B"/>
<path d="M33.6987 15L33.6912 18.5915C33.6837 19.9064 32.8196 21.2213 31.0915 22.2281C27.6127 24.2493 21.9549 24.2493 18.4611 22.2281C16.7029 21.2138 15.8238 19.8764 15.8238 18.5464L15.8313 14.9549C15.8238 16.2848 16.7104 17.6223 18.4686 18.6366C21.9699 20.6578 27.6277 20.6578 31.099 18.6366C32.8271 17.6298 33.6912 16.3149 33.6987 15Z" fill="#FCD4D4"/>
<path d="M24.78 24.1066C22.4207 24.1066 20.069 23.5881 18.2657 22.5512C16.4399 21.4993 15.4331 20.0717 15.4406 18.5389L15.4481 14.9474C15.4481 14.737 15.6134 14.5717 15.8238 14.5717C16.0341 14.5717 16.1994 14.7446 16.1994 14.9474V14.9549C16.1994 16.2022 17.071 17.3969 18.6489 18.306C22.0375 20.2671 27.5375 20.2671 30.9037 18.306C32.4515 17.4044 33.308 16.2323 33.3155 14.9925C33.3155 14.7821 33.4808 14.6168 33.6912 14.6168C33.9016 14.6168 34.0669 14.7896 34.0669 14.9925L34.0594 18.584C34.0519 20.0943 33.0676 21.4993 31.2793 22.5437C29.4911 23.5881 27.1393 24.1066 24.78 24.1066ZM16.1994 17.1564L16.1919 18.5389C16.1919 19.7937 17.056 20.9809 18.6414 21.8975C22.03 23.8586 27.53 23.8586 30.8961 21.8975C32.4439 20.9959 33.3005 19.8238 33.308 18.5915L33.3155 17.209C32.8422 17.8627 32.1659 18.4563 31.2868 18.9597C27.7103 21.041 21.8722 21.041 18.2807 18.9597C17.3791 18.4413 16.6728 17.8327 16.1994 17.1564Z" fill="#F30C2B"/>
<path d="M31.0614 6.59977C34.5628 8.62094 34.5778 11.8969 31.099 13.918C27.6202 15.9392 21.9624 15.9392 18.4686 13.918C14.9672 11.8969 14.9522 8.62094 18.431 6.59977C21.9023 4.5786 27.5601 4.5786 31.0614 6.59977Z" fill="white"/>
<path d="M24.7875 15.7965C22.4283 15.7965 20.0765 15.278 18.2732 14.2412C16.4549 13.1892 15.4481 11.7692 15.4481 10.2439C15.4481 8.72614 16.4324 7.31358 18.2281 6.26918C21.8046 4.1879 27.6427 4.1879 31.2418 6.26918C33.0601 7.32109 34.0669 8.74117 34.0669 10.2664C34.0669 11.7842 33.0826 13.1968 31.2868 14.2412C29.4986 15.278 27.1468 15.7965 24.7875 15.7965ZM24.7349 5.45771C22.5184 5.45771 20.3019 5.94609 18.6113 6.92286C17.056 7.8245 16.1995 9.00414 16.1995 10.2439C16.1995 11.4912 17.071 12.6783 18.6489 13.595C22.0375 15.5485 27.5375 15.556 30.9037 13.595C32.459 12.6933 33.3155 11.5137 33.3155 10.274C33.3155 9.02669 32.4439 7.83953 30.8661 6.93038C29.1755 5.9461 26.9515 5.45771 24.7349 5.45771Z" fill="#F30C2B"/>
<path d="M33.6987 10.2814L33.6912 13.873C33.6837 15.1878 32.8196 16.5027 31.0915 17.5096C27.6127 19.5307 21.9549 19.5307 18.4611 17.5096C16.7029 16.4952 15.8238 15.1578 15.8238 13.8279L15.8313 10.2364C15.8238 11.5663 16.7104 12.9037 18.4686 13.918C21.9699 15.9392 27.6277 15.9392 31.099 13.918C32.8271 12.9112 33.6912 11.5963 33.6987 10.2814Z" fill="#FCD4D4"/>
<path d="M24.78 19.388C22.4207 19.388 20.069 18.8696 18.2657 17.8327C16.4399 16.7808 15.4331 15.3532 15.4406 13.8204L15.4481 10.2289C15.4481 10.0185 15.6359 9.86072 15.8238 9.85321C16.0341 9.85321 16.1994 10.026 16.1994 10.2289V10.2364C16.1994 11.4837 17.071 12.6783 18.6489 13.5875C22.0375 15.541 27.5375 15.5486 30.9037 13.5875C32.4515 12.6859 33.308 11.5137 33.3155 10.274C33.3155 10.0636 33.4808 9.89829 33.6912 9.89829C33.879 9.89829 34.0669 10.0636 34.0669 10.274L34.0594 13.8655C34.0519 15.3757 33.0676 16.7808 31.2793 17.8252C29.4911 18.8696 27.1393 19.388 24.78 19.388ZM16.1994 12.4454L16.1919 13.8279C16.1919 15.0827 17.056 16.2699 18.6414 17.1865C22.03 19.1476 27.53 19.1476 30.8961 17.1865C32.4439 16.2849 33.3005 15.1128 33.308 13.873L33.3155 12.4905C32.8422 13.1442 32.1659 13.7378 31.2868 14.2412C27.7103 16.3149 21.8722 16.3225 18.2807 14.2412C17.3791 13.7227 16.6728 13.1141 16.1994 12.4454Z" fill="#F30C2B"/>
<path d="M28.9576 1.88123C32.459 3.9024 32.474 7.17834 28.9952 9.19951C25.5164 11.2207 19.8586 11.2207 16.3648 9.19951C12.8634 7.17834 12.8484 3.9024 16.3272 1.88123C19.806 -0.139936 25.4563 -0.139936 28.9576 1.88123Z" fill="white"/>
<path d="M22.6912 11.0854C20.3395 11.0854 17.9802 10.567 16.1769 9.53012C14.3586 8.47821 13.3518 7.05813 13.3518 5.53286C13.3518 4.01511 14.3361 2.60254 16.1318 1.55814C19.7083 -0.515622 25.5464 -0.523136 29.1455 1.55814C30.9638 2.61005 31.9706 4.03014 31.9706 5.5554C31.9706 7.07316 30.9863 8.48572 29.183 9.53012C27.4023 10.5595 25.043 11.0854 22.6912 11.0854ZM22.6311 0.739158C20.4146 0.739158 18.1981 1.22754 16.5075 2.20432C14.9522 3.10595 14.0956 4.28559 14.0956 5.52534C14.0956 6.77261 14.9672 7.95977 16.5451 8.86892C19.9337 10.83 25.4337 10.83 28.7998 8.86892C30.3551 7.96729 31.2117 6.78763 31.2117 5.54788C31.2117 4.30062 30.3401 3.11347 28.7623 2.20432C27.0792 1.22754 24.8552 0.739158 22.6311 0.739158Z" fill="#F30C2B"/>
<path d="M31.5949 5.5629L31.5874 9.15442C31.5874 10.4693 30.7158 11.7842 28.9877 12.791C25.5088 14.8122 19.8511 14.8122 16.3572 12.791C14.599 11.7767 13.7199 10.4393 13.7199 9.10934L13.7275 5.51782C13.7275 6.84774 14.6066 8.18516 16.3648 9.1995C19.8661 11.2207 25.5239 11.2207 28.9952 9.1995C30.7233 8.19267 31.5949 6.87779 31.5949 5.5629Z" fill="#FCD4D4"/>
<path d="M22.6837 14.6694C20.3244 14.6694 17.9727 14.151 16.1694 13.1141C14.3436 12.0622 13.3367 10.6346 13.3443 9.10181L13.3518 5.5103C13.3518 5.29991 13.5171 5.13461 13.7275 5.13461C13.9378 5.13461 14.1031 5.30743 14.1031 5.5103V5.5178C14.1031 6.76507 14.9747 7.95974 16.5526 8.86889C19.9412 10.83 25.4412 10.83 28.8073 8.86889C30.3551 7.96726 31.2117 6.79513 31.2192 5.55538C31.2192 5.34499 31.3845 5.17969 31.5949 5.17969C31.8053 5.17969 31.9706 5.35251 31.9706 5.55538L31.9631 9.14689C31.9556 10.6571 30.9713 12.0622 29.183 13.1066C27.3873 14.151 25.0355 14.6694 22.6837 14.6694ZM14.0956 7.72682L14.0881 9.10932C14.0881 10.3641 14.9522 11.5513 16.5376 12.4679C19.9262 14.4215 25.4262 14.429 28.7923 12.4679C30.3401 11.5663 31.1967 10.3942 31.2042 9.1544L31.2117 7.7719C30.7384 8.42558 30.0621 9.01916 29.183 9.52258C25.6065 11.5963 19.7759 11.6039 16.1769 9.52258C15.2753 9.00414 14.5765 8.39553 14.0956 7.72682Z" fill="#F30C2B"/>
<path d="M15.6209 34.6257C19.1223 36.6468 19.1373 39.9228 15.6585 41.944C12.1797 43.9651 6.52188 43.9651 3.02804 41.944C-0.473317 39.9228 -0.488347 36.6468 2.99047 34.6257C6.46177 32.6045 12.1195 32.6045 15.6209 34.6257Z" fill="white"/>
<path d="M9.34701 43.8299C6.98772 43.8299 4.63595 43.3114 2.83268 42.2746C1.01438 41.2226 0.00755501 39.8026 0.00755501 38.2773C0.00755501 36.7595 0.99184 35.347 2.7876 34.3026C6.36409 32.2213 12.2022 32.2213 15.8012 34.3026C17.6195 35.3545 18.6264 36.7746 18.6264 38.2998C18.6264 39.8176 17.6421 41.2302 15.8463 42.2746C14.0581 43.3114 11.7063 43.8299 9.34701 43.8299ZM9.29442 33.4836C7.07789 33.4836 4.86137 33.972 3.1708 34.9488C1.61548 35.8504 0.758919 37.03 0.758919 38.2698C0.758919 39.517 1.6305 40.7042 3.20836 41.6133C6.59701 43.5669 12.097 43.5744 15.4631 41.6133C17.0184 40.7117 17.875 39.5321 17.875 38.2923C17.875 37.045 17.0034 35.8579 15.4255 34.9488C13.735 33.972 11.5109 33.4836 9.29442 33.4836Z" fill="#F30C2B"/>
<path d="M18.2582 38.3074L18.2507 41.8989C18.2432 43.2138 17.3791 44.5287 15.651 45.5355C12.1721 47.5567 6.51436 47.5567 3.02052 45.5355C1.26233 44.5211 0.383238 43.1837 0.383238 41.8538L0.390747 38.2623C0.383234 39.5922 1.26985 40.9296 3.02804 41.944C6.5294 43.9651 12.1872 43.9651 15.6585 41.944C17.3866 40.9371 18.2507 39.6298 18.2582 38.3074Z" fill="#FCD4D4"/>
<path d="M9.33949 47.4139C6.98772 47.4139 4.62844 46.8955 2.82517 45.8586C0.999352 44.8067 -0.00747189 43.3791 4.17526e-05 41.8463L0.00755127 38.2548C0.00755127 38.0444 0.172851 37.8791 0.383233 37.8791C0.593615 37.8791 0.758915 38.0519 0.758915 38.2548C0.758915 39.5096 1.62298 40.6967 3.20836 41.6134C6.59701 43.5669 12.097 43.5745 15.4631 41.6134C17.0109 40.7118 17.8675 39.5396 17.875 38.3074C17.875 38.097 18.0403 37.9317 18.2507 37.9317C18.4535 37.9618 18.6264 38.1045 18.6264 38.3074L18.6188 41.8989C18.6113 43.4092 17.627 44.8142 15.8388 45.8586C14.0505 46.8955 11.6988 47.4139 9.33949 47.4139ZM0.758915 40.4713L0.751406 41.8538C0.751406 43.1086 1.61547 44.2958 3.20085 45.2124C6.5895 47.1735 12.0895 47.1735 15.4556 45.2124C17.0034 44.3108 17.86 43.1387 17.8675 41.9064L17.875 40.5239C17.4016 41.1776 16.7254 41.7712 15.8463 42.2746C12.2698 44.3559 6.43172 44.3559 2.8402 42.2746C1.93856 41.7486 1.23227 41.14 0.758915 40.4713Z" fill="#F30C2B"/>
<path d="M15.6209 29.9071C19.1223 31.9283 19.1373 35.2042 15.6585 37.2254C12.1797 39.2465 6.52188 39.2465 3.02804 37.2254C-0.473317 35.2042 -0.488347 31.9283 2.99047 29.9071C6.46177 27.8859 12.1195 27.8859 15.6209 29.9071Z" fill="white"/>
<path d="M9.34701 39.1113C6.98772 39.1113 4.63595 38.5929 2.83268 37.556C1.01438 36.5041 0.00755501 35.084 0.00755501 33.5587C0.00755501 32.041 0.99184 30.6284 2.7876 29.584C6.36409 27.5102 12.2022 27.5027 15.8012 29.584C17.6195 30.6359 18.6264 32.056 18.6264 33.5813C18.6264 35.099 17.6421 36.5116 15.8463 37.556C14.0581 38.5929 11.7063 39.1113 9.34701 39.1113ZM9.29442 28.765C7.07789 28.765 4.86137 29.2534 3.1708 30.2377C1.61548 31.1393 0.758919 32.319 0.758919 33.5587C0.758919 34.806 1.6305 35.9931 3.20836 36.9098C6.59701 38.8633 12.097 38.8709 15.4631 36.9098C17.0184 36.0082 17.875 34.8285 17.875 33.5888C17.875 32.3415 17.0034 31.1543 15.4255 30.2452C13.735 29.2534 11.5109 28.765 9.29442 28.765Z" fill="#F30C2B"/>
<path d="M18.2582 33.5963L18.2507 37.1878C18.2432 38.5027 17.3791 39.8176 15.651 40.8244C12.1721 42.8456 6.51436 42.8456 3.02052 40.8244C1.26233 39.8101 0.383238 38.4727 0.383238 37.1428L0.390747 33.5512C0.383234 34.8812 1.26985 36.2186 3.02804 37.2329C6.5294 39.2541 12.1872 39.2541 15.6585 37.2329C17.3866 36.2261 18.2507 34.9112 18.2582 33.5963Z" fill="#FCD4D4"/>
<path d="M9.33949 42.7028C6.98772 42.7028 4.62844 42.1844 2.82517 41.1475C0.999352 40.0956 -0.00747189 38.668 4.17526e-05 37.1352L0.00755127 33.5437C0.00755127 33.3333 0.172851 33.168 0.383233 33.168C0.593615 33.168 0.758915 33.3408 0.758915 33.5437C0.758915 34.7985 1.62298 35.9856 3.20836 36.9023C6.59701 38.8558 12.097 38.8633 15.4631 36.9023C17.0109 36.0006 17.8675 34.8285 17.875 33.5888C17.875 33.3784 18.0403 33.2131 18.2507 33.2131C18.4611 33.2131 18.6264 33.3859 18.6264 33.5888L18.6188 37.1803C18.6113 38.6905 17.627 40.0956 15.8388 41.14C14.0505 42.1769 11.6988 42.7028 9.33949 42.7028ZM0.758915 35.7527L0.751406 37.1352C0.751406 38.39 1.61547 39.5771 3.20085 40.4938C6.5895 42.4549 12.0895 42.4549 15.4556 40.4938C17.0034 39.5922 17.86 38.42 17.8675 37.1878L17.875 35.8053C17.4016 36.459 16.7254 37.0526 15.8463 37.556C12.2698 39.6298 6.43172 39.6373 2.8402 37.556C1.93856 37.03 1.23227 36.4214 0.758915 35.7527Z" fill="#F30C2B"/>
<path d="M15.6209 25.166C19.1223 27.1872 19.1373 30.4631 15.6585 32.4843C12.1797 34.5055 6.52188 34.5055 3.02804 32.4843C-0.473317 30.4631 -0.488347 27.1872 2.99047 25.166C6.46177 23.1448 12.1195 23.1448 15.6209 25.166Z" fill="white"/>
<path d="M9.34701 34.3627C6.99524 34.3627 4.63595 33.8443 2.83268 32.8074C1.01438 31.7555 0.00755501 30.3354 0.00755501 28.8101C0.00755501 27.2924 0.99184 25.8798 2.7876 24.8354C6.36409 22.7541 12.2022 22.7541 15.8012 24.8354C17.6195 25.8873 18.6264 27.3074 18.6264 28.8327C18.6264 30.3504 17.6421 31.763 15.8463 32.8074C14.0581 33.8443 11.7063 34.3627 9.34701 34.3627ZM9.29442 24.0239C7.07789 24.0239 4.86137 24.5123 3.1708 25.4891C1.61548 26.3907 0.758919 27.5704 0.758919 28.8101C0.758919 30.0574 1.6305 31.2445 3.20836 32.1537C6.59701 34.1072 12.097 34.1072 15.4631 32.1537C17.0184 31.2521 17.875 30.0724 17.875 28.8327C17.875 27.5854 17.0034 26.3982 15.4255 25.4891C13.735 24.5123 11.5109 24.0239 9.29442 24.0239Z" fill="#F30C2B"/>
<path d="M18.2582 28.8477L18.2507 32.4392C18.2432 33.7541 17.3791 35.069 15.651 36.0759C12.1721 38.097 6.51436 38.097 3.02052 36.0759C1.26233 35.0615 0.383238 33.7241 0.383238 32.3942L0.390747 28.8026C0.383234 30.1326 1.26985 31.47 3.02804 32.4843C6.5294 34.5055 12.1872 34.5055 15.6585 32.4843C17.3866 31.4775 18.2507 30.1626 18.2582 28.8477Z" fill="#FCD4D4"/>
<path d="M9.33949 37.9542C6.98021 37.9542 4.62844 37.4358 2.82517 36.3989C0.999352 35.347 -0.00747189 33.9194 4.17526e-05 32.3866L0.00755127 28.7951C0.00755127 28.5847 0.172851 28.4194 0.383233 28.4194C0.593615 28.4119 0.758915 28.5922 0.758915 28.7951C0.758915 30.0499 1.62298 31.237 3.20836 32.1537C6.59701 34.1073 12.097 34.1073 15.4631 32.1537C17.0109 31.2521 17.8675 30.0799 17.875 28.8477C17.875 28.6373 18.0403 28.472 18.2507 28.472C18.4611 28.472 18.6264 28.6448 18.6264 28.8477L18.6188 32.4392C18.6113 33.9494 17.627 35.3545 15.8388 36.3989C14.0505 37.4358 11.6988 37.9542 9.33949 37.9542ZM0.758915 31.0116L0.751406 32.3941C0.751406 33.6489 1.61547 34.8361 3.20085 35.7527C6.5895 37.7138 12.0895 37.7138 15.4556 35.7527C17.0034 34.8511 17.86 33.679 17.8675 32.4392L17.875 31.0567C17.4016 31.7104 16.7254 32.304 15.8463 32.8074C12.2698 34.8887 6.43923 34.8887 2.8402 32.8074C1.93856 32.2889 1.23227 31.6803 0.758915 31.0116Z" fill="#F30C2B"/>
<path d="M15.6209 20.4174C19.1223 22.4385 19.1373 25.7145 15.6585 27.7357C12.1797 29.7568 6.52188 29.7568 3.02804 27.7357C-0.473317 25.7145 -0.488347 22.4385 2.99047 20.4174C6.46177 18.3962 12.1195 18.3962 15.6209 20.4174Z" fill="white"/>
<path d="M9.34701 29.6216C6.98772 29.6216 4.63595 29.1032 2.83268 28.0663C1.01438 27.0144 0.00755501 25.5943 0.00755501 24.069C0.00755501 22.5513 0.99184 21.1387 2.7876 20.0943C6.36409 18.0205 12.2022 18.013 15.8012 20.0943C17.6195 21.1462 18.6264 22.5663 18.6264 24.0916C18.6264 25.6093 17.6421 27.0219 15.8463 28.0663C14.0581 29.1032 11.7063 29.6216 9.34701 29.6216ZM9.29442 19.2753C7.07789 19.2753 4.86137 19.7637 3.1708 20.7405C1.61548 21.6421 0.758919 22.8218 0.758919 24.0615C0.758919 25.3088 1.6305 26.4959 3.20836 27.4126C6.59701 29.3661 12.097 29.3737 15.4631 27.4126C17.0184 26.511 17.875 25.3313 17.875 24.0916C17.875 22.8443 17.0034 21.6572 15.4255 20.748C13.735 19.7637 11.5109 19.2753 9.29442 19.2753Z" fill="#F30C2B"/>
<path d="M18.2582 24.0991L18.2507 27.6906C18.2432 29.0055 17.3791 30.3204 15.651 31.3272C12.1721 33.3484 6.51436 33.3484 3.02052 31.3272C1.26233 30.3129 0.383238 28.9754 0.383238 27.6455L0.390747 24.054C0.383234 25.3839 1.26985 26.7213 3.02804 27.7357C6.5294 29.7568 12.1872 29.7568 15.6585 27.7357C17.3866 26.7288 18.2507 25.4215 18.2582 24.0991Z" fill="#FCD4D4"/>
<path d="M9.33949 33.2056C6.98772 33.2056 4.62844 32.6871 2.82517 31.6503C0.999352 30.5983 -0.00747189 29.1708 4.17526e-05 27.638L0.00755127 24.0465C0.00755127 23.8361 0.172851 23.6708 0.383233 23.6708C0.593615 23.6708 0.758915 23.8436 0.758915 24.0465C0.758915 25.3012 1.62298 26.4884 3.20836 27.4051C6.59701 29.3586 12.097 29.3661 15.4631 27.4051C17.0109 26.5034 17.8675 25.3313 17.875 24.0915C17.875 23.8812 18.0403 23.7159 18.2507 23.7159C18.4611 23.7159 18.6264 23.8887 18.6264 24.0915L18.6188 27.6831C18.6113 29.1933 17.627 30.5983 15.8388 31.6427C14.0505 32.6871 11.6988 33.2056 9.33949 33.2056ZM0.758915 26.263L0.751406 27.6455C0.751406 28.9003 1.61547 30.0874 3.20085 31.0041C6.5895 32.9652 12.0895 32.9652 15.4556 31.0041C17.0034 30.1025 17.86 28.9303 17.8675 27.6981L17.875 26.3156C17.4016 26.9693 16.7254 27.5628 15.8463 28.0662C12.2698 30.14 6.43172 30.1475 2.8402 28.0662C1.93856 27.5403 1.23227 26.9317 0.758915 26.263Z" fill="#F30C2B"/>
<path d="M15.6209 15.4659C19.1223 17.4871 19.1373 20.763 15.6585 22.7842C12.1797 24.8053 6.52188 24.8053 3.02804 22.7842C-0.473317 20.763 -0.488347 17.4871 2.99047 15.4659C6.46177 13.4447 12.1195 13.4447 15.6209 15.4659Z" fill="white"/>
<path d="M9.34701 24.6626C6.98772 24.6626 4.63595 24.1442 2.83268 23.1073C1.01438 22.0554 0.00755501 20.6353 0.00755501 19.11C0.00755501 17.5923 0.99184 16.1797 2.7876 15.1353C6.36409 13.054 12.2022 13.054 15.8012 15.1353C17.6195 16.1872 18.6264 17.6073 18.6264 19.1326C18.6264 20.6503 17.6421 22.0629 15.8463 23.1073C14.0581 24.1442 11.7063 24.6626 9.34701 24.6626ZM9.29442 14.3238C7.07789 14.3238 4.86137 14.8122 3.1708 15.789C1.61548 16.6906 0.758919 17.8703 0.758919 19.11C0.758919 20.3573 1.6305 21.5444 3.20836 22.4536C6.59701 24.4071 12.097 24.4146 15.4631 22.4536C17.0184 21.5519 17.875 20.3723 17.875 19.1326C17.875 17.8853 17.0034 16.6981 15.4255 15.789C13.735 14.8122 11.5109 14.3238 9.29442 14.3238Z" fill="#F30C2B"/>
<path d="M18.2582 19.1475L18.2507 22.739C18.2432 24.0539 17.3791 25.3688 15.651 26.3756C12.1721 28.3968 6.51436 28.3968 3.02052 26.3756C1.26233 25.3613 0.383238 24.0239 0.383238 22.694L0.390747 19.1024C0.383234 20.4324 1.26985 21.7698 3.02804 22.7841C6.5294 24.8053 12.1872 24.8053 15.6585 22.7841C17.3866 21.7773 18.2507 20.4624 18.2582 19.1475Z" fill="#FCD4D4"/>
<path d="M9.33949 28.2541C6.98021 28.2541 4.62844 27.7357 2.82517 26.6988C0.999352 25.6469 -0.00747189 24.2193 4.17526e-05 22.6865L0.00755127 19.095C0.00755127 18.8846 0.172851 18.7193 0.383233 18.7193C0.593615 18.7193 0.758915 18.8921 0.758915 19.095C0.758915 20.3498 1.62298 21.5369 3.20836 22.4536C6.59701 24.4071 12.097 24.4146 15.4631 22.4536C17.0109 21.5519 17.8675 20.3798 17.875 19.1476C17.875 18.9372 18.0403 18.7719 18.2507 18.7719C18.4611 18.7719 18.6264 18.9447 18.6264 19.1476L18.6188 22.7391C18.6113 24.2493 17.627 25.6544 15.8388 26.6988C14.0505 27.7357 11.6988 28.2541 9.33949 28.2541ZM0.758915 21.304L0.751406 22.6865C0.751406 23.9413 1.61547 25.1284 3.20085 26.0451C6.5895 27.9986 12.0895 28.0062 15.4556 26.0451C17.0034 25.1435 17.86 23.9713 17.8675 22.7316L17.875 21.3491C17.4016 22.0028 16.7254 22.5963 15.8463 23.0997C12.2698 25.181 6.43172 25.181 2.8402 23.0997C1.93856 22.5888 1.23227 21.9727 0.758915 21.304Z" fill="#F30C2B"/>
<path d="M20.4146 6.73507L22.8039 5.34505C23.683 6.14901 23.6229 6.5322 23.0293 6.87783C22.3757 7.26854 21.3087 7.23097 20.4146 6.73507ZM22.9467 4.82661C22.0977 4.02265 22.1803 3.64697 22.7664 3.30885C23.39 2.9482 24.4494 2.97825 25.3135 3.45161L22.9467 4.82661ZM26.4255 3.02333C26.3128 2.95571 26.1175 2.95571 26.0048 3.02333L25.6742 3.21117C24.5922 2.61008 23.1571 2.55749 22.2855 3.06842C21.4214 3.57184 21.4815 4.1579 22.5034 5.07456L20.0389 6.50967C19.4303 6.08139 19.1673 5.61554 19.1298 5.07456C19.1298 5.04451 19.1072 4.99942 19.0321 4.95434C18.9194 4.88672 18.709 4.88672 18.5963 4.95434C18.5212 4.99942 18.5061 5.05202 18.5137 5.11213C18.5963 5.74328 18.9419 6.26172 19.6332 6.72756L18.9494 7.12578C18.8367 7.19341 18.8367 7.30612 18.9494 7.36622C19.0622 7.43385 19.2575 7.43385 19.3702 7.36622L20.0389 6.97551C21.1585 7.5766 22.586 7.65174 23.5027 7.11827C24.3518 6.62237 24.2841 6.02128 23.2397 5.0971L25.6591 3.69206C26.0649 3.98509 26.3128 4.33071 26.403 4.77401C26.4105 4.84163 26.4481 4.87169 26.5006 4.90174C26.6209 4.96936 26.8237 4.97688 26.944 4.90174C27.0266 4.84914 27.0416 4.79655 27.0191 4.7139C26.8989 4.24805 26.6509 3.85735 26.0799 3.46664L26.4255 3.26377C26.5457 3.20366 26.5457 3.09095 26.4255 3.02333Z" fill="#F30C2B"/>
<path d="M6.95767 20.6578L9.34701 19.2678C10.2261 20.0717 10.166 20.4549 9.57242 20.8006C8.91122 21.1838 7.84428 21.1462 6.95767 20.6578ZM9.48977 18.7418C8.64073 17.9379 8.72338 17.5622 9.30945 17.2241C9.93308 16.8634 10.9925 16.8935 11.8566 17.3668L9.48977 18.7418ZM12.9686 16.9461C12.8559 16.8784 12.6605 16.8784 12.5478 16.9461L12.2172 17.1339C11.1353 16.5328 9.70016 16.4802 8.82857 16.9911C7.96451 17.4946 8.02461 18.0806 9.04647 18.9973L6.58199 20.4324C5.97339 20.0041 5.7104 19.5383 5.67284 18.9973C5.67284 18.9672 5.6503 18.9221 5.57517 18.8771C5.46246 18.8094 5.25208 18.8094 5.13937 18.8771C5.06424 18.9221 5.04921 18.9747 5.05672 19.0349C5.13937 19.666 5.48501 20.1844 6.17626 20.6503L5.49252 21.0485C5.37981 21.1161 5.37981 21.2288 5.49252 21.2889C5.60522 21.3566 5.80057 21.3566 5.91328 21.2889L6.58199 20.8982C7.70152 21.4993 9.12912 21.5745 10.0458 21.041C10.8948 20.5451 10.8272 19.944 9.7828 19.0198L12.2022 17.6148C12.6079 17.9078 12.8559 18.2534 12.946 18.6967C12.9536 18.7644 12.9911 18.7944 13.0437 18.8245C13.1639 18.8921 13.3668 18.8996 13.487 18.8245C13.5697 18.7719 13.5847 18.7193 13.5622 18.6366C13.4419 18.1708 13.194 17.7801 12.623 17.3894L12.9686 17.1865C13.0813 17.1189 13.0813 17.0062 12.9686 16.9461Z" fill="#F30C2B"/>
<path d="M29.7691 39.5246C33.2704 41.5457 33.2855 44.8217 29.8066 46.8429C26.3278 48.864 20.6701 48.864 17.1762 46.8429C13.6749 44.8217 13.6598 41.5457 17.1387 39.5246C20.6175 37.5034 26.2677 37.5034 29.7691 39.5246Z" fill="white"/>
<path d="M23.5027 48.7288C21.1509 48.7288 18.7917 48.2103 16.9884 47.1734C15.1701 46.1215 14.1633 44.7015 14.1633 43.1762C14.1633 41.6584 15.1475 40.2459 16.9433 39.2015C20.5198 37.1202 26.3579 37.1202 29.9569 39.2015C31.7752 40.2534 32.7821 41.6735 32.7821 43.1987C32.7821 44.7165 31.7978 46.1291 30.002 47.1734C28.2138 48.2103 25.8545 48.7288 23.5027 48.7288ZM23.4426 38.3825C21.2261 38.3825 19.0095 38.8709 17.319 39.8476C15.7637 40.7493 14.9071 41.9289 14.9071 43.1687C14.9071 44.4159 15.7787 45.6031 17.3565 46.5198C20.7452 48.4808 26.2452 48.4808 29.6113 46.5198C31.1666 45.6181 32.0232 44.4385 32.0232 43.1987C32.0232 41.9515 31.1516 40.7643 29.5737 39.8552C27.8907 38.8709 25.6666 38.3825 23.4426 38.3825Z" fill="#F30C2B"/>
<path d="M32.4064 43.2138L32.3989 46.8053C32.3913 48.1202 31.5273 49.4351 29.7991 50.4419C26.3203 52.4631 20.6626 52.4631 17.1687 50.4419C15.4105 49.4276 14.5314 48.0901 14.5314 46.7602L14.5389 43.1687C14.5314 44.4986 15.418 45.836 17.1762 46.8504C20.6776 48.8715 26.3353 48.8715 29.8066 46.8504C31.5348 45.8435 32.4064 44.5287 32.4064 43.2138Z" fill="#FCD4D4"/>
<path d="M23.4952 52.3203C21.1434 52.3203 18.7841 51.8019 16.9809 50.765C15.155 49.7131 14.1482 48.2855 14.1557 46.7527L14.1632 43.1612C14.1632 42.9508 14.3285 42.7855 14.5389 42.7855C14.7493 42.7855 14.9146 42.9583 14.9146 43.1612C14.9146 44.416 15.7787 45.6031 17.3641 46.5198C20.7527 48.4808 26.2527 48.4808 29.6188 46.5198C31.1666 45.6181 32.0232 44.446 32.0307 43.2063C32.0307 42.9959 32.196 42.8306 32.4064 42.8306C32.6168 42.8306 32.7821 43.0034 32.7821 43.2063L32.7745 46.7978C32.767 48.308 31.7827 49.7131 29.9945 50.7575C28.1987 51.8018 25.847 52.3203 23.4952 52.3203ZM14.9071 45.3702L14.8996 46.7527C14.8996 48.0075 15.7637 49.1946 17.349 50.1113C20.7377 52.0724 26.2377 52.0724 29.6038 50.1113C31.1516 49.2097 32.0081 48.0375 32.0157 46.8053L32.0232 45.4228C31.5498 46.0765 30.8736 46.67 29.9945 47.1735C26.418 49.2547 20.5799 49.2547 16.9884 47.1735C16.0867 46.6475 15.388 46.0389 14.9071 45.3702Z" fill="#F30C2B"/>
<path d="M31.8729 34.7835C35.3743 36.8047 35.3893 40.0806 31.9105 42.1018C28.4317 44.1229 22.7739 44.1229 19.28 42.1018C15.7787 40.0806 15.7637 36.8047 19.2425 34.7835C22.7138 32.7623 28.3715 32.7623 31.8729 34.7835Z" fill="white"/>
<path d="M25.599 43.9802C23.2472 43.9802 20.888 43.4617 19.0847 42.4248C17.2664 41.3729 16.2596 39.9528 16.2596 38.4276C16.2596 36.9098 17.2438 35.4973 19.0396 34.4529C22.6161 32.3716 28.4542 32.3716 32.0532 34.4529C33.8715 35.5048 34.8784 36.9248 34.8784 38.4501C34.8784 39.9679 33.8941 41.3804 32.0983 42.4248C30.3101 43.4617 27.9583 43.9802 25.599 43.9802ZM25.5464 33.6414C23.3299 33.6414 21.1134 34.1298 19.4228 35.1065C17.8675 36.0082 17.0109 37.1878 17.0109 38.4276C17.0109 39.6748 17.8825 40.862 19.4604 41.7711C22.849 43.7322 28.349 43.7322 31.7151 41.7711C33.2704 40.8695 34.127 39.6899 34.127 38.4501C34.127 37.2028 33.2554 36.0157 31.6776 35.1065C29.987 34.1298 27.7629 33.6414 25.5464 33.6414Z" fill="#F30C2B"/>
<path d="M34.5102 38.4652L34.5027 42.0567C34.5027 43.3716 33.6311 44.6864 31.903 45.6933C28.4241 47.7144 22.7664 47.7144 19.2725 45.6933C17.5143 44.6789 16.6352 43.3415 16.6352 42.0116L16.6428 38.4201C16.6428 39.75 17.5218 41.0874 19.28 42.1018C22.7814 44.1229 28.4392 44.1229 31.9105 42.1018C33.6386 41.0949 34.5027 39.78 34.5102 38.4652Z" fill="#FCD4D4"/>
<path d="M25.5915 47.5717C23.2322 47.5717 20.8804 47.0532 19.0772 46.0163C17.2514 44.9644 16.2445 43.5368 16.252 42.0041L16.2596 38.4125C16.2596 38.2022 16.4249 38.0369 16.6352 38.0369C16.8456 38.0369 17.0109 38.2097 17.0109 38.4125C17.0109 39.6673 17.875 40.8545 19.4604 41.7711C22.849 43.7322 28.349 43.7322 31.7151 41.7711C33.2629 40.8695 34.1195 39.6974 34.127 38.4651C34.127 38.2548 34.2923 38.0519 34.5027 38.0895C34.713 38.0895 34.8783 38.2623 34.8783 38.4651L34.8709 42.0567C34.8633 43.5669 33.879 44.972 32.0908 46.0163C30.3025 47.0532 27.9508 47.5717 25.5915 47.5717ZM17.0109 40.6291L17.0034 42.0116C17.0034 43.2664 17.8675 44.4535 19.4529 45.3702C22.8415 47.3237 28.3415 47.3312 31.7076 45.3702C33.2554 44.4685 34.112 43.2964 34.1195 42.0567L34.127 40.6742C33.6536 41.3278 32.9774 41.9214 32.0983 42.4248C28.5218 44.5061 22.6912 44.5061 19.0922 42.4248C18.1906 41.9064 17.4843 41.2978 17.0109 40.6291Z" fill="#F30C2B"/>
<path d="M22.9692 39.7951L25.3586 38.405C26.2377 39.209 26.1776 39.5922 25.584 39.9378C24.9228 40.321 23.8558 40.291 22.9692 39.7951ZM25.5013 37.8791C24.6448 37.0751 24.7274 36.707 25.321 36.3613C25.9371 36.0007 26.9965 36.0307 27.8606 36.5116L25.5013 37.8791ZM28.9802 36.0833C28.8675 36.0157 28.6721 36.0157 28.5669 36.0833L28.2363 36.2712C27.1468 35.6776 25.7192 35.6175 24.8401 36.1284C23.9761 36.6318 24.0437 37.2179 25.0656 38.1421L22.6011 39.5772C21.9925 39.1414 21.7295 38.6831 21.6919 38.1421C21.6994 38.112 21.6769 38.0594 21.6018 38.0143C21.4891 37.9467 21.2787 37.9467 21.166 38.0143C21.0833 38.0594 21.0683 38.112 21.0758 38.1796C21.1584 38.8108 21.4966 39.3217 22.1953 39.7951L21.5116 40.1933C21.3989 40.2534 21.4064 40.3661 21.5191 40.4337C21.6318 40.4938 21.8196 40.4938 21.9324 40.4337L22.6086 40.043C23.7281 40.6516 25.1557 40.7268 26.0724 40.1933C26.9214 39.6974 26.8538 39.0888 25.8094 38.1646L28.2288 36.7595C28.6345 37.0526 28.875 37.3982 28.9726 37.8415C28.9802 37.9091 29.0177 37.9392 29.0628 37.9693C29.1905 38.0444 29.3859 38.0444 29.5061 37.9768C29.5888 37.9242 29.6038 37.8716 29.5812 37.7889C29.461 37.3156 29.2131 36.9324 28.6345 36.5417L28.9802 36.3388C29.0929 36.2561 29.0929 36.1434 28.9802 36.0833Z" fill="#F30C2B"/>
</svg>
