<svg width="46" height="52" viewBox="0 0 46 52" fill="none" xmlns="http://www.w3.org/2000/svg">
<path d="M21.8502 48.5174L31.4885 42.92L31.4791 45.8265L21.8408 51.4333L21.8502 48.5174Z" fill="#F30C2B"/>
<path d="M21.8408 51.9021C21.7564 51.9021 21.6814 51.8833 21.6064 51.8364C21.4564 51.7521 21.372 51.6021 21.372 51.4333L21.3814 48.5268C21.3814 48.358 21.4752 48.208 21.6158 48.1236L31.2541 42.5169C31.3948 42.4325 31.5823 42.4325 31.7229 42.5169C31.8729 42.6013 31.9573 42.7513 31.9573 42.9201L31.9479 45.8266C31.9479 45.9953 31.8542 46.1454 31.7135 46.2297L22.0752 51.8271C22.0096 51.8833 21.9252 51.9021 21.8408 51.9021ZM22.319 48.7893L22.3096 50.6176L31.0104 45.564L31.0197 43.7358L22.319 48.7893Z" fill="#F30C2B"/>
<path d="M27.4569 30.6191C27.2132 30.4784 26.9788 30.3284 26.7444 30.1596C26.6694 30.1034 26.5944 30.0471 26.5194 29.9909C26.36 29.8784 26.21 29.7565 26.0506 29.6252C25.9662 29.5502 25.8818 29.4752 25.7881 29.4002C25.6474 29.2783 25.5162 29.1564 25.3849 29.0252C25.3005 28.9408 25.2068 28.8564 25.1224 28.7626C24.9911 28.6314 24.8692 28.5001 24.7473 28.3595C24.6723 28.2751 24.588 28.1813 24.5129 28.097C24.3254 27.8813 24.1473 27.6563 23.9692 27.4219C23.9316 27.375 23.8941 27.3281 23.8566 27.2719C23.6504 26.9906 23.4535 26.7 23.2566 26.4093C23.2097 26.3343 23.1628 26.2499 23.1066 26.1749C22.9659 25.9499 22.8253 25.7155 22.7034 25.4811C22.6565 25.3874 22.6003 25.2936 22.5534 25.1998C22.4128 24.9279 22.2721 24.6467 22.1503 24.3748C22.1315 24.3279 22.1127 24.2904 22.094 24.2529C21.9346 23.8966 21.8033 23.5403 21.6721 23.1747C21.644 23.0903 21.6158 22.9965 21.5877 22.9121C21.4752 22.5652 21.3721 22.2183 21.2877 21.8714C21.2877 21.8527 21.2783 21.8339 21.2689 21.8152C21.1845 21.4495 21.1189 21.0932 21.072 20.737C21.0627 20.6526 21.0533 20.5588 21.0439 20.4744C21.0064 20.1182 20.9783 19.7619 20.9783 19.4056C20.9877 17.3523 21.7096 15.9084 22.8722 15.2334L13.2339 20.8307C12.0619 21.5058 11.34 22.9496 11.34 25.0029C11.34 25.3499 11.3681 25.7061 11.4056 26.0718C11.415 26.1562 11.4243 26.2499 11.4337 26.3343C11.4806 26.6906 11.5462 27.0563 11.6306 27.4125C11.6306 27.4313 11.64 27.45 11.6494 27.4688C11.7337 27.8157 11.8369 28.1626 11.9494 28.5095C11.9775 28.5939 12.0056 28.6876 12.0432 28.772C12.165 29.1283 12.3057 29.494 12.4651 29.8502C12.4651 29.8596 12.4744 29.869 12.4744 29.869C12.4932 29.9065 12.5119 29.944 12.5307 29.9721C12.6526 30.2534 12.7932 30.5253 12.9338 30.7972C12.9807 30.8909 13.037 30.9847 13.0839 31.0785C13.2151 31.3129 13.3464 31.5473 13.487 31.7723C13.5339 31.8473 13.5808 31.9317 13.637 32.0067C13.8245 32.3067 14.0308 32.5973 14.2371 32.8692C14.2746 32.9161 14.3121 32.963 14.3496 33.0193C14.5277 33.2537 14.7059 33.4787 14.8934 33.6943C14.9215 33.7318 14.959 33.7693 14.9872 33.8068C15.034 33.8537 15.0809 33.9006 15.1278 33.9568C15.2497 34.0975 15.3809 34.2287 15.5028 34.36C15.5872 34.4444 15.6716 34.5381 15.7653 34.6225C15.8966 34.7538 16.0372 34.8757 16.1685 34.9976C16.2529 35.0726 16.3373 35.1476 16.431 35.2226C16.581 35.3538 16.7404 35.4663 16.8998 35.5882C16.9748 35.6445 17.0498 35.7007 17.1248 35.757C17.3592 35.9258 17.5936 36.0758 17.8374 36.2164C19.6469 37.2571 21.2783 37.3603 22.4596 36.6758L32.098 31.0785C30.9073 31.7629 29.2665 31.6598 27.4569 30.6191Z" fill="#FCD4D4"/>
<path d="M20.7439 37.5852C19.7688 37.5852 18.6906 37.2665 17.5936 36.6289C17.3404 36.4789 17.0873 36.3195 16.8435 36.1508L16.6091 35.9726C16.4404 35.8507 16.281 35.7288 16.1216 35.5976L15.9153 35.4194C15.709 35.2319 15.5684 35.11 15.4278 34.9788C15.334 34.8944 15.2496 34.8006 15.1559 34.7069C15.0246 34.5756 14.8934 34.435 14.7621 34.2943L14.6215 34.1443C14.6121 34.1349 14.5558 34.0693 14.5558 34.0599C14.3308 33.7974 14.1433 33.563 13.9651 33.3286L13.8433 33.1786C13.6276 32.888 13.4214 32.5879 13.2245 32.2879L13.1213 32.1191C12.9244 31.8097 12.7932 31.566 12.6525 31.3222L12.4931 31.0315C12.3431 30.7503 12.2025 30.469 12.0806 30.1784L12.0244 30.0658C11.8556 29.6814 11.715 29.3064 11.5837 28.9314L11.4993 28.6782C11.3774 28.2938 11.2649 27.9375 11.1805 27.5813C11.0774 27.1406 11.0118 26.7656 10.9649 26.3999L10.9274 26.128C10.8899 25.753 10.8618 25.3779 10.8618 25.0123C10.8711 22.8559 11.6212 21.2338 12.9901 20.4369L22.6284 14.8396C22.8534 14.7083 23.1347 14.7833 23.2659 15.0083C23.3972 15.2333 23.3222 15.5146 23.0972 15.6459C22.0283 16.2647 21.4377 17.6054 21.4377 19.4149C21.4377 19.7431 21.4658 20.09 21.5033 20.4275L21.5314 20.6807C21.5783 21.0276 21.6345 21.3745 21.7189 21.7214C21.8127 22.1152 21.9158 22.4527 22.019 22.7902L22.1033 23.0434C22.2252 23.3903 22.3565 23.7372 22.5065 24.0841L22.1408 24.4029L22.5721 24.206C22.694 24.4779 22.8253 24.7498 22.9659 25.0123L23.0878 25.2467C23.2378 25.5186 23.3691 25.7436 23.5003 25.9592L23.641 26.1936C23.8285 26.4843 24.016 26.7656 24.2223 27.0375L24.3348 27.1781C24.5035 27.4031 24.6817 27.6188 24.8598 27.8344L25.0848 28.0875C25.2067 28.2188 25.3286 28.3501 25.4505 28.472C25.5349 28.5563 25.6193 28.6407 25.7036 28.7251C25.8349 28.847 25.9662 28.9689 26.0974 29.0814L26.3412 29.297C26.4912 29.4189 26.6412 29.5314 26.7912 29.6439L27.0069 29.8033C27.2319 29.9627 27.4569 30.1127 27.6913 30.244C29.2946 31.1628 30.7666 31.3316 31.8448 30.7034C32.0698 30.5721 32.3511 30.6471 32.4823 30.8722C32.6136 31.0972 32.5386 31.3785 32.3136 31.5097L22.6753 37.1071C22.1033 37.4165 21.447 37.5852 20.7439 37.5852ZM12.9432 29.7846C13.0651 30.0565 13.1963 30.319 13.337 30.5909L13.487 30.8628C13.6089 31.0972 13.7495 31.3222 13.8808 31.5378L14.0214 31.7629C14.2089 32.0535 14.3964 32.3348 14.6027 32.6067L14.7152 32.7473C14.884 32.9723 15.0621 33.188 15.2403 33.4036C15.2403 33.413 15.2965 33.4693 15.2965 33.4786L15.3903 33.5818C15.3903 33.5818 15.4559 33.6474 15.4559 33.6568C15.5778 33.788 15.6997 33.9193 15.8216 34.0506C15.9059 34.1349 15.9903 34.2193 16.0747 34.2943C16.206 34.4162 16.3372 34.5381 16.4685 34.6506L16.7216 34.8662C16.8623 34.9881 17.0123 35.1007 17.1717 35.2132L17.3873 35.3725C17.6123 35.5319 17.8374 35.6819 18.0717 35.8132C19.6656 36.732 21.147 36.9008 22.2252 36.2726L29.6884 31.9316C28.9102 31.8191 28.0851 31.5097 27.2319 31.0222C26.9788 30.8722 26.7256 30.7128 26.4818 30.544C26.435 30.5065 26.3787 30.469 26.3225 30.4315L26.2381 30.3752C26.0693 30.2534 25.9099 30.1315 25.7505 29.9908C25.6849 29.9346 25.6099 29.869 25.5443 29.8127C25.3474 29.6346 25.1974 29.5033 25.0661 29.372C24.9723 29.2877 24.8879 29.1939 24.7942 29.1001C24.6629 28.9689 24.5317 28.8282 24.4098 28.6876L24.166 28.4157C23.9691 28.1907 23.7816 27.9563 23.6035 27.7219L23.4816 27.5719C23.2659 27.2812 23.0597 26.9812 22.8628 26.6812L22.7128 26.4374C22.5721 26.203 22.4315 25.9592 22.2909 25.7249L22.1315 25.4342C21.9815 25.1529 21.8408 24.8717 21.7189 24.581L22.0846 24.2622L21.6533 24.4497C21.4939 24.0841 21.3533 23.7091 21.222 23.3434L21.147 23.1371C21.0064 22.7152 20.9032 22.3496 20.8188 21.9933C20.7157 21.5526 20.6501 21.1776 20.6032 20.8026L20.5657 20.5307C20.5282 20.1556 20.5001 19.7806 20.5001 19.4149C20.5001 18.468 20.6501 17.6242 20.9314 16.9116L13.4682 21.2526C12.3994 21.8714 11.8087 23.2121 11.8087 25.0217C11.8087 25.3498 11.8368 25.6967 11.8743 26.0343L11.9025 26.2874C11.9493 26.6249 12.0056 26.9718 12.09 27.3187C12.1837 27.7125 12.2869 28.0501 12.39 28.3782L12.4744 28.6313C12.5963 28.9782 12.7275 29.3252 12.8776 29.6721L12.5119 29.9908L12.9432 29.7846Z" fill="#F30C2B"/>
<path d="M4.58932 6.87013L14.2276 1.2634L16.4122 3.98239L6.77389 9.58911L4.58932 6.87013Z" fill="white"/>
<path d="M6.7739 10.0579C6.63326 10.0579 6.502 10.0016 6.40824 9.87975L4.22368 7.16078C4.1393 7.05764 4.10181 6.91701 4.12993 6.78575C4.15806 6.65449 4.23306 6.53259 4.35494 6.46696L13.9933 0.860241C14.1902 0.747731 14.4527 0.794606 14.5933 0.972746L16.7779 3.69174C16.8623 3.79487 16.8998 3.9355 16.8716 4.06676C16.8435 4.19802 16.7685 4.31991 16.6466 4.38554L7.0083 9.99227C6.93329 10.0392 6.85828 10.0579 6.7739 10.0579ZM5.29252 7.00139L6.88642 8.97968L15.709 3.85112L14.1152 1.87283L5.29252 7.00139Z" fill="#F30C2B"/>
<path d="M6.7739 9.58911L16.4122 3.98239L23.4628 3.37296L13.8245 8.97969L6.7739 9.58911Z" fill="white"/>
<path d="M6.77392 10.0579C6.56765 10.0579 6.38952 9.92663 6.32389 9.72974C6.25826 9.52347 6.34263 9.28908 6.53953 9.18594L16.1778 3.5792C16.2341 3.5417 16.2997 3.52296 16.3747 3.51358L23.4253 2.90415C23.6316 2.87602 23.8472 3.01666 23.9129 3.2323C23.9785 3.43857 23.8941 3.67297 23.6972 3.7761L14.0589 9.37345C14.0027 9.41096 13.937 9.4297 13.862 9.43908L6.81143 10.0485C6.80206 10.0579 6.79267 10.0579 6.77392 10.0579ZM16.5623 4.44179L8.82722 8.94216L13.6839 8.52025L21.4189 4.01987L16.5623 4.44179Z" fill="#F30C2B"/>
<path d="M32.9886 42.17L42.6269 36.5727L44.8115 39.2916L35.1732 44.889L32.9886 42.17Z" fill="#FCD4D4"/>
<path d="M35.1732 45.3578C35.0326 45.3578 34.9013 45.2922 34.8075 45.1796L32.623 42.4607C32.5386 42.3575 32.5011 42.2169 32.5292 42.0763C32.5574 41.945 32.6324 41.8231 32.7542 41.7575L42.3926 36.1601C42.5895 36.0476 42.852 36.0945 42.9926 36.2726L45.1772 38.9916C45.2616 39.0948 45.2991 39.2354 45.2709 39.3667C45.2428 39.4979 45.1678 39.6198 45.0459 39.6854L35.4076 45.2922C35.342 45.3391 35.2576 45.3578 35.1732 45.3578ZM33.7012 42.3013L35.2951 44.2796L44.1177 39.151L42.5238 37.1727L33.7012 42.3013Z" fill="#F30C2B"/>
<path d="M35.1732 44.889L44.8115 39.2916L40.733 45.0296L31.0947 50.6363L35.1732 44.889Z" fill="#FCD4D4"/>
<path d="M31.0947 51.1051C30.9635 51.1051 30.8416 51.0489 30.7478 50.9551C30.5978 50.7957 30.5884 50.552 30.7103 50.3644L34.7888 44.6265C34.8263 44.5702 34.8732 44.5233 34.9388 44.4952L44.5771 38.8885C44.7646 38.776 45.0084 38.8135 45.1584 38.9822C45.3084 39.1416 45.3178 39.3854 45.1959 39.5729L41.1081 45.3109C41.0706 45.3671 41.0237 45.414 40.9581 45.4421L31.3197 51.0395C31.2541 51.077 31.1697 51.1051 31.0947 51.1051ZM35.5013 45.2453L32.7355 49.1362L40.4143 44.6733L43.1801 40.7824L35.5013 45.2453Z" fill="#F30C2B"/>
<path d="M33.0167 32.8317L42.6551 27.2344L42.6269 36.5727L32.9886 42.17L33.0167 32.8317Z" fill="#FCD4D4"/>
<path d="M32.9886 42.6388C32.9042 42.6388 32.8292 42.6201 32.7542 42.5732C32.6042 42.4888 32.5198 42.3388 32.5198 42.17L32.548 32.8317C32.548 32.663 32.6417 32.513 32.7824 32.4286L42.4207 26.8312C42.5707 26.7468 42.7488 26.7468 42.8895 26.8312C43.0395 26.9156 43.1239 27.0656 43.1239 27.2344L43.0957 36.5727C43.0957 36.7414 43.002 36.8915 42.8613 36.9758L33.223 42.5732C33.1574 42.6201 33.073 42.6388 32.9886 42.6388ZM33.4855 33.1036L33.4668 41.3543L42.1675 36.3008L42.1863 28.0501L33.4855 33.1036Z" fill="#F30C2B"/>
<path d="M21.9627 10.7611L31.601 5.16373L31.5916 8.07023L21.9533 13.6676L21.9627 10.7611Z" fill="white"/>
<path d="M21.9533 14.1364C21.869 14.1364 21.794 14.1176 21.719 14.0707C21.5689 13.9863 21.4846 13.8363 21.4846 13.6676L21.4939 10.7611C21.4939 10.5923 21.5877 10.4423 21.7283 10.3579L31.3666 4.76055C31.5167 4.67617 31.6948 4.67617 31.8354 4.76055C31.9854 4.84493 32.0698 5.00432 32.0698 5.1637L32.0605 8.07021C32.0605 8.23897 31.9667 8.38898 31.8261 8.47336L22.1877 14.0801C22.1127 14.1176 22.0284 14.1364 21.9533 14.1364ZM22.4315 11.033V12.8519L31.1322 7.7983L31.1416 5.97941L22.4315 11.033Z" fill="#F30C2B"/>
<path d="M13.8339 6.07315L23.4722 0.4758L31.601 5.1637L21.9627 10.7611L13.8339 6.07315Z" fill="white"/>
<path d="M21.9627 11.2299C21.8783 11.2299 21.8033 11.2111 21.7283 11.1642L13.5995 6.47634C13.4588 6.39196 13.3651 6.24194 13.3651 6.07318C13.3651 5.90441 13.4495 5.75441 13.5995 5.67002L23.2378 0.0632866C23.3878 -0.0210955 23.5659 -0.0210955 23.7066 0.0632866L31.8354 4.75119C31.976 4.83557 32.0698 4.98559 32.0698 5.15435C32.0698 5.32312 31.9854 5.47312 31.8354 5.5575L22.1971 11.1736C22.1221 11.2111 22.0377 11.2299 21.9627 11.2299ZM14.7715 6.07318L21.9627 10.2267L30.6634 5.16372L23.4722 1.01025L14.7715 6.07318Z" fill="#F30C2B"/>
<path d="M21.9533 13.6676L31.5916 8.07022L38.6235 16.8085L28.9758 22.4058L21.9533 13.6676Z" fill="white"/>
<path d="M28.9758 22.8746C28.8352 22.8746 28.7039 22.8183 28.6102 22.6965L21.5783 13.9582C21.4939 13.8551 21.4564 13.7145 21.4845 13.5832C21.5127 13.4519 21.5877 13.33 21.7096 13.2644L31.3479 7.66706C31.5448 7.55455 31.8073 7.60144 31.9479 7.77958L38.9798 16.5178C39.0642 16.6209 39.1017 16.7616 39.0735 16.8929C39.0454 17.0241 38.9704 17.146 38.8485 17.2116L29.2102 22.809C29.1446 22.8559 29.0602 22.8746 28.9758 22.8746ZM22.6565 13.7988L29.0883 21.7964L37.9109 16.6678L31.4791 8.67028L22.6565 13.7988Z" fill="#F30C2B"/>
<path d="M28.9757 22.4058L38.6234 16.8085L40.808 16.6116L31.1697 22.2183L28.9757 22.4058Z" fill="white"/>
<path d="M28.9758 22.8746C28.7695 22.8746 28.5914 22.7434 28.5257 22.5465C28.4601 22.3402 28.5445 22.1058 28.7414 22.0027L38.3797 16.4053C38.436 16.3678 38.5016 16.3491 38.5766 16.3397L40.7705 16.1522C40.9768 16.1334 41.1924 16.2647 41.2581 16.4803C41.3237 16.696 41.2393 16.921 41.0424 17.0241L31.4041 22.6215C31.3478 22.659 31.2822 22.6777 31.2072 22.6871L29.0133 22.8746C29.0039 22.8746 28.9945 22.8746 28.9758 22.8746Z" fill="#F30C2B"/>
<path d="M31.1697 22.2184L40.8081 16.6116L44.849 27.0469L35.2107 32.6536L31.1697 22.2184Z" fill="#FCD4D4"/>
<path d="M35.2107 33.1224C35.1544 33.1224 35.1075 33.113 35.0513 33.0943C34.92 33.0474 34.8169 32.9443 34.77 32.8224L30.7291 22.3871C30.6447 22.1715 30.7291 21.9277 30.926 21.8152L40.5643 16.2178C40.6861 16.1522 40.8268 16.1335 40.9581 16.1803C41.0893 16.2272 41.1924 16.3304 41.2393 16.4522L45.2803 26.8875C45.3647 27.1031 45.2803 27.3469 45.0834 27.4594L35.4451 33.0568C35.3701 33.1036 35.2951 33.1224 35.2107 33.1224ZM31.751 22.4152L35.4451 31.9692L44.2677 26.8406L40.5736 17.2867L31.751 22.4152Z" fill="#F30C2B"/>
<path d="M33.0168 32.8317L35.2107 32.6442L31.1698 22.2089L28.9758 22.3965L21.944 13.6582L21.9533 10.7517L13.8245 6.06381L13.8152 8.9703L6.76456 9.57974L4.58 6.86075L0.492148 12.6081L2.67671 15.3177L2.64858 24.656L0.454651 24.8435L4.49562 35.2788L6.68955 35.0913L13.712 43.8202L13.7026 46.7267L21.8315 51.4146L21.8408 48.5081L28.8914 47.908L31.076 50.6176L35.1639 44.8796L32.9793 42.1606L33.0168 32.8317ZM17.8186 36.2258C14.2277 34.1537 11.3212 29.1283 11.3306 25.0029C11.3399 20.8776 14.2652 19.2087 17.8561 21.2807C21.4471 23.3528 24.3442 28.3782 24.3348 32.5129C24.3254 36.6477 21.4095 38.2978 17.8186 36.2258Z" fill="white"/>
<path d="M21.8408 51.9021C21.7564 51.9021 21.6814 51.8833 21.6064 51.8365L13.4776 47.1486C13.3276 47.0642 13.2432 46.9142 13.2432 46.7454L13.2526 43.9983L6.49263 35.5976L4.55185 35.757C4.34558 35.7757 4.14869 35.6538 4.07369 35.4569L0.0327063 25.0217C-0.0235485 24.881 -0.0047889 24.731 0.0702175 24.5998C0.145224 24.4779 0.276475 24.3935 0.426488 24.3841L2.18914 24.2341L2.21727 15.4865L0.135841 12.9082C0.00457945 12.7488 -0.00478604 12.5144 0.117099 12.3456L4.20495 6.59823C4.28933 6.47635 4.42997 6.40135 4.5706 6.40135C4.72062 6.40135 4.86125 6.45761 4.94563 6.57949L6.9708 9.10157L13.3463 8.5484L13.3557 6.07319C13.3557 5.90443 13.4495 5.75442 13.5901 5.67004C13.7308 5.58565 13.9183 5.58565 14.0589 5.67004L22.1877 10.3579C22.3377 10.4423 22.4221 10.6017 22.4221 10.7611L22.4127 13.4988L29.1821 21.9089L31.1229 21.7402C31.3291 21.7214 31.526 21.8433 31.601 22.0402L35.642 32.4754C35.6982 32.6161 35.6795 32.7661 35.6045 32.8973C35.5295 33.0192 35.3889 33.1036 35.2482 33.113L33.4856 33.263L33.4574 42.0013L35.5389 44.589C35.6701 44.7484 35.6795 44.9827 35.5576 45.1515L31.4791 50.8895C31.3948 51.0114 31.2541 51.0864 31.1135 51.0864C30.9635 51.0864 30.8228 51.0301 30.7384 50.9083L28.7133 48.3862L22.3377 48.93L22.3284 51.4146C22.3284 51.5833 22.2346 51.7333 22.094 51.8177C22.0096 51.8833 21.9252 51.9021 21.8408 51.9021ZM14.1902 46.4735L21.3814 50.627L21.3908 48.5268C21.3908 48.283 21.5783 48.0768 21.8221 48.058L28.8727 47.458C29.0227 47.4486 29.1821 47.5142 29.2758 47.6267L31.076 49.8582L34.5919 44.9078L32.6324 42.4607C32.5667 42.3763 32.5292 42.2731 32.5292 42.17L32.5574 32.8317C32.5574 32.588 32.7449 32.3817 32.9886 32.3629L34.5544 32.2317L30.8697 22.7059L29.0227 22.8652C28.8633 22.8746 28.7133 22.809 28.6195 22.6965L21.5877 13.9582C21.522 13.8739 21.4845 13.7707 21.4845 13.6582L21.4939 11.0236L14.3027 6.87014L14.2933 8.96094C14.2933 9.20471 14.1058 9.4016 13.862 9.42973L6.81142 10.0391C6.66141 10.0579 6.50201 9.98291 6.40825 9.86102L4.6081 7.6202L1.08281 12.5706L3.04234 15.0083C3.10797 15.0927 3.14548 15.1958 3.14548 15.299L3.11735 24.6373C3.11735 24.881 2.92983 25.0779 2.68606 25.1061L1.11093 25.2467L4.805 34.7725L6.65203 34.6225C6.81142 34.6131 6.96143 34.6788 7.05518 34.7913L14.0777 43.5201C14.1433 43.6045 14.1808 43.7076 14.1808 43.8108L14.1902 46.4735ZM20.7439 37.5853C19.7688 37.5853 18.6906 37.2665 17.5936 36.6289C13.8808 34.4819 10.8618 29.2689 10.8711 24.9936C10.8805 22.8277 11.6399 21.2057 13.0182 20.4088C14.4058 19.6118 16.206 19.7712 18.0999 20.8682C21.8127 23.0153 24.8223 28.2282 24.8129 32.5036C24.8036 34.6694 24.0441 36.2914 22.6753 37.0883C22.094 37.4259 21.4377 37.5853 20.7439 37.5853ZM18.053 35.8132C19.6469 36.7321 21.1189 36.9008 22.1971 36.2726C23.2659 35.6538 23.866 34.3131 23.866 32.5036C23.8754 28.5282 21.072 23.6809 17.6217 21.6839C16.0278 20.7651 14.5558 20.5963 13.4682 21.2245C12.39 21.8433 11.7993 23.184 11.79 24.9936C11.79 28.9689 14.5933 33.8162 18.053 35.8132Z" fill="#F30C2B"/>
</svg>
