<svg width="23" height="23" viewBox="0 0 23 23" fill="none" xmlns="http://www.w3.org/2000/svg">
<path d="M12.5 5C14.0186 5 15.3937 5.61571 16.389 6.61098C17.3843 7.60625 18 8.98146 18 10.5C18 12.0186 17.3843 13.3937 16.389 14.389C15.3937 15.3843 14.0185 16 12.5 16C10.9814 16 9.60628 15.3843 8.61098 14.389C7.61571 13.3937 7 12.0185 7 10.5C7 8.98142 7.61571 7.60628 8.61098 6.61098C9.60625 5.61571 10.9815 5 12.5 5ZM14.8375 11.6156C14.9485 11.6811 14.9852 11.8245 14.9197 11.9355C14.8541 12.0465 14.7107 12.0833 14.5997 12.0177L12.3811 10.7011C12.3075 10.6576 12.2665 10.5799 12.2664 10.5L12.2659 6.83413C12.2659 6.70491 12.3708 6.60002 12.5 6.60002C12.6292 6.60002 12.7341 6.70491 12.7341 6.83413V10.3673L14.8375 11.6155L14.8375 11.6156ZM15.2155 6.26277L15.0419 6.5634C14.9779 6.6749 14.8353 6.71335 14.7237 6.64935C14.6122 6.58536 14.5737 6.44276 14.6377 6.33117L14.8118 6.02946C14.1848 5.70467 13.4806 5.5077 12.734 5.47358V5.82033C12.734 5.94955 12.6291 6.05444 12.4999 6.05444C12.3707 6.05444 12.2658 5.94955 12.2658 5.82033V5.47358C11.5193 5.5077 10.8152 5.70451 10.188 6.02946L10.3621 6.33117C10.4261 6.44267 10.3877 6.58535 10.2762 6.64935C10.1647 6.71336 10.022 6.6749 9.95798 6.5634L9.78436 6.26277C9.47931 6.45859 9.19682 6.68665 8.94165 6.94181C8.68649 7.19698 8.45842 7.47948 8.2626 7.7846L8.56307 7.95806C8.67457 8.02206 8.71302 8.16466 8.64902 8.27625C8.58503 8.38775 8.44243 8.4262 8.33084 8.3622L8.02922 8.18809C7.70426 8.81515 7.50746 9.51934 7.47333 10.2659H7.82009C7.9493 10.2659 8.05419 10.3708 8.05419 10.5C8.05419 10.6292 7.9493 10.7341 7.82009 10.7341H7.47333C7.50745 11.4806 7.70426 12.1848 8.02922 12.8119L8.33092 12.6378C8.44242 12.5738 8.5851 12.6123 8.64911 12.7238C8.7131 12.8353 8.67466 12.9779 8.56315 13.0419L8.26252 13.2156C8.45834 13.5206 8.6864 13.8031 8.94157 14.0583C9.19673 14.3134 9.47923 14.5415 9.78436 14.7373L9.95781 14.4368C10.0218 14.3253 10.1644 14.2869 10.276 14.3509C10.3875 14.4149 10.426 14.5575 10.362 14.6691L10.1878 14.9707C10.8149 15.2957 11.5191 15.4925 12.2657 15.5266V15.1799C12.2657 15.0507 12.3705 14.9458 12.4998 14.9458C12.629 14.9458 12.7339 15.0507 12.7339 15.1799V15.5266C13.4803 15.4925 14.1845 15.2955 14.8117 14.9707L14.6376 14.6691C14.5736 14.5576 14.612 14.4149 14.7235 14.3509C14.835 14.2869 14.9777 14.3253 15.0417 14.4368L15.2152 14.7373C15.5202 14.5415 15.8029 14.3134 16.0579 14.0583C16.3131 13.8031 16.5412 13.5208 16.737 13.2156L16.4364 13.0419C16.3249 12.9779 16.2864 12.8353 16.3504 12.7238C16.4144 12.6123 16.557 12.5738 16.6686 12.6378L16.9703 12.8119C17.2951 12.1849 17.4921 11.4807 17.5262 10.7341H17.1795C17.0503 10.7341 16.9454 10.6292 16.9454 10.5C16.9454 10.3708 17.0503 10.2659 17.1795 10.2659H17.5262C17.4921 9.51942 17.2951 8.81524 16.9703 8.18809L16.6687 8.3622C16.5572 8.4262 16.4145 8.38775 16.3505 8.27625C16.2865 8.16475 16.3249 8.02207 16.4364 7.95806L16.7369 7.7846C16.5411 7.47956 16.313 7.19689 16.0579 6.94181C15.8027 6.68665 15.5203 6.45859 15.2152 6.26277H15.2155Z" fill="#085DFF"/>
<path d="M16.7297 17.1399C15.317 18.4535 13.4768 19.2115 11.5488 19.274C9.62082 19.3365 7.73534 18.6993 6.24056 17.48C4.74579 16.2607 3.74268 14.5417 3.4165 12.6405C3.09032 10.7393 3.4631 8.78427 4.46599 7.13647L7.90191 9.22766C7.40399 10.0458 7.21891 11.0164 7.38085 11.9604C7.5428 12.9043 8.04083 13.7578 8.78297 14.3631C9.52511 14.9685 10.4612 15.2849 11.4185 15.2538C12.3757 15.2228 13.2893 14.8464 13.9907 14.1943L16.7297 17.1399Z" fill="url(#paint0_linear_60_4)"/>
<defs>
<linearGradient id="paint0_linear_60_4" x1="8.76549" y1="15.8022" x2="4.20516" y2="10.2162" gradientUnits="userSpaceOnUse">
<stop stop-color="#3CB8FD" stop-opacity="0.77"/>
<stop offset="1" stop-color="#3CACFD" stop-opacity="0"/>
</linearGradient>
</defs>
</svg>
