<svg width="23" height="23" viewBox="0 0 23 23" fill="none" xmlns="http://www.w3.org/2000/svg">
<path d="M5.68572 7C5.49602 7 5.30947 7.06715 5.17774 7.19878C5.04601 7.3304 4.97896 7.51676 4.97896 7.70676V8.69619H4.27221C4.12421 8.69619 3.98953 8.83087 3.98953 8.97887V11.2405H3.25624C3.11722 11.2537 2.99939 11.3837 2.99999 11.5233V14.3503C2.99999 14.4983 3.13468 14.633 3.28267 14.633H6.81645C7.75126 14.633 8.51274 13.8716 8.51274 12.9368C8.51274 12.002 7.75126 11.2405 6.81645 11.2405H4.55478V9.26167H13.884C14.089 9.26167 14.2831 9.20803 14.4493 9.1115L14.4494 11.6647C14.4473 11.814 14.5827 11.9514 14.7321 11.9514C14.8815 11.9514 15.0169 11.814 15.0148 11.6647V8.13088C15.0148 8.12191 15.015 8.11333 15.0148 8.10436V8.09548C14.9957 7.49027 14.4936 7.00006 13.8839 7.00006L5.68572 7ZM5.68572 7.56535H13.8841C14.2022 7.56535 14.4494 7.81264 14.4494 8.13071C14.4494 8.4488 14.2022 8.69606 13.8841 8.69606H5.54437V7.70663C5.54437 7.64037 5.5633 7.61257 5.57966 7.5962C5.59603 7.57993 5.6195 7.56544 5.68566 7.56544L5.68572 7.56535ZM3.56545 11.8059H6.81653C7.44786 11.8059 7.94736 12.3053 7.94736 12.9367C7.94736 13.5681 7.44796 14.0676 6.81653 14.0676H3.56545V11.8059ZM6.95788 12.5126C6.72706 12.5126 6.5338 12.7058 6.5338 12.9367C6.5338 13.1675 6.72705 13.3608 6.95788 13.3608C7.18871 13.3608 7.38196 13.1676 7.38196 12.9367C7.38196 12.7059 7.18871 12.5126 6.95788 12.5126ZM14.7277 12.5126C14.5797 12.515 14.447 12.6519 14.4494 12.7999V12.9368C14.4473 13.0862 14.5827 13.2235 14.7321 13.2235C14.8815 13.2235 15.0169 13.0862 15.0148 12.9368V12.7999C15.0171 12.6489 14.8786 12.5104 14.7277 12.5127V12.5126ZM13.0359 13.2195C11.8683 13.2195 10.9156 14.1722 10.9156 15.3398C10.9156 16.5074 11.8683 17.46 13.0359 17.46C14.2035 17.46 15.1562 16.5074 15.1562 15.3398C15.1562 14.1722 14.2035 13.2195 13.0359 13.2195ZM13.0359 13.7849C13.8979 13.7849 14.5908 14.4776 14.5908 15.3398C14.5908 16.2018 13.8981 16.8947 13.0359 16.8947C12.1739 16.8947 11.481 16.2019 11.481 15.3398C11.481 14.4777 12.1737 13.7849 13.0359 13.7849ZM12.2982 14.4872C12.1911 14.4976 12.0935 14.5746 12.0583 14.6763C12.0232 14.7779 12.0525 14.8988 12.1303 14.9731L13.1197 15.9625C13.234 16.0751 13.4471 16.0595 13.5438 15.9315L13.9679 15.3662C14.0672 15.2493 14.0453 15.05 13.9227 14.9575C13.8002 14.865 13.6025 14.8984 13.5173 15.0261L13.2875 15.3309L12.5277 14.5711C12.4689 14.5107 12.3819 14.479 12.298 14.4872L12.2982 14.4872ZM4.24116 15.1939C4.10223 15.2092 3.98637 15.3413 3.98934 15.481V16.8946C3.98934 17.0426 4.12402 17.1772 4.27201 17.1772H10.4915C10.6408 17.1793 10.7782 17.0439 10.7782 16.8946C10.7782 16.7452 10.6408 16.6097 10.4915 16.6119H4.55472V15.481C4.55817 15.3207 4.40051 15.1764 4.24107 15.1939H4.24116Z" fill="#D52B57"/>
<path d="M6.49728 4.7041C8.06046 3.57386 9.97982 3.04742 11.9009 3.22199C13.822 3.39657 15.615 4.26038 16.9488 5.65389C18.2827 7.0474 19.0672 8.87649 19.1576 10.8034C19.248 12.7302 18.6381 14.6247 17.4406 16.137L14.2873 13.6399C14.8818 12.8891 15.1846 11.9485 15.1398 10.9918C15.0949 10.0352 14.7054 9.12704 14.0431 8.43517C13.3809 7.74331 12.4907 7.31443 11.5369 7.22776C10.5831 7.14108 9.63013 7.40245 8.85402 7.96361L6.49728 4.7041Z" fill="url(#paint0_linear_60_5)"/>
<defs>
<linearGradient id="paint0_linear_60_5" x1="14.2371" y1="7.00909" x2="18.0774" y2="13.1125" gradientUnits="userSpaceOnUse">
<stop stop-color="#FD3C3C" stop-opacity="0.77"/>
<stop offset="1" stop-color="#FD3C3C" stop-opacity="0"/>
</linearGradient>
</defs>
</svg>
