<svg width="24" height="24" viewBox="0 0 24 24" fill="none" xmlns="http://www.w3.org/2000/svg">
<circle cx="12.4641" cy="12.4641" r="11.5172" fill="#FF8D23"/>
<path d="M16.5265 9.93618C16.3953 8.54539 15.1957 8.07493 13.6793 7.9381V6.0075H12.5079V7.88187C12.1986 7.88187 11.8818 7.88187 11.5707 7.88187V6H10.3954V7.9306C10.1424 7.9306 9.89124 7.9306 9.6457 7.9306H8.02624L8.01874 9.18643C8.01874 9.18643 8.88658 9.17143 8.87158 9.18643C9.34767 9.18643 9.50324 9.46384 9.54636 9.70188V11.9024C9.58818 11.9 9.63011 11.9 9.67194 11.9024H9.54261L9.53323 14.997C9.52322 15.1049 9.47128 15.2046 9.38858 15.2747C9.30588 15.3448 9.199 15.3797 9.09088 15.3718C9.10588 15.385 8.23617 15.3718 8.23617 15.3718L8 16.7776H9.52949H10.3692V18.7307H11.5444V16.8001C11.8668 16.8001 12.178 16.8114 12.4816 16.8114V18.7345H13.6568V16.7851C15.6324 16.6952 17.0157 16.2003 17.1844 14.3466C17.3269 12.8471 16.6221 12.1835 15.4975 11.9099C16.1798 11.5631 16.6071 10.954 16.5096 9.9343L16.5265 9.93618ZM14.8714 14.1066C14.8714 15.5668 12.371 15.3943 11.5744 15.3925V12.8058C12.371 12.8058 14.8696 12.5865 14.8658 14.1066H14.8714ZM14.3335 10.4573C14.3335 11.7843 12.2473 11.6231 11.5838 11.6231V9.2764C12.2529 9.27827 14.3372 9.07209 14.3335 10.4573Z" fill="white"/>
</svg>
