<svg width="23" height="22" viewBox="0 0 23 22" fill="none" xmlns="http://www.w3.org/2000/svg">
<path d="M10.4666 3.61825C10.6839 3.61728 10.8912 3.70889 11.0369 3.87005L11.2221 4.07909H12.5517L12.3364 4.68977H8.5954L8.38013 4.07909H9.71095L9.89601 3.87383H9.89609C10.0418 3.71266 10.2492 3.62106 10.4665 3.62202M10.4665 3.00001C10.0726 3.00045 9.69769 3.16847 9.43525 3.46209H8.15846C8.00617 3.46235 7.8638 3.53789 7.77816 3.66384C7.69244 3.78979 7.67461 3.94991 7.73038 4.09165L8.15846 5.30546H12.7745L13.2014 4.09165C13.2571 3.95016 13.2393 3.79022 13.154 3.66435C13.0686 3.5384 12.9267 3.46278 12.7745 3.46208H11.4978C11.2353 3.16845 10.8604 3.00045 10.4665 3L10.4665 3.00001Z" fill="#FDA53C"/>
<path d="M12.5354 6.81025C13.1649 7.40205 15.3873 9.67726 15.3873 12.1931C15.3873 13.0303 15.0461 13.5466 14.7578 13.83C14.4801 14.1276 14.1009 14.3101 13.6951 14.3411H7.23571C6.82984 14.3103 6.45042 14.1278 6.17296 13.83C5.88715 13.5442 5.54339 13.0279 5.54339 12.1931C5.54339 9.68603 7.76954 7.40834 8.39646 6.81025H12.5352M12.7745 6.19202H8.15837C8.15837 6.19202 4.92621 8.96212 4.92621 12.1929C4.92621 14.0389 6.3113 14.963 7.23425 14.963H13.6974C14.6217 14.9618 16.0066 14.0389 16.0066 12.1929C16.0066 8.96189 12.7756 6.19202 12.7756 6.19202H12.7745Z" fill="#FDA53C"/>
<path d="M11.732 10.5472C11.5296 10.4061 11.2995 10.3095 11.0571 10.2639L10.8053 10.2047L10.8052 9.22009L10.8555 9.24398H10.8556C10.9503 9.28974 11.0302 9.36123 11.0862 9.45029C11.142 9.53944 11.1717 9.64247 11.1716 9.7477H11.9561C11.9627 9.37486 11.7904 9.02142 11.4928 8.79703C11.2894 8.6471 11.054 8.54619 10.8052 8.50237V8.09949H10.1442V8.47725C9.83181 8.49394 9.53301 8.61049 9.29184 8.8096C9.03977 9.03023 8.89827 9.35107 8.90522 9.68598C8.90522 10.0696 9.03705 10.3516 9.30063 10.5321C9.45425 10.6392 9.73627 10.7374 10.1443 10.828V11.8908V11.8907C9.99854 11.866 9.8654 11.7929 9.76649 11.683C9.68121 11.5656 9.62983 11.4271 9.61797 11.2826H8.84234C8.82627 11.6546 8.99086 12.0115 9.28421 12.2408C9.53487 12.4279 9.83272 12.5412 10.1442 12.5681V13.0302L10.8066 13.0303V12.5719C11.1212 12.5501 11.4216 12.4328 11.6678 12.2358C11.935 12.0181 12.0877 11.6901 12.0821 11.3455C12.1001 11.0387 11.97 10.7418 11.7321 10.5472L11.732 10.5472ZM9.85209 9.94031C9.79324 9.91256 9.7437 9.86829 9.70971 9.81278C9.67572 9.75727 9.65869 9.69307 9.6607 9.62808C9.65886 9.55702 9.67581 9.48675 9.70989 9.4244C9.74388 9.36204 9.79386 9.30978 9.85463 9.27298C9.94255 9.21685 10.0412 9.17953 10.1442 9.16345V10.0448C10.0432 10.0211 9.94519 9.98607 9.85209 9.94031L9.85209 9.94031ZM10.945 11.8605C10.8996 11.875 10.8533 11.8868 10.8065 11.8958V10.9804C10.9172 11.0088 11.0238 11.0511 11.1238 11.1063C11.1767 11.136 11.2205 11.1797 11.2505 11.2325C11.2805 11.2852 11.2954 11.3452 11.2938 11.4059C11.2966 11.5102 11.2635 11.6123 11.2 11.6951C11.1365 11.7779 11.0465 11.8362 10.945 11.8604L10.945 11.8605Z" fill="#FDA53C"/>
<path d="M15.4393 3.99398C17.1098 4.95847 18.3749 6.49487 19.001 8.31943C19.6271 10.144 19.5718 12.1335 18.8454 13.9205C18.119 15.7075 16.7705 17.1712 15.049 18.0415C13.3275 18.9118 11.3492 19.1297 9.47951 18.6551L10.4692 14.7565C11.3974 14.9921 12.3796 14.8839 13.2344 14.4518C14.0891 14.0198 14.7586 13.293 15.1193 12.4058C15.4799 11.5185 15.5073 10.5308 15.1965 9.62491C14.8857 8.71903 14.2575 7.95623 13.4281 7.47736L15.4393 3.99398Z" fill="url(#paint0_linear_60_6)"/>
<defs>
<linearGradient id="paint0_linear_60_6" x1="16.5" y1="11.9998" x2="12.5" y2="17.9998" gradientUnits="userSpaceOnUse">
<stop stop-color="#FDA53C" stop-opacity="0.77"/>
<stop offset="1" stop-color="#FDA53C" stop-opacity="0"/>
</linearGradient>
</defs>
</svg>
