<svg width="10" height="10" viewBox="0 0 10 10" fill="none" xmlns="http://www.w3.org/2000/svg">
<path d="M6.79186 9.82602H1.58138C1.02907 9.82602 0.579361 9.37631 0.579361 8.824V3.21271C0.579361 2.6604 1.02907 2.21069 1.58138 2.21069H1.98218C2.09281 2.21069 2.18259 2.30047 2.18259 2.4111C2.18259 2.52172 2.09281 2.6115 1.98218 2.6115H1.58138C1.24991 2.6115 0.980167 2.88124 0.980167 3.21271V8.824C0.980167 9.15547 1.24991 9.42521 1.58138 9.42521H6.79186C7.12333 9.42521 7.39307 9.15547 7.39307 8.824V8.42319C7.39307 8.31257 7.48285 8.22279 7.59347 8.22279C7.7041 8.22279 7.79388 8.31257 7.79388 8.42319V8.824C7.79388 9.37631 7.34417 9.82602 6.79186 9.82602Z" fill="#F3361A"/>
<path d="M8.39509 7.42106H3.98622C3.43391 7.42106 2.9842 6.97136 2.9842 6.41904V1.20856C2.9842 0.656248 3.43391 0.206543 3.98622 0.206543H8.39509C8.9474 0.206543 9.39711 0.656248 9.39711 1.20856V6.41904C9.39711 6.97136 8.9474 7.42106 8.39509 7.42106ZM3.98622 0.607349C3.65475 0.607349 3.38501 0.877092 3.38501 1.20856V6.41904C3.38501 6.75051 3.65475 7.02025 3.98622 7.02025H8.39509C8.72656 7.02025 8.9963 6.75051 8.9963 6.41904V1.20856C8.9963 0.877092 8.72656 0.607349 8.39509 0.607349H3.98622Z" fill="#F3361A"/>
</svg>
