<svg width="21" height="21" viewBox="0 0 21 21" fill="none" xmlns="http://www.w3.org/2000/svg">
<path d="M6.97878 9.07622L10.7919 5.26321L14.6071 9.07824L16.8259 6.85947L10.7919 0.825378L4.76002 6.85746L6.97878 9.07622ZM3.19307 8.42394L5.41183 10.6426L3.19307 12.8615L0.974304 10.6427L3.19307 8.42394ZM6.97878 12.2097L10.7919 16.0227L14.607 12.2078L16.827 14.4253L16.8259 14.4266L10.7919 20.4605L4.75986 14.4286L4.75676 14.4255L6.97878 12.2097ZM20.6097 10.6436L18.3911 12.8624L16.1722 10.6438L18.391 8.42487L20.6097 10.6436Z" fill="#EDBA08"/>
<path d="M13.0422 10.6422H13.0432L10.7917 8.39069L9.12782 10.0546L8.9366 10.2458L8.54223 10.6402L8.53912 10.6433L8.54223 10.6465L10.7917 12.896L13.0432 10.6445L13.0443 10.6433L13.0422 10.6422Z" fill="#EDBA08"/>
</svg>
