<svg width="15" height="20" viewBox="0 0 15 20" fill="none" xmlns="http://www.w3.org/2000/svg">
<path d="M13.1415 6.20285C12.9408 4.0756 11.106 3.356 8.78667 3.14671V0.19378H6.99484V3.0607C6.5218 3.0607 6.03729 3.0607 5.56138 3.0607V0.182312H3.76381V3.13524C3.37678 3.13524 2.99261 3.13524 2.61704 3.13524H0.140021L0.128553 5.05608C0.128553 5.05608 1.45594 5.03315 1.433 5.05608C2.1612 5.05608 2.39916 5.48039 2.4651 5.84449V9.21026C2.52907 9.20663 2.5932 9.20663 2.65718 9.21026H2.45936L2.44503 13.9436C2.42971 14.1086 2.35027 14.2612 2.22378 14.3684C2.09729 14.4756 1.93381 14.5289 1.76843 14.5169C1.79137 14.537 0.461117 14.5169 0.461117 14.5169L0.099884 16.6671H2.4393H3.72368V19.6545H5.52124V16.7015C6.01435 16.7015 6.49026 16.7187 6.9547 16.7187V19.6602H8.75226V16.6786C11.774 16.541 13.8898 15.7841 14.1478 12.9487C14.3657 10.6552 13.2877 9.6403 11.5676 9.22173C12.6111 8.69134 13.2648 7.75959 13.1157 6.19999L13.1415 6.20285ZM10.61 12.5818C10.61 14.8151 6.78555 14.5513 5.56711 14.5485V10.5921C6.78555 10.5921 10.6072 10.2567 10.6014 12.5818H10.61ZM9.78722 6.99986C9.78722 9.02964 6.59634 8.78309 5.58145 8.78309V5.1937C6.60494 5.19656 9.79296 4.8812 9.78722 6.99986Z" fill="#FA9B02"/>
</svg>
