<svg width="17" height="21" viewBox="0 0 17 21" fill="none" xmlns="http://www.w3.org/2000/svg">
<path d="M16.4602 9.07273C16.9659 6.90157 15.3895 5.59292 13.1589 4.64117L14.1106 1.72645L12.3558 1.13161L11.4338 3.98684C10.958 3.83813 10.4821 3.68942 10.036 3.51097L10.9877 0.685478L9.20318 0.0906372L8.25144 3.00536C7.86479 2.88639 7.47814 2.76742 7.12124 2.61871L4.68239 1.81568L4.05781 3.68942C4.05781 3.68942 5.36646 4.10581 5.33672 4.10581C6.05053 4.34375 6.13975 4.84936 6.11001 5.20627L5.00955 8.50764C5.06904 8.53738 5.12852 8.53738 5.18801 8.56712L4.97981 8.50764L3.40349 13.2069C3.25478 13.534 2.86813 13.6828 2.54097 13.5638C2.57071 13.5935 1.26206 13.1474 1.26206 13.1474L0.191345 15.1401L2.51122 15.8837L3.79013 16.3001L2.80864 19.2445L4.59317 19.8394L5.54491 16.9246C6.02078 17.0733 6.49666 17.2518 6.94279 17.4005L5.99104 20.2855L7.77557 20.8803L8.75705 17.9359C11.7907 18.7984 14.1106 18.7389 15.3003 16.0324C16.252 13.8315 15.5382 12.4931 13.9619 11.5116C15.1218 11.3629 16.0736 10.6491 16.4602 9.07273ZM11.9097 14.5453C11.1959 16.7462 7.50789 15.2293 6.28846 14.8427L7.56737 10.9167C8.78679 11.3331 12.6533 12.2551 11.9097 14.5453ZM12.8912 8.77531C12.2369 10.768 9.17344 9.48912 8.16221 9.16196L9.35189 5.62266C10.3631 5.94982 13.605 6.69337 12.8912 8.77531Z" fill="#66B924"/>
</svg>
