<svg width="21" height="19" viewBox="0 0 21 19" fill="none" xmlns="http://www.w3.org/2000/svg">
<path d="M12.1243 6.23448V3.76343H17.7729V0H2.41246V3.76343H8.04382V6.23103C3.44637 6.44126 0 7.3511 0 8.44016C0 9.52921 3.44637 10.439 8.04382 10.6493V18.5759H12.1278V10.6493C16.708 10.439 20.1544 9.52921 20.1544 8.44016C20.1544 7.3511 16.708 6.44471 12.1243 6.23448ZM12.1243 9.98068C12.0071 9.98068 11.4144 10.022 10.0979 10.022C9.04327 10.022 8.3023 9.99102 8.03004 9.97724C3.97366 9.80147 0.947751 9.09497 0.947751 8.25405C0.947751 7.41314 3.97366 6.70319 8.03004 6.53087V9.28796C8.29541 9.28796 9.06395 9.35 10.0979 9.35C11.3558 9.35 11.9899 9.2983 12.1071 9.28796V6.53087C16.1531 6.71008 19.1756 7.41658 19.1756 8.25405C19.1756 9.09152 16.1738 9.79803 12.1278 9.99447L12.1243 9.98068Z" fill="#41C083"/>
</svg>
