<svg width="29" height="15" viewBox="0 0 29 15" fill="none" xmlns="http://www.w3.org/2000/svg">
<g filter="url(#filter0_d_22_21824)">
<path d="M25.8778 10.4608H25.3496C25.1557 10.4524 24.9701 10.3802 24.8215 10.2554C24.7063 10.1454 24.6292 10.0015 24.6014 9.84463C24.6014 9.63923 24.6014 9.38983 24.6014 9.12576C24.6014 8.33353 24.6014 7.49729 24.5134 6.64639C24.4254 5.79548 24.5134 4.123 24.5134 4.123V2.47987C24.5021 2.17971 24.5267 1.87927 24.5867 1.58495C24.6239 1.39019 24.7341 1.217 24.8948 1.10081C25.1401 0.987564 25.4032 0.918055 25.6724 0.895419H26.0098C26.0307 0.862516 26.0418 0.824353 26.0418 0.785387C26.0418 0.746421 26.0307 0.708259 26.0098 0.675356C26.0007 0.640523 25.9842 0.608063 25.9615 0.580206C25.9387 0.552349 25.9101 0.529756 25.8778 0.513977C25.599 0.513977 25.3349 0.513977 25.0855 0.513977H23.8825C23.6771 0.513977 23.4571 0.513977 23.1637 0.513977C23.1143 0.964752 22.9955 1.40518 22.8116 1.81968L21.9166 3.69755L20.3615 6.80776L19.7454 8.08413C19.5487 8.50702 19.3283 8.91846 19.0852 9.31648C18.8798 8.93504 18.7037 8.58294 18.513 8.20149L17.9555 7.01316L16.019 3.19874C15.7696 2.67059 15.5348 2.14244 15.3588 1.73166C15.2211 1.3405 15.1517 0.928632 15.1534 0.513977C14.8893 0.513977 14.6399 0.513977 14.4052 0.513977H13.2315H12.586C12.5559 0.532866 12.5309 0.558742 12.513 0.589397C12.4951 0.620052 12.4849 0.654576 12.4833 0.690027C12.4653 0.72125 12.4558 0.756669 12.4558 0.792723C12.4558 0.828777 12.4653 0.864196 12.4833 0.895419H12.7327C12.9663 0.944621 13.1966 1.00832 13.4222 1.08614C13.4978 1.13302 13.5629 1.19501 13.6134 1.26822C13.6639 1.34143 13.6987 1.42429 13.7156 1.51159C13.7565 1.76425 13.7565 2.02182 13.7156 2.27448C13.7156 2.7146 13.7156 3.24275 13.7156 3.84426C13.7156 4.44576 13.7156 5.09128 13.6129 5.73679C13.5103 6.38231 13.6129 6.6904 13.5249 7.07184C13.4369 7.45328 13.5249 7.82005 13.4369 8.14281C13.3489 8.46557 13.4369 8.81767 13.4369 9.1551C13.417 9.42496 13.3628 9.69118 13.2755 9.94732C13.2543 10.0216 13.217 10.0903 13.1663 10.1486C13.1156 10.2069 13.0527 10.2534 12.9821 10.2848C12.8202 10.3616 12.6467 10.4111 12.4686 10.4315H12.1312C12.1312 10.4315 12.0432 10.5342 12.1312 10.6369C12.132 10.673 12.1403 10.7085 12.1554 10.7413C12.1706 10.7741 12.1923 10.8035 12.2192 10.8276H13.0261H14.6399L15.5348 10.9009C15.5703 10.8712 15.5961 10.8317 15.6092 10.7873C15.6222 10.7429 15.6219 10.6957 15.6082 10.6515C15.625 10.6173 15.6338 10.5796 15.6338 10.5415C15.6338 10.5033 15.625 10.4657 15.6082 10.4315H14.9773C14.8098 10.4298 14.6465 10.3788 14.5079 10.2848C14.3825 10.1659 14.3088 10.0026 14.3025 9.82996C14.2521 9.51901 14.2521 9.20197 14.3025 8.89102C14.3025 8.18682 14.3025 7.49729 14.3025 6.80776C14.3025 6.11824 14.3025 5.50206 14.3025 4.98858C14.3025 4.4751 14.3758 4.02031 14.3905 3.5215C14.4052 3.02269 14.3905 2.53855 14.4639 2.05441L14.9773 3.40413L15.5055 4.5778L16.9726 7.73203C17.1046 7.9961 17.2513 8.31886 17.4274 8.71497C17.6034 9.11109 17.8235 9.53654 17.9995 9.93265C18.1557 10.2752 18.288 10.6282 18.3956 10.989H18.469C18.5067 11.0037 18.5486 11.0037 18.5864 10.989C18.7037 10.7249 18.8358 10.4021 19.0265 10.006C19.2172 9.60989 19.4079 9.1551 19.628 8.7003C19.8481 8.24551 20.1121 7.7467 20.3762 7.23322L21.8433 4.38708C21.946 4.15234 22.0633 3.88827 22.2101 3.59485L22.6502 2.75861C22.7675 2.49454 22.8996 3.49216 22.8996 3.49216H22.9436V9.06707C23.0878 9.3151 23.1397 9.60605 23.0903 9.88864C23.0887 9.96761 23.0678 10.045 23.0295 10.114C22.9911 10.1831 22.9365 10.2417 22.8702 10.2848C22.7822 10.3874 22.6062 10.4315 22.3128 10.4608H21.8286C21.8286 10.4608 21.8286 10.5635 21.8286 10.6809C21.832 10.7535 21.8636 10.8219 21.9166 10.8716C22.2541 10.8716 22.6062 10.8716 22.9289 10.7836H24.8361C25.1589 10.7836 25.4963 10.8569 25.8191 10.8716C25.8508 10.8519 25.8761 10.8233 25.8917 10.7894C25.9074 10.7555 25.9127 10.7178 25.9071 10.6809C25.9208 10.6446 25.9252 10.6055 25.9201 10.5671C25.915 10.5287 25.9004 10.4922 25.8778 10.4608Z" fill="#F3361A"/>
<path d="M10.3268 0.646072C9.90481 0.408996 9.44993 0.235945 8.97708 0.132592C8.39506 0.0386272 7.80609 -0.00554484 7.21657 0.000555253C6.55639 0.000555253 5.96955 0.000555253 5.4414 0.000555253C4.91325 0.000555253 4.44379 0.000555172 3.97432 0.0885802C3.93877 0.112412 3.9104 0.145512 3.8923 0.184299C3.8742 0.223086 3.86705 0.266085 3.87162 0.308643C3.86685 0.354875 3.87913 0.401259 3.90614 0.439079C3.93316 0.4769 3.97305 0.503554 4.01833 0.514034H4.57582C4.76926 0.510991 4.95712 0.578829 5.10397 0.704755C5.18786 0.772859 5.25331 0.860931 5.29432 0.960896C5.33533 1.06086 5.35059 1.16952 5.33871 1.27692C5.35848 1.62385 5.35848 1.97162 5.33871 2.31855V5.60481C5.8273 5.63416 6.3172 5.63416 6.80579 5.60481V1.01284C6.76624 0.873783 6.76624 0.726449 6.80579 0.587389C6.82846 0.546049 6.85991 0.510178 6.89793 0.482297C6.93595 0.454417 6.97961 0.435203 7.02585 0.426009H7.68604C8.0581 0.400012 8.43158 0.448942 8.78439 0.569903C9.13719 0.690863 9.46213 0.881394 9.73996 1.13021C10.2068 1.66422 10.4487 2.35827 10.4148 3.06676C10.4526 3.72937 10.2551 4.38403 9.85733 4.91528C9.48324 5.3734 8.96692 5.69352 8.39024 5.82488C7.45701 5.99806 6.5068 6.06206 5.55877 6.0156C4.56115 5.98626 3.51952 5.92757 2.40454 5.82488C3.27146 6.02536 4.14793 6.18205 5.03062 6.29434C6.05772 6.43437 7.09907 6.43437 8.12617 6.29434C8.59147 6.22231 9.0485 6.10437 9.49055 5.94224C9.91427 5.74866 10.3173 5.51273 10.6936 5.23804C10.97 5.01839 11.1911 4.73701 11.3391 4.41648C11.5114 4.01807 11.6013 3.58887 11.6032 3.15478C11.6022 2.63946 11.4656 2.13346 11.207 1.6877C11.0082 1.27051 10.705 0.91173 10.3268 0.646072Z" fill="#F3361A"/>
<path d="M8.00865 10.3727C7.72746 10.3826 7.44877 10.3168 7.20176 10.182C7.10564 10.1139 7.02472 10.0266 6.96411 9.92556C6.9035 9.82455 6.86453 9.71205 6.84966 9.59519C6.8072 9.16589 6.8072 8.73345 6.84966 8.30416V6.73438C6.36172 6.78044 5.87052 6.78044 5.38258 6.73438V8.36284C5.38878 8.79438 5.36427 9.22581 5.30922 9.65387C5.315 9.7646 5.29079 9.87483 5.23915 9.97295C5.18751 10.0711 5.11035 10.1534 5.0158 10.2114C4.80437 10.3679 4.54494 10.4457 4.28226 10.4314H3.91549C3.88077 10.4549 3.85477 10.4892 3.84151 10.529C3.82825 10.5688 3.82847 10.6118 3.84214 10.6515C3.83869 10.6919 3.84645 10.7324 3.86457 10.7686C3.88269 10.8049 3.91047 10.8354 3.94483 10.8569L5.00113 10.7835H7.14308L8.46345 10.8569C8.46345 10.8569 8.46345 10.7395 8.56615 10.6515C8.58108 10.6167 8.58878 10.5793 8.58878 10.5415C8.58878 10.5036 8.58108 10.4662 8.56615 10.4314L8.00865 10.3727Z" fill="#F3361A"/>
</g>
<defs>
<filter id="filter0_d_22_21824" x="0.404541" y="0" width="27.6372" height="15" filterUnits="userSpaceOnUse" color-interpolation-filters="sRGB">
<feFlood flood-opacity="0" result="BackgroundImageFix"/>
<feColorMatrix in="SourceAlpha" type="matrix" values="0 0 0 0 0 0 0 0 0 0 0 0 0 0 0 0 0 0 127 0" result="hardAlpha"/>
<feOffset dy="2"/>
<feGaussianBlur stdDeviation="1"/>
<feColorMatrix type="matrix" values="0 0 0 0 0 0 0 0 0 0 0 0 0 0 0 0 0 0 0.25 0"/>
<feBlend mode="normal" in2="BackgroundImageFix" result="effect1_dropShadow_22_21824"/>
<feBlend mode="normal" in="SourceGraphic" in2="effect1_dropShadow_22_21824" result="shape"/>
</filter>
</defs>
</svg>
