<svg width="19" height="21" viewBox="0 0 19 21" fill="none" xmlns="http://www.w3.org/2000/svg">
<path d="M12.538 1.3563C11.9152 1.72151 11.3982 2.24261 11.038 2.86832C10.6777 3.49403 10.4867 4.20276 10.4835 4.92475C10.5255 5.70582 10.7638 6.46369 11.1764 7.12818C11.4709 7.75526 11.613 8.79462 10.5736 9.33508C10.1984 9.54671 9.7547 9.60138 9.33932 9.48715C8.92394 9.37292 8.57059 9.09907 8.35633 8.72533C7.89887 8.07844 7.3327 7.51578 6.68297 7.06236C6.06363 6.69003 5.35462 6.49332 4.63198 6.49332C3.90934 6.49332 3.20033 6.69003 2.58098 7.06236C1.95624 7.42659 1.4379 7.94823 1.07764 8.57527C0.717382 9.20231 0.527802 9.91284 0.527802 10.636C0.527802 11.3592 0.717382 12.0697 1.07764 12.6967C1.4379 13.3238 1.95624 13.8454 2.58098 14.2097C3.20098 14.5819 3.91054 14.7786 4.63371 14.7786C5.35688 14.7786 6.06644 14.5819 6.68644 14.2097C7.36393 13.8137 7.91624 13.235 8.28011 12.5398C8.37767 12.3486 8.51356 12.1795 8.67933 12.0432C8.84509 11.9069 9.03717 11.8061 9.24358 11.7473C9.44999 11.6884 9.66631 11.6728 9.87905 11.7012C10.0918 11.7297 10.2964 11.8017 10.4801 11.9127C10.8373 12.1386 11.0976 12.4894 11.2103 12.8967C11.323 13.304 11.2801 13.7387 11.0898 14.1161C10.7039 14.7874 10.4941 15.5454 10.4801 16.3195C10.4802 17.043 10.6703 17.7538 11.0315 18.3806C11.3926 19.0075 11.9122 19.5285 12.538 19.8915C13.1573 20.2638 13.8664 20.4605 14.589 20.4605C15.3116 20.4605 16.0206 20.2638 16.64 19.8915C17.2648 19.5277 17.7833 19.0064 18.1436 18.3796C18.504 17.7529 18.6936 17.0425 18.6936 16.3195C18.6936 15.5966 18.504 14.8862 18.1436 14.2594C17.7833 13.6327 17.2648 13.1114 16.64 12.7476C15.9391 12.3756 15.1536 12.1918 14.3603 12.2141C13.9377 12.2141 13.5323 12.0462 13.2334 11.7473C12.9346 11.4484 12.7667 11.0431 12.7667 10.6204C12.7667 10.1977 12.9346 9.79239 13.2334 9.49352C13.5323 9.19464 13.9377 9.02674 14.3603 9.02674C15.1527 9.04043 15.936 8.85709 16.64 8.4932C17.2649 8.12992 17.7834 7.60899 18.1439 6.98248C18.5044 6.35597 18.6941 5.64582 18.6941 4.92302C18.6941 4.20022 18.5044 3.49007 18.1439 2.86356C17.7834 2.23706 17.2649 1.71612 16.64 1.35284C16.0172 0.993393 15.3079 0.811277 14.589 0.82623C13.8696 0.81126 13.16 0.994653 12.538 1.3563Z" fill="#2488B5"/>
</svg>
