<svg width="44" height="44" viewBox="0 0 44 44" fill="none" xmlns="http://www.w3.org/2000/svg">
<g filter="url(#filter0_d_144_16)">
<circle cx="22.0927" cy="17.9867" r="17.7333" fill="#2892DE"/>
<circle cx="22.0927" cy="17.9867" r="16.72" stroke="white" stroke-width="2.02667"/>
</g>
<path d="M21.8516 9L21.7092 9.39655V20.8255L21.8312 20.9373L27.1288 17.8056L21.8516 9Z" fill="white"/>
<path d="M21.8512 9L16.5435 17.8056L21.8512 20.9373V9Z" fill="white"/>
<path d="M21.8512 21.9439L21.78 22.0253V26.0925L21.8512 26.2857L27.1589 18.8122L21.8512 21.9439Z" fill="white"/>
<path d="M21.8512 26.2857V21.9439L16.5435 18.8122L21.8512 26.2857Z" fill="white"/>
<path d="M21.8513 20.9374L27.1489 17.8056L21.8513 15.3958V20.9374Z" fill="white"/>
<path d="M16.5435 17.8056L21.8512 20.9374V15.3958L16.5435 17.8056Z" fill="white"/>
<defs>
<filter id="filter0_d_144_16" x="0.306042" y="0.253326" width="43.5732" height="43.5733" filterUnits="userSpaceOnUse" color-interpolation-filters="sRGB">
<feFlood flood-opacity="0" result="BackgroundImageFix"/>
<feColorMatrix in="SourceAlpha" type="matrix" values="0 0 0 0 0 0 0 0 0 0 0 0 0 0 0 0 0 0 127 0" result="hardAlpha"/>
<feOffset dy="4.05333"/>
<feGaussianBlur stdDeviation="2.02667"/>
<feComposite in2="hardAlpha" operator="out"/>
<feColorMatrix type="matrix" values="0 0 0 0 0 0 0 0 0 0 0 0 0 0 0 0 0 0 0.17 0"/>
<feBlend mode="normal" in2="BackgroundImageFix" result="effect1_dropShadow_144_16"/>
<feBlend mode="normal" in="SourceGraphic" in2="effect1_dropShadow_144_16" result="shape"/>
</filter>
</defs>
</svg>
