<svg width="44" height="44" viewBox="0 0 44 44" fill="none" xmlns="http://www.w3.org/2000/svg">
<g filter="url(#filter0_d_144_15)">
<circle cx="22.0927" cy="17.9867" r="17.7333" fill="#F30C2B"/>
<circle cx="22.0927" cy="17.9867" r="16.72" stroke="white" stroke-width="2.02667"/>
</g>
<g filter="url(#filter1_d_144_15)">
<path d="M32.8777 23.4608H32.3496C32.1557 23.4525 31.97 23.3803 31.8214 23.2554C31.7062 23.1454 31.6291 23.0015 31.6014 22.8447C31.6014 22.6393 31.6014 22.3899 31.6014 22.1258C31.6014 21.3336 31.6014 20.4973 31.5133 19.6464C31.4253 18.7955 31.5133 17.123 31.5133 17.123V15.4799C31.5021 15.1797 31.5267 14.8793 31.5867 14.585C31.6239 14.3902 31.7341 14.217 31.8948 14.1008C32.14 13.9876 32.4032 13.9181 32.6723 13.8954H33.0098C33.0306 13.8625 33.0417 13.8244 33.0417 13.7854C33.0417 13.7465 33.0306 13.7083 33.0098 13.6754C33.0007 13.6406 32.9842 13.6081 32.9614 13.5802C32.9386 13.5524 32.9101 13.5298 32.8777 13.514C32.599 13.514 32.3349 13.514 32.0855 13.514H30.8825C30.6771 13.514 30.457 13.514 30.1636 13.514C30.1142 13.9648 29.9955 14.4052 29.8115 14.8197L28.9166 16.6976L27.3615 19.8078L26.7453 21.0842C26.5486 21.507 26.3282 21.9185 26.0851 22.3165C25.8797 21.9351 25.7037 21.583 25.513 21.2015L24.9555 20.0132L23.0189 16.1988C22.7695 15.6706 22.5348 15.1425 22.3587 14.7317C22.2211 14.3405 22.1516 13.9287 22.1534 13.514C21.8893 13.514 21.6399 13.514 21.4051 13.514H20.2315H19.586C19.5559 13.5329 19.5309 13.5588 19.513 13.5894C19.4951 13.6201 19.4849 13.6546 19.4833 13.6901C19.4652 13.7213 19.4557 13.7567 19.4557 13.7928C19.4557 13.8288 19.4652 13.8642 19.4833 13.8954H19.7327C19.9662 13.9447 20.1965 14.0083 20.4222 14.0862C20.4978 14.133 20.5628 14.195 20.6133 14.2683C20.6638 14.3415 20.6987 14.4243 20.7156 14.5116C20.7564 14.7643 20.7564 15.0219 20.7156 15.2745C20.7156 15.7146 20.7156 16.2428 20.7156 16.8443C20.7156 17.4458 20.7156 18.0913 20.6129 18.7368C20.5102 19.3823 20.6129 19.6904 20.5249 20.0719C20.4369 20.4533 20.5249 20.8201 20.4369 21.1428C20.3488 21.4656 20.4369 21.8177 20.4369 22.1551C20.417 22.425 20.3627 22.6912 20.2755 22.9474C20.2542 23.0216 20.2169 23.0904 20.1663 23.1487C20.1156 23.207 20.0527 23.2534 19.9821 23.2848C19.8202 23.3616 19.6467 23.4112 19.4686 23.4315H19.1312C19.1312 23.4315 19.0431 23.5342 19.1312 23.6369C19.132 23.673 19.1403 23.7086 19.1554 23.7414C19.1705 23.7742 19.1922 23.8035 19.2192 23.8276H20.0261H21.6399L22.5348 23.901C22.5702 23.8712 22.5961 23.8317 22.6092 23.7873C22.6222 23.743 22.6219 23.6957 22.6082 23.6516C22.625 23.6173 22.6337 23.5797 22.6337 23.5415C22.6337 23.5034 22.625 23.4657 22.6082 23.4315H21.9773C21.8098 23.4299 21.6465 23.3788 21.5078 23.2848C21.3825 23.1659 21.3088 23.0026 21.3024 22.83C21.252 22.519 21.252 22.202 21.3024 21.8911C21.3024 21.1869 21.3024 20.4973 21.3024 19.8078C21.3024 19.1183 21.3024 18.5021 21.3024 17.9886C21.3024 17.4751 21.3758 17.0203 21.3905 16.5215C21.4051 16.0227 21.3905 15.5386 21.4638 15.0544L21.9773 16.4042L22.5055 17.5778L23.9725 20.7321C24.1046 20.9961 24.2513 21.3189 24.4273 21.715C24.6034 22.1111 24.8234 22.5366 24.9995 22.9327C25.1556 23.2753 25.288 23.6282 25.3956 23.989H25.469C25.5067 24.0037 25.5486 24.0037 25.5863 23.989C25.7037 23.7249 25.8357 23.4021 26.0265 23.006C26.2172 22.6099 26.4079 22.1551 26.628 21.7003C26.848 21.2455 27.1121 20.7467 27.3762 20.2332L28.8433 17.3871C28.946 17.1524 29.0633 16.8883 29.21 16.5949L29.6502 15.7586C29.7675 15.4946 29.8996 16.4922 29.8996 16.4922H29.9436V22.0671C30.0877 22.3151 30.1397 22.6061 30.0903 22.8887C30.0887 22.9676 30.0678 23.045 30.0294 23.1141C29.9911 23.1831 29.9364 23.2417 29.8702 23.2848C29.7822 23.3875 29.6061 23.4315 29.3127 23.4608H28.8286C28.8286 23.4608 28.8286 23.5635 28.8286 23.6809C28.8319 23.7535 28.8635 23.822 28.9166 23.8716C29.254 23.8716 29.6061 23.8716 29.9289 23.7836H31.8361C32.1589 23.7836 32.4963 23.8569 32.8191 23.8716C32.8508 23.8519 32.876 23.8234 32.8917 23.7895C32.9073 23.7556 32.9127 23.7178 32.9071 23.6809C32.9207 23.6446 32.9252 23.6056 32.9201 23.5672C32.9149 23.5288 32.9004 23.4922 32.8777 23.4608Z" fill="white"/>
<path d="M17.3268 13.6461C16.9048 13.409 16.4499 13.2359 15.9771 13.1326C15.3951 13.0386 14.8061 12.9945 14.2166 13.0006C13.5564 13.0006 12.9696 13.0006 12.4414 13.0006C11.9133 13.0006 11.4438 13.0006 10.9743 13.0886C10.9388 13.1124 10.9104 13.1455 10.8923 13.1843C10.8742 13.2231 10.8671 13.2661 10.8716 13.3086C10.8669 13.3549 10.8791 13.4013 10.9061 13.4391C10.9332 13.4769 10.9731 13.5036 11.0183 13.514H11.5758C11.7693 13.511 11.9571 13.5788 12.104 13.7048C12.1879 13.7729 12.2533 13.8609 12.2943 13.9609C12.3353 14.0609 12.3506 14.1695 12.3387 14.2769C12.3585 14.6238 12.3585 14.9716 12.3387 15.3185V18.6048C12.8273 18.6342 13.3172 18.6342 13.8058 18.6048V14.0128C13.7662 13.8738 13.7662 13.7264 13.8058 13.5874C13.8285 13.546 13.8599 13.5102 13.8979 13.4823C13.9359 13.4544 13.9796 13.4352 14.0259 13.426H14.686C15.0581 13.4 15.4316 13.4489 15.7844 13.5699C16.1372 13.6909 16.4621 13.8814 16.74 14.1302C17.2068 14.6642 17.4487 15.3583 17.4148 16.0668C17.4526 16.7294 17.2551 17.384 16.8573 17.9153C16.4832 18.3734 15.9669 18.6935 15.3902 18.8249C14.457 18.9981 13.5068 19.0621 12.5588 19.0156C11.5612 18.9863 10.5195 18.9276 9.40454 18.8249C10.2715 19.0254 11.1479 19.182 12.0306 19.2943C13.0577 19.4344 14.0991 19.4344 15.1262 19.2943C15.5915 19.2223 16.0485 19.1044 16.4906 18.9422C16.9143 18.7487 17.3173 18.5127 17.6936 18.238C17.97 18.0184 18.1911 17.737 18.3391 17.4165C18.5114 17.0181 18.6013 16.5889 18.6032 16.1548C18.6022 15.6395 18.4656 15.1335 18.207 14.6877C18.0082 14.2705 17.705 13.9117 17.3268 13.6461Z" fill="white"/>
<path d="M15.0087 23.3728C14.7275 23.3827 14.4488 23.3168 14.2018 23.1821C14.1057 23.1139 14.0248 23.0266 13.9642 22.9256C13.9036 22.8246 13.8646 22.7121 13.8497 22.5952C13.8073 22.1659 13.8073 21.7335 13.8497 21.3042V19.7344C13.3618 19.7805 12.8706 19.7805 12.3826 19.7344V21.3629C12.3888 21.7944 12.3643 22.2258 12.3093 22.6539C12.3151 22.7646 12.2908 22.8749 12.2392 22.973C12.1876 23.0711 12.1104 23.1535 12.0159 23.2114C11.8044 23.3679 11.545 23.4458 11.2823 23.4315H10.9156C10.8808 23.455 10.8548 23.4893 10.8416 23.5291C10.8283 23.5688 10.8285 23.6119 10.8422 23.6515C10.8387 23.6919 10.8465 23.7324 10.8646 23.7687C10.8828 23.8049 10.9105 23.8354 10.9449 23.8569L12.0012 23.7836H14.1431L15.4635 23.8569C15.4635 23.8569 15.4635 23.7395 15.5662 23.6515C15.5811 23.6168 15.5888 23.5793 15.5888 23.5415C15.5888 23.5037 15.5811 23.4662 15.5662 23.4315L15.0087 23.3728Z" fill="white"/>
</g>
<defs>
<filter id="filter0_d_144_15" x="0.306042" y="0.253326" width="43.5732" height="43.5733" filterUnits="userSpaceOnUse" color-interpolation-filters="sRGB">
<feFlood flood-opacity="0" result="BackgroundImageFix"/>
<feColorMatrix in="SourceAlpha" type="matrix" values="0 0 0 0 0 0 0 0 0 0 0 0 0 0 0 0 0 0 127 0" result="hardAlpha"/>
<feOffset dy="4.05333"/>
<feGaussianBlur stdDeviation="2.02667"/>
<feComposite in2="hardAlpha" operator="out"/>
<feColorMatrix type="matrix" values="0 0 0 0 0 0 0 0 0 0 0 0 0 0 0 0 0 0 0.17 0"/>
<feBlend mode="normal" in2="BackgroundImageFix" result="effect1_dropShadow_144_15"/>
<feBlend mode="normal" in="SourceGraphic" in2="effect1_dropShadow_144_15" result="shape"/>
</filter>
<filter id="filter1_d_144_15" x="7.40454" y="13" width="27.6372" height="15" filterUnits="userSpaceOnUse" color-interpolation-filters="sRGB">
<feFlood flood-opacity="0" result="BackgroundImageFix"/>
<feColorMatrix in="SourceAlpha" type="matrix" values="0 0 0 0 0 0 0 0 0 0 0 0 0 0 0 0 0 0 127 0" result="hardAlpha"/>
<feOffset dy="2"/>
<feGaussianBlur stdDeviation="1"/>
<feColorMatrix type="matrix" values="0 0 0 0 0 0 0 0 0 0 0 0 0 0 0 0 0 0 0.25 0"/>
<feBlend mode="normal" in2="BackgroundImageFix" result="effect1_dropShadow_144_15"/>
<feBlend mode="normal" in="SourceGraphic" in2="effect1_dropShadow_144_15" result="shape"/>
</filter>
</defs>
</svg>
