<svg width="37" height="36" viewBox="0 0 37 36" fill="none" xmlns="http://www.w3.org/2000/svg">
<g filter="url(#filter0_d_143_12)">
<circle cx="18.5" cy="13.5" r="13.5" fill="#F18D17"/>
<circle cx="18.5" cy="13.5" r="12.4867" stroke="white" stroke-width="2.02667"/>
</g>
<path d="M23.0093 11.3917C22.865 9.86217 21.5458 9.34478 19.8782 9.1943V7.07113H18.5898V9.13246C18.2497 9.13246 17.9013 9.13246 17.5592 9.13246V7.06288H16.2667V9.18605C15.9884 9.18605 15.7122 9.18605 15.4422 9.18605H13.6612L13.6529 10.5671C13.6529 10.5671 14.6073 10.5507 14.5908 10.5671C15.1144 10.5671 15.2855 10.8722 15.3329 11.134V13.554C15.3789 13.5514 15.425 13.5514 15.471 13.554H15.3288L15.3185 16.9573C15.3075 17.076 15.2504 17.1856 15.1594 17.2627C15.0685 17.3398 14.9509 17.3781 14.832 17.3695C14.8485 17.384 13.8921 17.3695 13.8921 17.3695L13.6323 18.9155H15.3144H16.2378V21.0634H17.5303V18.9403C17.8849 18.9403 18.227 18.9526 18.561 18.9526V21.0676H19.8534V18.9238C22.0261 18.8248 23.5473 18.2806 23.7328 16.242C23.8895 14.5929 23.1144 13.8632 21.8777 13.5623C22.628 13.1809 23.098 12.511 22.9908 11.3896L23.0093 11.3917ZM21.1892 15.9781C21.1892 17.5839 18.4393 17.3943 17.5633 17.3922V14.5476C18.4393 14.5476 21.1871 14.3064 21.183 15.9781H21.1892ZM20.5976 11.9647C20.5976 13.4242 18.3033 13.2469 17.5736 13.2469V10.6661C18.3095 10.6682 20.6017 10.4414 20.5976 11.9647Z" fill="white"/>
<defs>
<filter id="filter0_d_143_12" x="0.946667" y="0" width="35.1067" height="35.1067" filterUnits="userSpaceOnUse" color-interpolation-filters="sRGB">
<feFlood flood-opacity="0" result="BackgroundImageFix"/>
<feColorMatrix in="SourceAlpha" type="matrix" values="0 0 0 0 0 0 0 0 0 0 0 0 0 0 0 0 0 0 127 0" result="hardAlpha"/>
<feOffset dy="4.05333"/>
<feGaussianBlur stdDeviation="2.02667"/>
<feComposite in2="hardAlpha" operator="out"/>
<feColorMatrix type="matrix" values="0 0 0 0 0 0 0 0 0 0 0 0 0 0 0 0 0 0 0.17 0"/>
<feBlend mode="normal" in2="BackgroundImageFix" result="effect1_dropShadow_143_12"/>
<feBlend mode="normal" in="SourceGraphic" in2="effect1_dropShadow_143_12" result="shape"/>
</filter>
</defs>
</svg>
