<svg width="8" height="8" viewBox="0 0 8 8" fill="none" xmlns="http://www.w3.org/2000/svg">
<path d="M7.53935 3.9925C7.53809 3.83664 7.47623 3.68731 7.36683 3.57623L4.48683 0.696227C4.37441 0.583309 4.22182 0.519692 4.06252 0.519357C3.90323 0.519023 3.75031 0.581969 3.63746 0.694302C3.52455 0.806718 3.46093 0.959309 3.46059 1.11861C3.46026 1.27791 3.52321 1.43082 3.63554 1.54367L6.09168 3.99981L3.63554 6.45595L3.63554 6.45604C3.4842 6.60805 3.42544 6.82937 3.48144 7.03645C3.53744 7.24362 3.69967 7.40517 3.90699 7.46024C4.11441 7.51532 4.33539 7.45556 4.48682 7.30346L7.36682 4.42346C7.47991 4.3087 7.5421 4.15327 7.53934 3.99221L7.53935 3.9925Z" fill="black"/>
<path d="M4.53935 3.9925C4.53809 3.83664 4.47623 3.68731 4.36683 3.57623L1.48683 0.696227C1.37441 0.583309 1.22182 0.519692 1.06252 0.519357C0.903229 0.519023 0.750307 0.581969 0.637464 0.694302C0.524546 0.806718 0.460929 0.959309 0.460594 1.11861C0.46026 1.27791 0.523206 1.43082 0.635539 1.54367L3.09168 3.99981L0.635539 6.45595L0.635539 6.45604C0.484199 6.60805 0.425438 6.82937 0.481437 7.03645C0.537437 7.24362 0.699666 7.40517 0.906987 7.46024C1.11441 7.51532 1.33539 7.45556 1.48682 7.30346L4.36682 4.42346C4.47991 4.3087 4.5421 4.15327 4.53934 3.99221L4.53935 3.9925Z" fill="black"/>
</svg>
