<svg width="34" height="32" viewBox="0 0 34 32" fill="none" xmlns="http://www.w3.org/2000/svg">
<path d="M10.9646 6.74423C13.1769 5.14461 15.8934 4.39954 18.6122 4.64662C21.3311 4.8937 23.8688 6.11623 25.7565 8.08845C27.6443 10.0607 28.7547 12.6493 28.8826 15.3764C29.0105 18.1035 28.1474 20.7848 26.4525 22.925L21.9897 19.391C22.8311 18.3284 23.2597 16.9971 23.1962 15.6432C23.1327 14.2892 22.5814 13.0039 21.6441 12.0248C20.7069 11.0456 19.4469 10.4386 18.097 10.3159C16.7472 10.1932 15.3985 10.5632 14.3 11.3574L10.9646 6.74423Z" fill="url(#paint0_linear_151_26)"/>
<path d="M20.4228 11.9H4.57676C4.47046 11.9 4.38452 11.814 4.38452 11.7078V8.5655C4.38452 8.24743 4.64331 7.98865 4.96138 7.98865H9.59459C9.73731 7.98865 9.87403 8.0411 9.97991 8.13625L11.0488 9.09343C11.0841 9.12509 11.1296 9.14239 11.1773 9.14239H20.0377C20.3558 9.14239 20.6145 9.40118 20.6145 9.71925V11.7077C20.6147 11.8141 20.5286 11.9001 20.4224 11.9001L20.4228 11.9ZM4.76926 11.5154H20.2303V9.71921C20.2303 9.61304 20.144 9.52697 20.0381 9.52697H11.1777C11.035 9.52697 10.8983 9.47451 10.7927 9.37979L9.72338 8.42232C9.68766 8.39037 9.64219 8.37308 9.59489 8.37308L4.96168 8.37322C4.85579 8.37322 4.76943 8.45943 4.76943 8.56546L4.76926 11.5154Z" fill="#419FDB"/>
<path d="M19.1468 22.0115H5.8536C5.37467 22.0115 4.9747 21.6678 4.90299 21.1945L3.46395 11.7363C3.4553 11.6809 3.47149 11.6245 3.50832 11.5821C3.54473 11.5394 3.59816 11.515 3.6541 11.515H21.3462C21.4022 11.515 21.4555 11.5394 21.492 11.5821C21.5289 11.6245 21.545 11.6809 21.5364 11.7363L20.0975 21.1945C20.025 21.6678 19.6253 22.0115 19.1468 22.0115H19.1468ZM3.87788 11.8997L5.28302 21.1368C5.32543 21.4162 5.57069 21.6269 5.85363 21.6269H19.1468C19.4338 21.6269 19.6738 21.4207 19.7175 21.1368L21.1226 11.8997H3.87788Z" fill="#419FDB"/>
<path d="M12.5001 20.064C10.6803 20.064 9.19971 18.5833 9.19971 16.7636C9.19971 14.9437 10.6803 13.4634 12.5001 13.4634C14.3198 13.4634 15.8004 14.9438 15.8004 16.7636C15.8004 18.5833 14.3198 20.064 12.5001 20.064ZM12.5001 13.8479C10.8921 13.8479 9.58431 15.1558 9.58431 16.7635C9.58431 18.3715 10.8922 19.6792 12.5001 19.6792C14.108 19.6792 15.4158 18.3713 15.4158 16.7635C15.4158 15.1556 14.1081 13.8479 12.5001 13.8479Z" fill="#419FDB"/>
<path d="M12.3986 18.6765V18.3396C11.9769 18.2963 11.5983 18.1289 11.2632 17.8362L11.6001 17.4347C11.8585 17.6593 12.1244 17.7934 12.3986 17.8362V16.9409C12.0508 16.8579 11.7962 16.7489 11.6347 16.6133C11.4731 16.4781 11.3923 16.2771 11.3923 16.0109C11.3923 15.745 11.4851 15.5271 11.6714 15.3582C11.8576 15.1888 12.0999 15.0963 12.3985 15.0809L12.3986 14.8503H12.6938V15.0858C13.0323 15.1102 13.3523 15.2259 13.6539 15.4318L13.3538 15.8566C13.1506 15.712 12.9308 15.6227 12.6939 15.5888V16.4564H12.7079C13.0617 16.5394 13.3216 16.6521 13.4876 16.7933C13.654 16.9349 13.737 17.1404 13.737 17.4097C13.737 17.6789 13.6416 17.8979 13.4508 18.0673C13.2599 18.2364 13.008 18.3287 12.694 18.3441V18.6765L12.3986 18.6765ZM12.073 15.6973C11.9945 15.7663 11.9554 15.8528 11.9554 15.9556C11.9554 16.0589 11.9863 16.1401 12.0478 16.2002C12.109 16.2603 12.2262 16.3181 12.3986 16.3733V15.5748C12.26 15.5872 12.1514 15.6282 12.073 15.6973L12.073 15.6973ZM13.0447 17.721C13.1308 17.6504 13.1739 17.561 13.1739 17.4531C13.1739 17.3457 13.1401 17.2601 13.0725 17.197C13.0045 17.1342 12.8783 17.0749 12.6938 17.0194V17.8502C12.8414 17.8348 12.9582 17.792 13.0447 17.721L13.0447 17.721Z" fill="#419FDB"/>
<defs>
<linearGradient id="paint0_linear_151_26" x1="21.9186" y1="10.0065" x2="27.3538" y2="18.6446" gradientUnits="userSpaceOnUse">
<stop stop-color="#419FDB"/>
<stop offset="1" stop-color="#3CACFD" stop-opacity="0"/>
</linearGradient>
</defs>
</svg>
