<svg width="24" height="24" viewBox="0 0 24 24" fill="none" xmlns="http://www.w3.org/2000/svg">
<path d="M7.86912 -1.25577C10.0815 -2.85539 12.7979 -3.60046 15.5168 -3.35338C18.2357 -3.1063 20.7733 -1.88377 22.6611 0.088448C24.5488 2.06067 25.6592 4.64935 25.7871 7.37642C25.9151 10.1035 25.0519 12.7848 23.357 14.925L18.8942 11.391C19.7357 10.3284 20.1642 8.99714 20.1007 7.64317C20.0372 6.2892 19.4859 5.00395 18.5487 4.02476C17.6114 3.04557 16.3515 2.43859 15.0016 2.31592C13.6517 2.19325 12.303 2.56317 11.2046 3.35736L7.86912 -1.25577Z" fill="url(#paint0_linear_151_27)"/>
<path fill-rule="evenodd" clip-rule="evenodd" d="M3.6001 3.2C3.6001 2.53733 4.13742 2 4.8001 2H19.2001C19.8628 2 20.4001 2.53733 20.4001 3.2V12.8C20.4001 13.4628 19.8628 14 19.2001 14H15.6001V13.2H19.2001C19.4209 13.2 19.6001 13.021 19.6001 12.8V3.2C19.6001 2.97915 19.4209 2.80009 19.2001 2.80009H4.8001C4.57925 2.80009 4.40005 2.97916 4.40005 3.2V12.8C4.40005 13.021 4.57925 13.2 4.8001 13.2H8.4001V14H4.8001C4.13742 14 3.6001 13.4628 3.6001 12.8V3.2Z" fill="#50F55F"/>
<path fill-rule="evenodd" clip-rule="evenodd" d="M20 5.59988H4.00024V4.79993H20V5.59988Z" fill="#50F55F"/>
<path fill-rule="evenodd" clip-rule="evenodd" d="M11.2001 11.2001H6.40015V10.4H11.2001V11.2001Z" fill="#50F55F"/>
<path fill-rule="evenodd" clip-rule="evenodd" d="M16.8 9.6C16.3582 9.6 16 9.95812 16 10.4C16 10.8418 16.3582 11.2 16.8 11.2C17.2418 11.2 17.6 10.8418 17.6 10.4C17.6 9.95812 17.2418 9.6 16.8 9.6ZM15.2 10.4C15.2 9.51631 15.9164 8.80005 16.8 8.80005C17.6836 8.80005 18.4 9.51631 18.4 10.4C18.4 11.2836 17.6836 12 16.8 12C15.9164 12 15.2 11.2836 15.2 10.4Z" fill="#50F55F"/>
<path fill-rule="evenodd" clip-rule="evenodd" d="M11.7173 12.517C11.8735 12.3609 12.1269 12.3609 12.2831 12.517L13.8831 14.1171L13.3174 14.6828L12.4002 13.7656V16.7999H11.6002V13.7656L10.6831 14.6828L10.1174 14.1171L11.7173 12.517Z" fill="#50F55F"/>
<defs>
<linearGradient id="paint0_linear_151_27" x1="18.8232" y1="2.00645" x2="24.2583" y2="10.6446" gradientUnits="userSpaceOnUse">
<stop stop-color="#33EC46" stop-opacity="0.77"/>
<stop offset="1" stop-color="#33EC46" stop-opacity="0"/>
</linearGradient>
</defs>
</svg>
