<svg width="34" height="32" viewBox="0 0 34 32" fill="none" xmlns="http://www.w3.org/2000/svg">
<path d="M10.9072 6.74423C13.1196 5.14461 15.836 4.39954 18.5549 4.64662C21.2737 4.8937 23.8114 6.11623 25.6991 8.08845C27.5869 10.0607 28.6973 12.6493 28.8252 15.3764C28.9531 18.1035 28.09 20.7848 26.3951 22.925L21.9323 19.391C22.7738 18.3284 23.2023 16.9971 23.1388 15.6432C23.0753 14.2892 22.524 13.0039 21.5867 12.0248C20.6495 11.0456 19.3896 10.4386 18.0397 10.3159C16.6898 10.1932 15.3411 10.5632 14.2427 11.3574L10.9072 6.74423Z" fill="url(#paint0_linear_151_25)"/>
<path d="M24.4285 14.885C24.4279 14.8483 24.4219 14.812 24.4106 14.777C24.4106 14.7713 24.4054 14.7665 24.4034 14.7604V14.7574V14.7576C24.3994 14.7469 24.3949 14.7365 24.3895 14.7265C24.3792 14.7042 24.3666 14.6831 24.352 14.6635C24.3448 14.6545 24.3381 14.6459 24.3303 14.6372C24.3224 14.6285 24.3216 14.6252 24.316 14.62C24.2896 14.5939 24.2595 14.5718 24.2265 14.5547L18.8483 11.8066C18.8073 11.7864 18.763 11.7737 18.7174 11.7691C18.7102 11.7691 18.7035 11.7691 18.696 11.767C18.6531 11.7645 18.6101 11.7697 18.5689 11.7824C18.5626 11.7842 18.5569 11.7872 18.5509 11.7896L18.551 11.7894C18.5338 11.7946 18.5172 11.8011 18.5011 11.809L16.304 12.9827H16.3039C16.2056 12.1596 15.9578 11.3614 15.5726 10.6273C14.9793 9.52852 13.5942 8.37991 13.0129 7.92725C13.5926 6.84459 13.7932 5.88952 13.5406 5.33606C13.453 5.12111 13.2642 4.96408 13.037 4.9172C12.7134 4.8874 12.3873 4.89812 12.0663 4.94901C11.7297 5.00225 11.3875 5.01347 11.048 4.98249C10.8374 4.90733 10.6311 4.82061 10.4302 4.72251C9.41439 4.25896 8.71728 3.97469 8.29274 4.22781V4.22797C8.126 4.32825 8.02103 4.50588 8.01383 4.70039C7.97114 5.35546 8.70156 7.18143 9.01476 7.92959H9.01459C8.16131 8.75373 7.36442 9.63432 6.62933 10.5655C4.82449 12.7311 5.68549 16.2578 6.67437 17.6232C7.28675 18.4688 8.53128 18.6394 9.43548 18.6394C9.72276 18.6394 10.0099 18.6226 10.2953 18.5895V20.7417C10.2951 20.8825 10.374 21.0116 10.4994 21.0759L15.8766 23.825C15.9295 23.8521 15.988 23.8661 16.0472 23.8661C16.109 23.8663 16.1696 23.8509 16.2239 23.8216L24.2296 19.5466C24.261 19.5299 24.2898 19.5084 24.3151 19.4832C24.3196 19.479 24.3223 19.4738 24.3263 19.4693C24.3516 19.442 24.3724 19.411 24.3883 19.3775C24.3935 19.367 24.3982 19.3563 24.4022 19.3452C24.4186 19.304 24.4274 19.2602 24.4283 19.2158L24.4285 14.885ZM16.0435 18.742L11.481 16.4098L13.9185 15.1073L18.484 17.438L16.0435 18.742ZM18.6809 12.5637L23.2435 14.8959L20.8236 16.1884L16.2606 13.8566L18.6809 12.5637ZM15.4559 14.2887L20.0172 16.6189L19.2905 17.0069L14.7249 14.6767L15.4559 14.2887ZM19.6124 20.3204C19.6122 20.3184 19.6122 20.3164 19.6124 20.3144V18.9873C19.6122 18.9851 19.6122 18.9828 19.6124 18.9806V17.6849L20.5124 17.2049V20.6812L19.6124 21.1623V20.3204ZM21.2624 19.6998L22.2667 19.1632C22.4499 19.0651 22.519 18.8373 22.4209 18.6541C22.323 18.471 22.0951 18.4019 21.912 18.4998L21.2614 18.8473L21.2612 16.8044L23.6785 15.5134V16.2214L22.0333 17.0999C21.9444 17.1461 21.8774 17.226 21.8478 17.3219C21.8182 17.4177 21.8281 17.5215 21.8754 17.6099C21.9228 17.6983 22.0037 17.764 22.0998 17.7925C22.196 17.821 22.2997 17.8096 22.3874 17.761L23.6796 17.0715V18.99L21.2624 20.2807L21.2624 19.6998ZM10.1191 5.40568C10.361 5.52655 10.6118 5.62867 10.8691 5.7112C11.2925 5.7708 11.7224 5.76561 12.1441 5.6958C12.3822 5.66349 12.622 5.64842 12.8623 5.65043C12.9482 5.8165 12.9448 6.50539 12.3025 7.6657L9.76558 7.77335C9.34621 6.84386 9.01322 5.87778 8.77065 4.88735C9.23556 5.01726 9.68706 5.19069 10.1191 5.40566L10.1191 5.40568ZM7.28265 17.1841C6.44042 16.0216 5.67015 12.8881 7.20765 11.047C7.90858 10.1677 8.65995 9.32985 9.45765 8.53746L12.4123 8.41257C12.8217 8.72379 14.3398 9.92196 14.9142 10.9855C15.2971 11.7258 15.5268 12.5356 15.5892 13.3667L10.4939 16.0861C10.4626 16.1034 10.4337 16.1248 10.4081 16.1499C10.4047 16.1536 10.402 16.1581 10.3987 16.162C10.3731 16.1898 10.3516 16.2214 10.3354 16.2557C10.3305 16.2666 10.326 16.2772 10.3218 16.2884V16.2882C10.3064 16.3276 10.2981 16.3691 10.2971 16.4113V17.8353C9.58691 17.9376 7.8701 17.9965 7.28249 17.1842L7.28265 17.1841ZM16.0435 23.068L11.0464 20.5135V17.03L15.6724 19.3943V22.0568H15.6722C15.6722 22.2641 15.8401 22.4318 16.0472 22.4318C16.2543 22.4318 16.4222 22.2641 16.4222 22.0568V19.3895L18.8624 18.0875V18.7952L17.5161 19.5125C17.3333 19.61 17.264 19.8371 17.3614 20.0201C17.4588 20.2029 17.6862 20.2723 17.869 20.1748L18.8624 19.6438V20.1268L17.1861 21.0234C17.0035 21.121 16.9345 21.3484 17.0323 21.531C17.1299 21.7137 17.3571 21.7827 17.5399 21.6849L18.8624 20.9772V21.5618L16.0435 23.068ZM14.1554 20.1768L11.8642 19.0056H11.8641C11.6796 18.9113 11.6064 18.6853 11.7005 18.5007C11.7948 18.3162 12.0208 18.243 12.2054 18.3373L14.4966 19.5085V19.5083C14.6811 19.6026 14.7543 19.8286 14.6602 20.013C14.5659 20.1977 14.3399 20.2709 14.1554 20.1766L14.1554 20.1768ZM15.1244 21.5861V21.5859C15.0792 21.6744 15.0005 21.7416 14.9059 21.7722C14.8112 21.8028 14.7082 21.7946 14.6196 21.7494L12.2741 20.5494H12.2739C12.0896 20.4552 12.0164 20.2292 12.1107 20.0449C12.2049 19.8604 12.4308 19.7872 12.6152 19.8815L14.9608 21.0815C15.1451 21.1757 15.2185 21.4014 15.1244 21.5859L15.1244 21.5861ZM10.1401 15.2749H10.004V15.4842H10.0038C10.0038 15.6913 9.83608 15.8592 9.62883 15.8592C9.42175 15.8592 9.25383 15.6913 9.25383 15.4842V15.2749H9.11773C8.8636 15.2747 8.61986 15.1736 8.44007 14.994C8.26044 14.8142 8.15915 14.5706 8.15899 14.3165C8.15899 14.1092 8.3269 13.9415 8.53399 13.9415C8.74107 13.9415 8.90899 14.1092 8.90899 14.3165C8.90932 14.4315 9.00274 14.5247 9.11775 14.5249H10.1401C10.3358 14.5247 10.4945 14.366 10.4948 14.1701V13.8784C10.4948 13.6823 10.3361 13.5233 10.1401 13.5229H9.11775C8.82495 13.5226 8.54402 13.4061 8.33693 13.199C8.12985 12.9919 8.01333 12.711 8.01299 12.4182V12.1264C8.01333 11.8334 8.12968 11.5525 8.33677 11.3452C8.54402 11.1381 8.82478 11.0215 9.11775 11.0213H9.25386V10.8124C9.25386 10.6053 9.42177 10.4374 9.62886 10.4374C9.83611 10.4374 10.0039 10.6053 10.0039 10.8124V11.0213H10.1401C10.3946 11.0213 10.6387 11.1222 10.8186 11.3022C10.9986 11.482 11.0999 11.7261 11.1001 11.9805C11.1001 12.1876 10.9321 12.3555 10.7251 12.3555C10.518 12.3555 10.3501 12.1876 10.3501 11.9805C10.3499 11.8652 10.2565 11.7718 10.1411 11.7716H9.11775C8.92188 11.7718 8.76301 11.9308 8.76301 12.1267V12.4185C8.76334 12.6144 8.92205 12.7731 9.11775 12.7732H10.1401C10.4331 12.7737 10.7138 12.8904 10.9209 13.0977C11.128 13.3049 11.2445 13.5857 11.2449 13.8787V14.1705C11.2444 14.4633 11.1278 14.744 10.9208 14.9511C10.7137 15.1582 10.4329 15.2745 10.1401 15.2749L10.1401 15.2749ZM15.6725 6.57062V5.00616C15.6725 4.79908 15.8404 4.63116 16.0475 4.63116C16.2546 4.63116 16.4225 4.79908 16.4225 5.00616V6.57062C16.4225 6.77771 16.2546 6.94562 16.0475 6.94562C15.8404 6.94562 15.6725 6.77771 15.6725 6.57062ZM18.2252 7.56855C18.149 7.5046 18.1013 7.41302 18.0926 7.31392C18.0841 7.21481 18.115 7.11637 18.179 7.0402L19.3703 5.6194L19.3705 5.61923C19.5035 5.46053 19.7403 5.43977 19.899 5.57303C20.0577 5.70612 20.0784 5.94284 19.9453 6.10154L18.7539 7.52234C18.6899 7.59868 18.5983 7.64623 18.4992 7.65494C18.4001 7.66364 18.3017 7.6325 18.2255 7.56855L18.2252 7.56855ZM19.2399 9.44089H20.8877C21.0948 9.44089 21.2627 9.60881 21.2627 9.81589C21.2627 10.023 21.0948 10.1909 20.8877 10.1909H19.2414C19.0343 10.1909 18.8664 10.023 18.8664 9.81589C18.8664 9.60881 19.0343 9.44089 19.2414 9.44089H19.2399Z" fill="#FDA53C"/>
<defs>
<linearGradient id="paint0_linear_151_25" x1="21.8613" y1="10.0065" x2="27.2964" y2="18.6446" gradientUnits="userSpaceOnUse">
<stop stop-color="#FDA53C"/>
<stop offset="1" stop-color="#FDC73C" stop-opacity="0"/>
</linearGradient>
</defs>
</svg>
