<svg width="32" height="33" viewBox="0 0 32 33" fill="none" xmlns="http://www.w3.org/2000/svg">
<path d="M9.28171 6.74423C11.4941 5.14461 14.2105 4.39954 16.9294 4.64662C19.6483 4.8937 22.1859 6.11623 24.0737 8.08845C25.9614 10.0607 27.0718 12.6493 27.1997 15.3764C27.3277 18.1035 26.4645 20.7848 24.7696 22.925L20.3068 19.391C21.1483 18.3284 21.5768 16.9971 21.5133 15.6432C21.4498 14.2892 20.8985 13.0039 19.9613 12.0248C19.024 11.0456 17.7641 10.4386 16.4142 10.3159C15.0643 10.1932 13.7156 10.5632 12.6172 11.3574L9.28171 6.74423Z" fill="url(#paint0_linear_151_24)"/>
<path d="M7.14379 25.2481H21.1252C21.2578 25.2481 21.3652 25.1407 21.3652 25.0081V15.0432C21.3652 14.9106 21.2578 14.8032 21.1252 14.8032H20.121C20.1333 14.6742 20.1416 14.5443 20.1416 14.4133C20.1416 12.1738 18.3196 10.3517 16.08 10.3517C15.6527 10.3517 15.2411 10.4189 14.8539 10.5418C14.4594 10.4174 14.0487 10.3517 13.6306 10.3517C13.2304 10.3517 12.8444 10.4121 12.4789 10.5204C12.1054 10.4097 11.7176 10.3517 11.324 10.3517C9.0846 10.3517 7.26244 12.1737 7.26244 14.4133C7.26244 14.5443 7.27058 14.6742 7.28309 14.8032H7.14387C6.31203 14.8032 5.63538 15.48 5.63538 16.3117V23.7394C5.63507 24.5712 6.31188 25.248 7.14371 25.248L7.14379 25.2481ZM20.8849 23.4047H20.0887V19.3003H20.8849V23.4047ZM20.8849 15.2831V17.3402H18.8936C19.4742 16.7823 19.8737 16.0663 20.0453 15.2831H20.8849ZM16.0796 10.8316C18.0545 10.8316 19.6611 12.4381 19.6611 14.413C19.6611 15.5798 19.0935 16.6679 18.1411 17.3401H14.0178C13.0655 16.6681 12.498 15.5799 12.498 14.413C12.4982 12.4382 14.1049 10.8316 16.0796 10.8316H16.0796ZM13.6303 10.8316C13.7908 10.8316 13.9498 10.8448 14.1071 10.8658C12.8627 11.5607 12.0182 12.8894 12.0182 14.4131C12.0182 15.5286 12.4754 16.5805 13.2657 17.3402H11.5687C10.6164 16.6682 10.049 15.5801 10.049 14.4131C10.049 12.4382 11.6555 10.8316 13.6304 10.8316L13.6303 10.8316ZM11.3237 10.8316C11.4438 10.8316 11.5629 10.8397 11.6814 10.8515C10.4238 11.5424 9.56902 12.8796 9.56902 14.4131C9.56902 15.5285 10.0263 16.5805 10.8166 17.3402H9.26227C8.3099 16.6681 7.74232 15.5801 7.74232 14.4131C7.74217 12.4382 9.3489 10.8316 11.3238 10.8316L11.3237 10.8316ZM7.14337 15.2831H7.35807C7.52968 16.0663 7.92928 16.7823 8.50978 17.3402H7.1435C6.57638 17.3402 6.11488 16.8788 6.11488 16.3116C6.11473 15.7444 6.57607 15.2831 7.14334 15.2831H7.14337ZM6.11475 17.4142C6.38444 17.6659 6.7462 17.8201 7.14337 17.8201H20.8844V18.8204L7.14337 18.8205C6.57625 18.8205 6.11475 18.359 6.11475 17.7919V17.4142ZM19.6086 19.3004V23.4044L7.38336 23.4045V19.3002L19.6086 19.3004ZM6.11475 18.8924C6.329 19.0928 6.60109 19.2309 6.90334 19.2796V23.3736C6.45209 23.2648 6.11475 22.8604 6.11475 22.3762V18.8924ZM6.11475 23.4766C6.38459 23.729 6.74558 23.8848 7.14337 23.8848H20.8844V24.7683L7.14337 24.7681C6.57625 24.7681 6.11475 24.3068 6.11475 23.7395V23.4766Z" fill="#F30C2B"/>
<path d="M15.5648 14.6534H15.8399V15.9704H14.8337C14.7011 15.9704 14.5937 16.0778 14.5937 16.2104C14.5937 16.343 14.7011 16.4504 14.8337 16.4504H15.8399V17.0192C15.8399 17.1518 15.9473 17.2592 16.0799 17.2592C16.2125 17.2592 16.3199 17.1518 16.3199 17.0192V16.4504H16.595C17.3056 16.4504 17.8836 15.9397 17.8836 15.3118C17.8836 14.684 17.3056 14.1733 16.595 14.1733H16.3199V12.8563H17.3263C17.4588 12.8563 17.5663 12.7489 17.5663 12.6163C17.5663 12.4837 17.4588 12.3763 17.3263 12.3763H16.3199V11.8076C16.3199 11.6751 16.2125 11.5676 16.0799 11.5676C15.9473 11.5676 15.8399 11.6751 15.8399 11.8076V12.3764H15.5648C14.8542 12.3764 14.2762 12.8872 14.2762 13.5149C14.2762 14.1426 14.8542 14.6534 15.5648 14.6534ZM16.3199 14.6534H16.595C17.0409 14.6534 17.4035 14.9488 17.4035 15.3118C17.4035 15.6749 17.0409 15.9704 16.595 15.9704H16.3199V14.6534ZM15.5648 12.8563H15.8399V14.1733H15.5648C15.1189 14.1733 14.7563 13.8779 14.7563 13.5148C14.7563 13.1518 15.1189 12.8564 15.5648 12.8564V12.8563Z" fill="#F30C2B"/>
<defs>
<linearGradient id="paint0_linear_151_24" x1="20.2358" y1="10.0065" x2="25.6709" y2="18.6446" gradientUnits="userSpaceOnUse">
<stop stop-color="#FD3C3C" stop-opacity="0.77"/>
<stop offset="1" stop-color="#FD3C3C" stop-opacity="0"/>
</linearGradient>
</defs>
</svg>
