<svg width="28" height="28" viewBox="0 0 28 28" fill="none" xmlns="http://www.w3.org/2000/svg">
<path d="M23.6748 27.5H18.1248V23.225H23.6748V27.5ZM7.94983 19.9V27.5H7.02483V20.0965L8.41233 18.6715L10.8602 21.1856V21.1858C10.947 21.2748 11.0647 21.3249 11.1873 21.3249H14.8873V22.2749H13.0373V23.2249H14.8873V27.4999H8.8748V19.8999L7.94983 19.9ZM5.63733 21.325C5.75997 21.325 5.87767 21.2749 5.96438 21.1859L6.09983 21.0465V27.5H4.71233V21.325L5.63733 21.325ZM17.1998 21.325V22.275H15.8123V21.325H17.1998ZM15.8123 23.225H17.1998V27.5H15.8123V23.225ZM23.6748 22.275H18.1248V21.325H23.6748V22.275ZM23.9459 18.475L25.7959 20.375H11.3786L9.52861 18.475H23.9459ZM3.05361 18.475H7.29561L5.44561 20.375H1.20361L3.05361 18.475ZM2.86221 21.325H3.78721V27.5H2.86221V21.325Z" fill="#F3361A"/>
<path d="M11.1875 22.275H12.1125V23.225H11.1875V22.275Z" fill="#F3361A"/>
<path d="M13.0376 10.875H13.9626V16.575H13.0376V10.875Z" fill="#F3361A"/>
<path d="M14.8872 16.575H15.8122V14.675C15.8122 14.4231 15.9097 14.1814 16.0831 14.0032C16.2565 13.8251 16.4919 13.725 16.7372 13.725V12.775C16.2466 12.775 15.7761 12.9752 15.429 13.3315C15.0821 13.6879 14.8872 14.1712 14.8872 14.675V16.575Z" fill="#F3361A"/>
<path d="M12.1122 16.5751V13.7251C12.1122 13.2212 11.9173 12.7379 11.5704 12.3815C11.2233 12.0253 10.7528 11.8251 10.2622 11.8251V12.7751C10.5075 12.7751 10.7429 12.8752 10.9163 13.0533C11.0897 13.2314 11.1872 13.4732 11.1872 13.7251V16.5751H12.1122Z" fill="#F3361A"/>
<path d="M0.549805 1.375H1.4748V2.325H0.549805V1.375Z" fill="#F3361A"/>
<path d="M3.7876 3.75H4.7126V4.7H3.7876V3.75Z" fill="#F3361A"/>
<path d="M0.0874023 16.5751H1.0124V17.5251H0.0874023V16.5751Z" fill="#F3361A"/>
<path d="M26.4497 16.5751H27.3747V17.5251H26.4497V16.5751Z" fill="#F3361A"/>
<path d="M19.9751 0.900024H20.9001V1.85002H19.9751V0.900024Z" fill="#F3361A"/>
<path d="M24.6001 4.22498H25.5251V5.17498H24.6001V4.22498Z" fill="#F3361A"/>
<path d="M24.6001 22.275H25.9876V23.225H24.6001V22.275Z" fill="#F3361A"/>
<path d="M7.32867 8.66286C6.51514 7.82756 5.36983 7.42829 4.22928 7.58246C3.08894 7.73662 2.08318 8.42666 1.50798 9.44978C0.93274 10.473 0.853666 11.7124 1.29387 12.804C1.73407 13.8955 2.64337 14.7144 3.75442 15.0204C4.86564 15.3262 6.05207 15.0838 6.96465 14.3648C7.87728 13.6455 8.41225 12.5314 8.41225 11.35C8.41493 10.3417 8.0247 9.37411 7.32868 8.66286H7.32867ZM6.34769 13.7012L5.97315 13.3166H5.97294C5.72559 13.4525 5.4421 13.5027 5.1646 13.4599C4.8871 13.4171 4.63048 13.2835 4.43284 13.0791L4.3866 13.0316L5.04049 12.36L5.08674 12.4075V12.4073C5.24118 12.5655 5.49122 12.5655 5.64544 12.4073L5.74124 12.3089V12.3091C5.8707 12.1759 5.89424 11.969 5.79782 11.8089C5.7016 11.649 5.51082 11.5779 5.33697 11.6373L4.37999 11.9645L4.38019 11.9647C4.04612 12.0801 3.68089 12.0529 3.36661 11.8894C3.05215 11.7259 2.81488 11.4397 2.70774 11.0946C2.60079 10.7498 2.6332 10.3754 2.79735 10.0552L2.42281 9.67052L3.07671 8.99873L3.45125 9.3834H3.45145C3.69943 9.2498 3.9823 9.2006 4.25937 9.24323C4.53626 9.28606 4.7927 9.41839 4.99155 9.6209L5.0378 9.6684L4.38391 10.34L4.33766 10.2925V10.2927C4.18321 10.1345 3.93318 10.1345 3.77896 10.2927L3.68315 10.3911V10.3909C3.55369 10.524 3.53016 10.731 3.62658 10.8911C3.7228 11.051 3.91358 11.122 4.08743 11.0626L5.04441 10.7354L5.0442 10.7352C5.37827 10.6199 5.74334 10.647 6.05758 10.8105C6.37181 10.974 6.60909 11.2603 6.71623 11.6051C6.82318 11.9497 6.79098 12.3242 6.62704 12.6444L7.00158 13.0291L6.34769 13.7012Z" fill="#F3361A"/>
<path d="M25.3663 8.66286C24.5527 7.82756 23.4074 7.42829 22.2669 7.58246C21.1265 7.73662 20.1208 8.42666 19.5456 9.44978C18.9703 10.473 18.8913 11.7124 19.3315 12.804C19.7717 13.8955 20.681 14.7144 21.792 15.0204C22.9032 15.3262 24.0897 15.0838 25.0022 14.3648C25.9149 13.6455 26.4498 12.5314 26.4498 11.35C26.4525 10.3417 26.0623 9.37411 25.3663 8.66286H25.3663ZM24.4328 11.635L24.3866 11.6825L23.7327 11.0109L23.7789 10.9634C23.9329 10.8048 23.9329 10.548 23.7789 10.3896L23.6831 10.2912C23.5536 10.1583 23.3521 10.1341 23.1962 10.2331C23.0404 10.332 22.9712 10.5279 23.0292 10.7064L23.3478 11.6893V11.6891C23.462 12.0324 23.4366 12.4081 23.2774 12.732C23.1184 13.0555 22.839 13.2998 22.5025 13.4094C22.1662 13.5191 21.8007 13.4849 21.4891 13.3147L21.1146 13.6993L20.4605 13.0296L20.835 12.645V12.6448C20.7049 12.3901 20.6572 12.0996 20.6987 11.815C20.7405 11.5307 20.8691 11.2673 21.0663 11.063L21.1125 11.0155L21.7664 11.6871L21.7202 11.7346H21.7204C21.5663 11.8932 21.5663 12.15 21.7204 12.3084L21.8162 12.4068H21.816C21.9456 12.5398 22.1471 12.5639 22.303 12.4649C22.4587 12.3661 22.5279 12.1702 22.4701 11.9916L22.1515 11.0088L22.1513 11.009C22.039 10.6659 22.0654 10.2909 22.2246 9.96821C22.3838 9.64548 22.6625 9.40179 22.9982 9.29176C23.3338 9.18191 23.6984 9.21499 24.0102 9.38336L24.3847 8.9987L25.0386 9.67027L24.6641 10.0549V10.0551C24.7938 10.3096 24.8413 10.5997 24.7997 10.8839C24.7582 11.1678 24.6296 11.431 24.4328 11.635L24.4328 11.635Z" fill="#F3361A"/>
<path d="M13.9622 1.375C12.9809 1.375 12.0397 1.77536 11.346 2.48807C10.652 3.20057 10.2622 4.16713 10.2622 5.175C10.2622 6.18287 10.652 7.14943 11.346 7.86193C12.0397 8.57464 12.9809 8.975 13.9622 8.975C14.9436 8.975 15.8847 8.57464 16.5784 7.86193C17.2724 7.14943 17.6622 6.18287 17.6622 5.175C17.6612 4.16751 17.2709 3.20161 16.5772 2.48932C15.8837 1.77682 14.9432 1.37603 13.9622 1.375ZM15.3497 4.225H14.4247V4.15566C14.4245 3.93173 14.2478 3.75021 14.0297 3.75H13.8947C13.7111 3.74979 13.5515 3.87935 13.5096 4.06278C13.4675 4.2462 13.554 4.43515 13.7186 4.51911L14.62 4.98181L14.6198 4.9816C14.9353 5.14276 15.1746 5.42712 15.284 5.77086C15.3937 6.1146 15.3644 6.48928 15.2029 6.81076C15.0414 7.13223 14.761 7.37376 14.4247 7.48108V8.02502H13.4997V7.48108C13.2323 7.39541 12.9986 7.22449 12.8324 6.99314C12.6659 6.76179 12.5757 6.48188 12.5747 6.19433V6.12499H13.4997V6.19433C13.4999 6.41826 13.6766 6.59978 13.8947 6.59999H14.0297C14.2133 6.6002 14.3729 6.47064 14.4148 6.28721C14.4569 6.10379 14.3704 5.91484 14.2058 5.83087L13.3043 5.36818L13.3045 5.36839C12.9891 5.20722 12.7498 4.92286 12.6403 4.57913C12.5307 4.23539 12.56 3.86071 12.7215 3.53923C12.883 3.21776 13.1633 2.97623 13.4997 2.86891V2.32497H14.4247V2.86891C14.6921 2.95458 14.9258 3.1255 15.092 3.35685C15.2584 3.5882 15.3487 3.86811 15.3497 4.15566V4.225Z" fill="#F3361A"/>
</svg>
