<svg width="21" height="22" viewBox="0 0 21 22" fill="none" xmlns="http://www.w3.org/2000/svg">
<path d="M11.3324 8.55415L7.94098 11.9456C7.86151 12.0244 7.79844 12.1181 7.75539 12.2215C7.71235 12.3248 7.69019 12.4356 7.69019 12.5475C7.69019 12.6595 7.71235 12.7703 7.75539 12.8736C7.79844 12.9769 7.86151 13.0707 7.94098 13.1495C8.0198 13.229 8.11357 13.292 8.21689 13.3351C8.32021 13.3781 8.43102 13.4003 8.54295 13.4003C8.65488 13.4003 8.7657 13.3781 8.86901 13.3351C8.97233 13.292 9.06611 13.229 9.14492 13.1495L12.5363 9.7581C12.696 9.59845 12.7857 9.38191 12.7857 9.15613C12.7857 8.93034 12.696 8.71381 12.5363 8.55415C12.3767 8.3945 12.1601 8.30481 11.9343 8.30481C11.7086 8.30481 11.492 8.3945 11.3324 8.55415V8.55415Z" fill="#272727"/>
<path d="M10.476 15.4301L9.39072 16.5068C8.78148 17.1346 7.96247 17.5162 7.08991 17.5787C6.21734 17.6413 5.35228 17.3804 4.65972 16.846C4.29368 16.5444 3.99498 16.1693 3.78291 15.745C3.57084 15.3208 3.45012 14.8568 3.42855 14.383C3.40697 13.9091 3.48503 13.4361 3.65767 12.9943C3.8303 12.5525 4.09369 12.1519 4.4308 11.8182L5.63475 10.6058C5.71422 10.527 5.77729 10.4332 5.82034 10.3299C5.86338 10.2266 5.88554 10.1158 5.88554 10.0038C5.88554 9.89191 5.86338 9.78109 5.82034 9.67777C5.77729 9.57445 5.71422 9.48068 5.63475 9.40186C5.55593 9.32239 5.46216 9.25932 5.35884 9.21627C5.25552 9.17323 5.1447 9.15107 5.03278 9.15107C4.92085 9.15107 4.81003 9.17323 4.70671 9.21627C4.6034 9.25932 4.50962 9.32239 4.4308 9.40186L3.35404 10.4871C2.44697 11.3655 1.88945 12.5432 1.78498 13.8015C1.68051 15.0598 2.03618 16.3133 2.78598 17.3293C3.23099 17.9066 3.79376 18.3826 4.4369 18.7257C5.08003 19.0688 5.78881 19.2711 6.51616 19.3193C7.2435 19.3674 7.97276 19.2602 8.65548 19.0048C9.33821 18.7494 9.95878 18.3516 10.476 17.838L11.6799 16.634C11.8396 16.4744 11.9293 16.2578 11.9293 16.032C11.9293 15.8063 11.8396 15.5897 11.6799 15.4301C11.5203 15.2704 11.3037 15.1807 11.0779 15.1807C10.8522 15.1807 10.6356 15.2704 10.476 15.4301V15.4301ZM16.7331 3.40757C15.7102 2.64998 14.4464 2.29068 13.1779 2.39678C11.9094 2.50288 10.723 3.06712 9.84008 3.9841L8.92441 4.91674C8.81975 4.99282 8.73223 5.09004 8.66752 5.20209C8.60281 5.31414 8.56236 5.43853 8.54877 5.5672C8.53518 5.69588 8.54877 5.82598 8.58865 5.94907C8.62853 6.07216 8.69381 6.18551 8.78027 6.28178C8.85909 6.36124 8.95286 6.42432 9.05618 6.46736C9.1595 6.51041 9.27032 6.53257 9.38224 6.53257C9.49417 6.53257 9.60499 6.51041 9.70831 6.46736C9.81163 6.42432 9.9054 6.36124 9.98422 6.28178L11.0864 5.17109C11.6923 4.54056 12.5103 4.15693 13.3825 4.09429C14.2547 4.03165 15.1192 4.29446 15.8089 4.83195C16.1777 5.13362 16.4788 5.5096 16.6925 5.9354C16.9063 6.3612 17.0279 6.82725 17.0495 7.3032C17.0711 7.77915 16.9922 8.25431 16.8179 8.69772C16.6436 9.14113 16.3778 9.54283 16.0379 9.87666L14.8339 11.0891C14.7544 11.1679 14.6914 11.2617 14.6483 11.365C14.6053 11.4683 14.5831 11.5791 14.5831 11.6911C14.5831 11.803 14.6053 11.9138 14.6483 12.0171C14.6914 12.1204 14.7544 12.2142 14.8339 12.293C14.9127 12.3725 15.0065 12.4356 15.1098 12.4786C15.2131 12.5217 15.324 12.5438 15.4359 12.5438C15.5478 12.5438 15.6586 12.5217 15.762 12.4786C15.8653 12.4356 15.959 12.3725 16.0379 12.293L17.2418 11.0891C17.754 10.572 18.1506 9.95195 18.4051 9.27005C18.6596 8.58816 18.7664 7.85996 18.7183 7.1337C18.6702 6.40743 18.4684 5.69967 18.1261 5.0573C17.7839 4.41493 17.309 3.8526 16.7331 3.40757V3.40757Z" fill="#272727"/>
</svg>
