<svg width="27" height="26" viewBox="0 0 27 26" fill="none" xmlns="http://www.w3.org/2000/svg">
<path d="M13.9296 25.0752H26.672C26.672 23.632 25.8271 22.3648 24.5599 21.7664C22.272 20.7103 18.6464 19.4785 18.6464 19.4785C18.6464 19.4785 18.3648 18.2817 18.048 17.7185C17.7664 17.1201 17.4497 17.4368 17.4497 17.4368L17.5201 15.3601C18.7169 14.4801 18.7169 12.4034 18.7169 12.4034C18.7169 12.4034 18.9985 12.1217 19.3152 10.6434C19.5969 9.16497 19.0336 9.16497 19.0336 9.16497C19.0334 9.16497 19.9838 5.85611 19.2799 4.44799C18.752 3.35685 18.0127 2.47685 16.8159 1.98405C16.8159 1.98405 14.1055 0.751923 12.9438 0.927986C10.4799 1.28009 10.4799 3.04011 10.4799 3.04011C9.28314 3.5329 8.82547 2.96964 8.36775 4.09617C7.17101 7.05291 8.33264 9.05944 8.33264 9.05944C8.33264 9.05944 7.73427 9.05944 8.051 10.5378C8.33264 12.0162 8.64937 12.2978 8.64937 12.2978C8.64937 12.2978 8.64937 14.3746 9.84611 15.2546L9.91658 17.3313C9.91658 17.3313 9.63495 17.0497 9.31821 17.6129C9.03658 18.2113 8.71984 19.3729 8.71984 19.3729C8.71984 19.3729 5.02378 20.6753 2.73591 21.7313C1.43357 22.3297 0.623779 23.632 0.623779 25.0402H13.9294L13.9296 25.0752Z" fill="#F30C2B"/>
</svg>
