<svg width="36" height="25" viewBox="0 0 36 25" fill="none" xmlns="http://www.w3.org/2000/svg">
<path d="M18.1402 13.7178C18.1402 13.7178 20.1751 13.6853 20.0488 8.30599C19.9225 2.92666 22.3976 2.04634 23.3212 1.69651C26.0125 0.686565 27.3619 2.31007 27.3619 2.31007C30.4791 2.0214 31.3307 5.4272 30.9698 9.30224C30.6089 13.1771 32.7015 13.7831 32.7015 13.7831C31.2403 15.2768 28.1557 15.1829 28.1557 15.1829V16.5613C28.1554 16.8296 28.2913 17.0795 28.5163 17.2252L28.6102 17.2829C29.6926 17.8494 31.915 18.4375 31.9583 18.4592C32.6859 18.6567 33.3926 18.9237 34.0688 19.2564C34.8769 19.6344 35.4253 20.4108 35.5121 21.2984V24.4626H25.4281V21.1144C25.4369 19.914 24.9074 18.7727 23.9848 18.0046C23.5411 17.6437 23.0937 17.2831 22.65 16.9654C22.7192 16.8421 22.7542 16.7027 22.7509 16.5613V15.2156C19.1971 15.2445 18.1402 13.7182 18.1402 13.7182L18.1402 13.7178ZM23.7575 21.1139C23.7548 20.4163 23.443 19.7557 22.9062 19.31C20.9185 17.7033 18.7756 16.2991 16.5093 15.1178L14.7955 24.4621H23.761L23.7575 21.1139ZM7.29151 10.55C7.39947 11.1857 7.62069 11.7965 7.94434 12.3539V13.9665L11.4981 16.5607L10.1776 18.26L11.076 19.703L10.3618 24.4619H13.3996L12.7032 19.7067L13.6017 18.2637L12.2593 16.5607L15.8239 13.9703V12.3538C16.1477 11.7964 16.369 11.1856 16.4769 10.5499C16.7331 10.5282 17.0721 10.1674 17.4366 8.87932C17.9165 7.17628 17.4366 6.87708 17.0037 6.89493C18.0861 1.90519 15.2898 1.89082 15.2898 1.89082C15.0553 0.848146 13.5689 -0.241559 12.1871 0.0471348C10.8052 0.335796 7.94777 0.00737173 7.94777 0.00737173L7.94802 0.00787506C7.94449 0.407768 8.1189 0.788527 8.42417 1.04675C5.91657 2.57635 6.49389 5.94262 6.71765 6.90953C6.29183 6.90953 5.84815 7.23795 6.31725 8.89392C6.68518 10.1676 7.02446 10.5282 7.29144 10.5499L7.29151 10.55ZM7.25175 15.1176C4.98497 16.2929 2.84081 17.6914 0.851392 19.292C0.314341 19.7375 0.00251262 20.3981 0 21.0959V24.4619H8.96555L7.25175 15.1176Z" fill="#FDA53C"/>
</svg>
