<svg width="47" height="29" viewBox="0 0 47 29" fill="none" xmlns="http://www.w3.org/2000/svg">
<path d="M42.218 11.6903C42.1733 11.6741 42.1244 11.6741 42.0797 11.6903C42.0679 11.6963 42.0548 11.6994 42.0415 11.6991C42.0283 11.6989 42.0153 11.6953 42.0038 11.6888C41.9922 11.6823 41.9825 11.6731 41.9754 11.6619C41.9683 11.6507 41.9641 11.6379 41.9632 11.6247C41.9632 10.5799 41.5481 9.57779 40.8093 8.83896C40.0704 8.10013 39.0684 7.68506 38.0235 7.68506C36.9786 7.68506 35.9766 8.10013 35.2377 8.83896C34.4989 9.57779 34.0838 10.5799 34.0838 11.6247C34.0829 11.6379 34.0787 11.6507 34.0716 11.6619C34.0645 11.6731 34.0547 11.6823 34.0432 11.6888C34.0317 11.6953 34.0187 11.6989 34.0054 11.6991C33.9922 11.6994 33.9791 11.6963 33.9673 11.6903C33.9226 11.6741 33.8737 11.6741 33.829 11.6903C33.6105 11.7267 33.5085 12.1854 33.5959 12.7025C33.6833 13.2195 33.9382 13.62 34.1567 13.5836H34.2222C34.405 14.32 34.7129 15.0196 35.1325 15.6518C35.4006 16.1954 35.8155 16.6532 36.3303 16.9733C36.8451 17.2934 37.4392 17.4631 38.0453 17.4631C38.6515 17.4631 39.2456 17.2934 39.7604 16.9733C40.2752 16.6532 40.6901 16.1954 40.9582 15.6518C41.3778 15.0196 41.6857 14.32 41.8685 13.5836H41.934C42.1525 13.62 42.4001 13.2268 42.4948 12.7025C42.5894 12.1782 42.4365 11.7267 42.218 11.6903ZM12.8563 11.6903C12.8116 11.6741 12.7626 11.6741 12.7179 11.6903C12.7061 11.6963 12.693 11.6994 12.6798 11.6991C12.6665 11.6989 12.6536 11.6953 12.642 11.6888C12.6305 11.6823 12.6207 11.6731 12.6136 11.6619C12.6065 11.6507 12.6023 11.6379 12.6014 11.6247C12.6014 10.5799 12.1863 9.57779 11.4475 8.83896C10.7087 8.10013 9.7066 7.68506 8.66173 7.68506C7.61687 7.68506 6.6148 8.10013 5.87597 8.83896C5.13714 9.57779 4.72207 10.5799 4.72207 11.6247C4.72113 11.6379 4.71692 11.6507 4.70983 11.6619C4.70274 11.6731 4.69299 11.6823 4.68144 11.6888C4.6699 11.6953 4.65692 11.6989 4.64368 11.6991C4.63044 11.6994 4.61734 11.6963 4.60556 11.6903C4.56085 11.6741 4.51191 11.6741 4.4672 11.6903C4.24873 11.7267 4.14678 12.1854 4.23417 12.7025C4.32155 13.2195 4.57643 13.62 4.79489 13.5836H4.86043C5.04322 14.32 5.35112 15.0196 5.77071 15.6518C6.05954 16.1759 6.48021 16.6155 6.9911 16.9272C7.50198 17.2388 8.08538 17.4116 8.68358 17.4286C9.28177 17.4116 9.86518 17.2388 10.3761 16.9272C10.8869 16.6155 11.3076 16.1759 11.5965 15.6518C12.016 15.0196 12.3239 14.32 12.5067 13.5836H12.5723C12.7907 13.62 13.0383 13.2268 13.133 12.7025C13.2277 12.1782 13.0747 11.7267 12.8563 11.6903ZM46.0557 21.7761C46.0557 21.7761 45.5241 27.864 45.5169 28.4466H30.5156C30.5156 28.2208 30.4355 27.1867 30.3335 25.9997C30.1733 24.0918 29.9767 21.7761 29.9767 21.7761C29.8938 21.2638 30.0066 20.7391 30.2925 20.3061C30.5785 19.8731 31.0168 19.5634 31.5205 19.4385L32.0812 19.3293L35.6786 18.6375L38.0235 24.3103L40.3684 18.6375L44.5265 19.4385C45.0275 19.5664 45.4623 19.8774 45.7454 20.3101C46.0285 20.7428 46.1392 21.2658 46.0557 21.7761ZM16.694 21.7761C16.694 21.7761 16.4901 24.0918 16.3372 26.007C16.2425 27.194 16.1624 28.1917 16.1551 28.4466H1.1538C1.14652 27.8567 0.614922 21.7761 0.614922 21.7761C0.53206 21.2638 0.644804 20.7391 0.930782 20.3061C1.21676 19.8731 1.65507 19.5634 2.15874 19.4385L6.31687 18.6375L8.66173 24.3103L11.0066 18.6375L14.604 19.3293L15.1647 19.4385C15.6657 19.5664 16.1006 19.8774 16.3836 20.3101C16.6667 20.7428 16.7774 21.2658 16.694 21.7761Z" fill="#212121"/>
<path d="M28.2217 4.99059C28.1699 4.97165 28.1132 4.97165 28.0615 4.99059C28.0473 4.99761 28.0318 5.00126 28.016 5.00124C28.0002 5.00122 27.9846 4.99754 27.9705 4.99048C27.9564 4.98342 27.9441 4.97318 27.9346 4.96056C27.9251 4.94794 27.9187 4.93329 27.9158 4.91776C27.8498 3.7476 27.3385 2.64707 26.4867 1.842C25.6349 1.03693 24.5074 0.588379 23.3353 0.588379C22.1633 0.588379 21.0357 1.03693 20.184 1.842C19.3322 2.64707 18.8208 3.7476 18.7548 4.91776C18.752 4.93329 18.7455 4.94794 18.7361 4.96056C18.7266 4.97318 18.7143 4.98342 18.7002 4.99048C18.686 4.99754 18.6705 5.00122 18.6547 5.00124C18.6389 5.00126 18.6233 4.99761 18.6092 4.99059C18.5575 4.97165 18.5007 4.97165 18.449 4.99059C18.1941 5.03428 18.0776 5.56588 18.1795 6.1703C18.2815 6.77472 18.5728 7.2335 18.8277 7.1898H18.9078C19.1189 8.04788 19.4761 8.86324 19.9637 9.60021C20.3027 10.201 20.7913 10.7038 21.3821 11.0598C21.9729 11.4158 22.6458 11.6129 23.3353 11.6319C24.0272 11.608 24.701 11.4048 25.2907 11.0423C25.8805 10.6798 26.366 10.1703 26.6997 9.5638C27.1873 8.82683 27.5445 8.01147 27.7556 7.15339H27.8357C28.0906 7.19709 28.3819 6.73831 28.4838 6.13389C28.5858 5.52947 28.4765 5.027 28.2217 4.99059ZM22.5343 15.9503C22.5125 16.0111 22.5002 16.075 22.4979 16.1396L22.2867 26.007H24.384L24.1728 16.1396C24.1705 16.075 24.1582 16.0111 24.1364 15.9503L24.9374 14.5594C24.9742 14.4942 24.9933 14.4206 24.9929 14.3457C24.9925 14.2709 24.9725 14.1975 24.935 14.1327C24.8975 14.068 24.8437 14.0142 24.779 13.9766C24.7142 13.939 24.6408 13.919 24.566 13.9185H22.0974C22.0225 13.919 21.9491 13.939 21.8844 13.9766C21.8197 14.0142 21.7659 14.068 21.7284 14.1327C21.6909 14.1975 21.6709 14.2709 21.6705 14.3457C21.6701 14.4206 21.6892 14.4942 21.726 14.5594L22.5343 15.9503ZM21.3254 25.9924H17.597C17.7062 24.6743 17.8446 23.0795 17.9465 21.8925C18.0657 21.0663 17.8687 20.2256 17.3948 19.5384C16.9209 18.8512 16.2051 18.3681 15.3905 18.1859L14.5239 18.0184L14.4292 16.2416C14.3373 15.6755 14.4615 15.0955 14.7771 14.6167C15.0927 14.1378 15.5768 13.7951 16.1333 13.6564L20.7429 12.768L21.3254 25.9924ZM32.2414 16.2488L32.1468 18.0257L31.2802 18.1932C30.4656 18.3754 29.7498 18.8584 29.2759 19.5456C28.802 20.2329 28.6049 21.0736 28.7241 21.8998C28.8261 23.0941 28.9645 24.6816 29.0737 25.9924H25.4326L25.9715 12.7752L30.5811 13.6637C31.1295 13.8114 31.6032 14.158 31.9101 14.6358C32.2171 15.1137 32.3352 15.6887 32.2414 16.2488Z" fill="#FDA53C"/>
</svg>
