<svg width="19" height="26" viewBox="0 0 19 26" fill="none" xmlns="http://www.w3.org/2000/svg">
<path d="M14.0845 4.96425C14.0327 4.94531 13.976 4.94531 13.9243 4.96425C13.9101 4.97127 13.8945 4.97492 13.8788 4.9749C13.863 4.97488 13.8474 4.9712 13.8333 4.96414C13.8192 4.95708 13.8069 4.94684 13.7974 4.93422C13.7879 4.9216 13.7815 4.90695 13.7786 4.89142C13.7126 3.72126 13.2013 2.62073 12.3495 1.81566C11.4977 1.01059 10.3701 0.562038 9.19812 0.562038C8.0261 0.562038 6.89852 1.01059 6.04675 1.81566C5.19499 2.62073 4.68364 3.72126 4.61763 4.89142C4.61477 4.90695 4.60834 4.9216 4.59886 4.93422C4.58937 4.94684 4.57708 4.95708 4.56296 4.96414C4.54884 4.9712 4.53327 4.97488 4.51749 4.9749C4.5017 4.97492 4.48612 4.97127 4.47199 4.96425C4.42026 4.94531 4.3635 4.94531 4.31178 4.96425C4.0569 5.00794 3.94039 5.53954 4.04234 6.14396C4.14429 6.74838 4.43557 7.20716 4.69045 7.16346H4.77055C4.98169 8.02154 5.33887 8.8369 5.82647 9.57387C6.16545 10.1746 6.6541 10.6774 7.24491 11.0335C7.83572 11.3895 8.5086 11.5866 9.19812 11.6056C9.88997 11.5817 10.5638 11.3785 11.1535 11.0159C11.7432 10.6534 12.2287 10.144 12.5625 9.53745C13.0501 8.80049 13.4073 7.98513 13.6184 7.12705H13.6985C13.9534 7.17075 14.2447 6.71197 14.3466 6.10755C14.4486 5.50313 14.3393 5.00066 14.0845 4.96425ZM8.39708 15.9239C8.37524 15.9848 8.36296 16.0487 8.36067 16.1133L8.14949 25.9806H10.2468L10.0356 16.1133C10.0333 16.0487 10.021 15.9848 9.99916 15.9239L10.8002 14.533C10.837 14.4679 10.8561 14.3942 10.8557 14.3194C10.8553 14.2446 10.8353 14.1711 10.7978 14.1064C10.7603 14.0417 10.7065 13.9878 10.6418 13.9503C10.577 13.9127 10.5036 13.8927 10.4288 13.8922H7.96015C7.88532 13.8927 7.81192 13.9127 7.7472 13.9503C7.68249 13.9878 7.62871 14.0417 7.59119 14.1064C7.55367 14.1711 7.5337 14.2446 7.53328 14.3194C7.53285 14.3942 7.55198 14.4679 7.58876 14.533L8.39708 15.9239ZM7.18824 25.9661L1.26338 25.9543L0.734372 20.6642L0.742479 20.6973L0.386681 17.9921L0.292013 16.2152C0.200103 15.6491 0.324271 15.0692 0.639899 14.5903C0.955527 14.1115 1.43957 13.7687 1.99604 13.63L6.60567 12.7416L7.18824 25.9661ZM18.1042 16.2225L17.1335 25.9661H11.2954L11.8343 12.7489L16.4439 13.6373C16.9923 13.7851 17.466 14.1316 17.7729 14.6095C18.0799 15.0874 18.1979 15.6623 18.1042 16.2225Z" fill="#FDA53C"/>
</svg>
