<svg width="13" height="17" viewBox="0 0 13 17" fill="none" xmlns="http://www.w3.org/2000/svg">
<path d="M11.6321 5.05051C11.4668 3.29826 9.95542 2.70552 8.04495 2.53313V0.100755H6.56899V2.46228C6.17934 2.46228 5.78024 2.46228 5.38823 2.46228V0.0913086H3.90755V2.52368C3.58875 2.52368 3.2723 2.52368 2.96294 2.52368H0.922588L0.913142 4.1059C0.913142 4.1059 2.00653 4.08701 1.98764 4.1059C2.58746 4.1059 2.78347 4.45541 2.83778 4.75532V7.52775C2.89048 7.52476 2.94331 7.52476 2.99601 7.52775H2.83306L2.82125 11.4266C2.80863 11.5626 2.7432 11.6882 2.63901 11.7765C2.53481 11.8648 2.40016 11.9088 2.26393 11.8989C2.28283 11.9155 1.18708 11.8989 1.18708 11.8989L0.889526 13.6701H2.81653H3.87449V16.1308H5.35517V13.6984C5.76135 13.6984 6.15336 13.7126 6.53593 13.7126V16.1355H8.01661V13.6795C10.5057 13.5662 12.2485 12.9427 12.461 10.6072C12.6405 8.71796 11.7525 7.88198 10.3356 7.5372C11.1952 7.10031 11.7336 6.33282 11.6108 5.04815L11.6321 5.05051ZM9.54688 10.3049C9.54688 12.1445 6.3966 11.9273 5.39295 11.9249V8.66601C6.3966 8.66601 9.54451 8.38971 9.53979 10.3049H9.54688ZM8.86912 5.70701C8.86912 7.37897 6.24074 7.17588 5.40476 7.17588V4.21925C6.24783 4.22162 8.87384 3.96185 8.86912 5.70701Z" fill="white"/>
</svg>
