<svg width="19" height="24" viewBox="0 0 19 24" fill="none" xmlns="http://www.w3.org/2000/svg">
<path d="M14.25 4.89995H13.5573V6.39995C13.5573 6.47952 13.526 6.55582 13.4703 6.61208C13.4146 6.66834 13.3391 6.69995 13.2604 6.69995C13.1817 6.69995 13.1061 6.66834 13.0505 6.61208C12.9948 6.55582 12.9635 6.47952 12.9635 6.39995V3.99995C12.9635 3.92039 12.9322 3.84408 12.8766 3.78782C12.8209 3.73156 12.7454 3.69995 12.6666 3.69995C12.5879 3.69995 12.5124 3.73156 12.4567 3.78782C12.401 3.84408 12.3698 3.92039 12.3698 3.99995V4.89995H10.3906V6.39995C10.3906 6.47952 10.3593 6.55582 10.3037 6.61208C10.248 6.66834 10.1725 6.69995 10.0937 6.69995C10.015 6.69995 9.93948 6.66834 9.88381 6.61208C9.82813 6.55582 9.79685 6.47952 9.79685 6.39995V3.99995C9.79685 3.92039 9.76558 3.84408 9.7099 3.78782C9.65423 3.73156 9.57872 3.69995 9.49998 3.69995C9.42124 3.69995 9.34573 3.73156 9.29006 3.78782C9.23438 3.84408 9.2031 3.92039 9.2031 3.99995V4.89995H7.22394V6.39995C7.22394 6.47952 7.19266 6.55582 7.13699 6.61208C7.08131 6.66834 7.0058 6.69995 6.92706 6.69995C6.84833 6.69995 6.77282 6.66834 6.71714 6.61208C6.66147 6.55582 6.63019 6.47952 6.63019 6.39995V3.99995C6.63019 3.92039 6.59891 3.84408 6.54324 3.78782C6.48756 3.73156 6.41205 3.69995 6.33331 3.69995C6.25458 3.69995 6.17907 3.73156 6.12339 3.78782C6.06772 3.84408 6.03644 3.92039 6.03644 3.99995V4.89995H4.74998C4.46137 4.90025 4.18467 5.01624 3.98059 5.22246C3.77651 5.42869 3.66173 5.7083 3.66144 5.99995V14.4C3.66173 14.6916 3.77651 14.9712 3.98059 15.1774C4.18467 15.3837 4.46137 15.4997 4.74998 15.4999H14.25C14.5386 15.4997 14.8153 15.3837 15.0194 15.1774C15.2234 14.9712 15.3382 14.6916 15.3385 14.4V5.99995C15.3382 5.7083 15.2234 5.42869 15.0194 5.22246C14.8153 5.01624 14.5386 4.90025 14.25 4.89995ZM14.7448 14.4C14.7447 14.5325 14.6925 14.6596 14.5997 14.7534C14.507 14.8471 14.3812 14.8998 14.25 14.9H4.74998C4.61879 14.8998 4.493 14.8471 4.40024 14.7534C4.30747 14.6596 4.2553 14.5325 4.25519 14.4V8.29995H14.7448V14.4Z" fill="#F3361A"/>
<path d="M9.5 10.3C9.66396 10.3 9.79688 10.1656 9.79688 9.99995C9.79688 9.83427 9.66396 9.69995 9.5 9.69995C9.33604 9.69995 9.20312 9.83427 9.20312 9.99995C9.20312 10.1656 9.33604 10.3 9.5 10.3Z" fill="#F3361A"/>
<path d="M11.4792 10.3C11.6431 10.3 11.7761 10.1656 11.7761 9.99995C11.7761 9.83427 11.6431 9.69995 11.4792 9.69995C11.3152 9.69995 11.1823 9.83427 11.1823 9.99995C11.1823 10.1656 11.3152 10.3 11.4792 10.3Z" fill="#F3361A"/>
<path d="M13.4583 10.3C13.6223 10.3 13.7552 10.1656 13.7552 9.99995C13.7552 9.83427 13.6223 9.69995 13.4583 9.69995C13.2944 9.69995 13.1614 9.83427 13.1614 9.99995C13.1614 10.1656 13.2944 10.3 13.4583 10.3Z" fill="#F3361A"/>
<path d="M13.4583 11.9C13.6222 11.9 13.7551 11.7657 13.7551 11.6C13.7551 11.4344 13.6222 11.3 13.4583 11.3C13.2943 11.3 13.1614 11.4344 13.1614 11.6C13.1614 11.7657 13.2943 11.9 13.4583 11.9Z" fill="#F3361A"/>
<path d="M11.4792 11.9C11.6431 11.9 11.7761 11.7657 11.7761 11.6C11.7761 11.4344 11.6431 11.3 11.4792 11.3C11.3152 11.3 11.1823 11.4344 11.1823 11.6C11.1823 11.7657 11.3152 11.9 11.4792 11.9Z" fill="#F3361A"/>
<path d="M9.5 11.9C9.66396 11.9 9.79688 11.7657 9.79688 11.6C9.79688 11.4344 9.66396 11.3 9.5 11.3C9.33604 11.3 9.20312 11.4344 9.20312 11.6C9.20312 11.7657 9.33604 11.9 9.5 11.9Z" fill="#F3361A"/>
<path d="M9.5 13.4999C9.66396 13.4999 9.79688 13.3656 9.79688 13.1999C9.79688 13.0342 9.66396 12.8999 9.5 12.8999C9.33604 12.8999 9.20312 13.0342 9.20312 13.1999C9.20312 13.3656 9.33604 13.4999 9.5 13.4999Z" fill="#F3361A"/>
<path d="M7.52081 11.9C7.68477 11.9 7.81769 11.7657 7.81769 11.6C7.81769 11.4344 7.68477 11.3 7.52081 11.3C7.35685 11.3 7.22394 11.4344 7.22394 11.6C7.22394 11.7657 7.35685 11.9 7.52081 11.9Z" fill="#F3361A"/>
<path d="M7.52081 13.5C7.68477 13.5 7.81769 13.3657 7.81769 13.2C7.81769 13.0343 7.68477 12.9 7.52081 12.9C7.35685 12.9 7.22394 13.0343 7.22394 13.2C7.22394 13.3657 7.35685 13.5 7.52081 13.5Z" fill="#F3361A"/>
<path d="M5.54169 13.5C5.70565 13.5 5.83856 13.3657 5.83856 13.2C5.83856 13.0343 5.70565 12.9 5.54169 12.9C5.37773 12.9 5.24481 13.0343 5.24481 13.2C5.24481 13.3657 5.37773 13.5 5.54169 13.5Z" fill="#F3361A"/>
</svg>
