<svg width="26" height="26" viewBox="0 0 26 26" fill="none" xmlns="http://www.w3.org/2000/svg">
<path d="M13 14.625C13.8975 14.625 14.625 13.8975 14.625 13C14.625 12.1025 13.8975 11.375 13 11.375C12.1025 11.375 11.375 12.1025 11.375 13C11.375 13.8975 12.1025 14.625 13 14.625Z" fill="#FDA53C"/>
<path d="M23.7142 11.1801L22.8584 8.45008C22.766 8.13457 22.611 7.84089 22.4026 7.58658C22.1942 7.33227 21.9368 7.12252 21.6456 6.96986C21.3544 6.81719 21.0355 6.72474 20.7078 6.698C20.3801 6.67127 20.0504 6.7108 19.7384 6.81425L19.37 6.93341C19.0815 7.0288 18.7742 7.053 18.4742 7.00395C18.1743 6.95491 17.8907 6.83407 17.6475 6.65175L17.5284 6.56508C17.2911 6.38349 17.0998 6.14867 16.97 5.87958C16.8402 5.61049 16.7754 5.31465 16.7809 5.01591V4.71258C16.7861 4.03228 16.5212 3.37769 16.0442 2.89258C15.8173 2.6634 15.5474 2.48131 15.2499 2.35675C14.9525 2.23219 14.6334 2.16762 14.3109 2.16675H11.5484C10.8856 2.17531 10.253 2.44537 9.78833 2.91813C9.32369 3.39089 9.06463 4.02806 9.06754 4.69091V4.95092C9.0665 5.26538 8.9949 5.5756 8.85803 5.85871C8.72116 6.14182 8.52251 6.39062 8.2767 6.58675L8.13587 6.69508C7.86433 6.9005 7.54672 7.0365 7.21066 7.09125C6.87459 7.14601 6.53025 7.11785 6.20754 7.00925C5.91115 6.90668 5.59704 6.86532 5.28421 6.88767C4.97138 6.91001 4.66633 6.9956 4.38754 7.13925C4.09726 7.28332 3.83974 7.48558 3.631 7.73346C3.42226 7.98134 3.26677 8.26952 3.1742 8.58008L2.28587 11.3967C2.07987 12.0318 2.1327 12.7225 2.43289 13.3188C2.73308 13.9151 3.2564 14.369 3.8892 14.5817H4.06254C4.35445 14.6911 4.61645 14.8678 4.82727 15.0975C5.03809 15.3271 5.19178 15.6032 5.27587 15.9034L5.34087 16.0767C5.46164 16.4084 5.50202 16.7639 5.45871 17.1142C5.41539 17.4645 5.28962 17.7995 5.0917 18.0917C4.69111 18.6373 4.52213 19.319 4.62154 19.9885C4.72095 20.658 5.0807 21.2611 5.62254 21.6667L7.86504 23.3676C8.28965 23.6763 8.80259 23.8397 9.32754 23.8334C9.46803 23.8472 9.60954 23.8472 9.75004 23.8334C10.0751 23.7705 10.384 23.642 10.6578 23.4557C10.9316 23.2695 11.1646 23.0294 11.3425 22.7501L11.5917 22.3926C11.7665 22.1419 11.9978 21.9357 12.2669 21.7908C12.536 21.6459 12.8353 21.5663 13.1409 21.5584C13.4611 21.5505 13.778 21.6239 14.0622 21.7717C14.3463 21.9194 14.5884 22.1368 14.7659 22.4034L14.8959 22.5876C15.0806 22.8625 15.3196 23.0966 15.5982 23.2757C15.8768 23.4547 16.1892 23.5748 16.5159 23.6286C16.8427 23.6824 17.1771 23.6687 17.4984 23.5884C17.8197 23.5081 18.1211 23.3629 18.3842 23.1617L20.5834 21.5151C21.1033 21.1112 21.4491 20.5238 21.5498 19.8732C21.6506 19.2226 21.4986 18.5581 21.125 18.0159L20.8434 17.6042C20.674 17.3425 20.5631 17.0474 20.5182 16.7389C20.4733 16.4304 20.4956 16.1159 20.5834 15.8167C20.6729 15.4966 20.839 15.203 21.0674 14.9614C21.2958 14.7198 21.5795 14.5374 21.8942 14.4301L22.1109 14.3542C22.7378 14.1367 23.2556 13.6839 23.5548 13.0916C23.854 12.4992 23.9112 11.8138 23.7142 11.1801ZM13 16.7917C12.2501 16.7917 11.517 16.5694 10.8935 16.1527C10.27 15.7361 9.78398 15.1439 9.49699 14.4511C9.21001 13.7583 9.13492 12.9959 9.28123 12.2604C9.42753 11.5249 9.78865 10.8492 10.3189 10.319C10.8492 9.78869 11.5248 9.42757 12.2603 9.28127C12.9958 9.13497 13.7582 9.21006 14.451 9.49704C15.1439 9.78402 15.7361 10.27 16.1527 10.8935C16.5693 11.5171 16.7917 12.2502 16.7917 13.0001C16.7917 14.0057 16.3922 14.9701 15.6812 15.6812C14.9701 16.3923 14.0057 16.7917 13 16.7917Z" fill="#FDA53C"/>
</svg>
