<svg width="100" height="21" viewBox="0 0 100 21" fill="none" xmlns="http://www.w3.org/2000/svg">
<g opacity="0.5">
<path d="M6.91333 8.69661L10.7644 4.84565L14.6176 8.69864L16.8584 6.4578L10.7644 0.363647L4.67249 6.45576L6.91333 8.69661Z" fill="white"/>
<path d="M5.33074 10.2785L3.0899 8.03772L0.848956 10.2786L3.08979 12.5194L5.33074 10.2785Z" fill="white"/>
<path d="M6.91299 11.8614L10.7641 15.7123L14.6171 11.8595L16.8592 14.0991L16.8581 14.1003L10.7641 20.1943L4.67199 14.1024L4.66885 14.0992L6.91299 11.8614Z" fill="white"/>
<path d="M18.4388 12.5207L20.6798 10.2798L18.4389 8.03902L16.198 10.2799L18.4388 12.5207Z" fill="white"/>
<path d="M13.0375 10.2776H13.0385L10.7646 8.00366L9.08414 9.6841H9.08399L8.89103 9.87722L8.49273 10.2755L8.48959 10.2787L8.49273 10.2819L10.7646 12.5538L13.0385 10.2799L13.0396 10.2787L13.0375 10.2776Z" fill="white"/>
<path d="M24.1735 5.16895H29.0472C30.2568 5.16895 31.1715 5.47938 31.7915 6.10024C32.2712 6.58108 32.511 7.17704 32.511 7.88797V7.91804C32.511 8.21845 32.4739 8.48393 32.3992 8.71417C32.3246 8.94472 32.225 9.15225 32.1005 9.33754C31.9763 9.52298 31.8319 9.68572 31.6677 9.82574C31.5034 9.96608 31.3269 10.0864 31.1379 10.1863C31.7459 10.4168 32.2245 10.7296 32.5735 11.1253C32.9223 11.5211 33.0969 12.0694 33.0969 12.7703V12.8002C33.0969 13.2811 33.0045 13.7016 32.8195 14.0623C32.6346 14.4227 32.3696 14.7233 32.0245 14.9637C31.6795 15.2041 31.2646 15.3842 30.7797 15.5045C30.2947 15.6247 29.7574 15.6846 29.1677 15.6846H24.1735V5.16895ZM28.56 9.42024C29.0709 9.42024 29.4765 9.33284 29.7768 9.15742C30.0772 8.98216 30.2274 8.69913 30.2274 8.30866V8.27859C30.2274 7.92822 30.0971 7.66039 29.8368 7.47495C29.5763 7.28966 29.2007 7.19693 28.7102 7.19693H26.4267V9.42024H28.56ZM29.176 13.6568C29.6867 13.6568 30.0871 13.5644 30.3777 13.379C30.6681 13.1937 30.8135 12.9056 30.8135 12.515V12.4851C30.8135 12.1346 30.6782 11.8567 30.4078 11.6512C30.1373 11.4462 29.7018 11.3434 29.1008 11.3434H26.4267V13.657H29.176V13.6568Z" fill="white"/>
<path d="M35.9997 5.16895L38.3133 5.16895L38.3133 15.685L35.9997 15.685L35.9997 5.16895Z" fill="white"/>
<path d="M41.8169 5.16895H43.9498L48.8774 11.6439V5.16895H51.1609V15.685H49.193L44.1002 8.99985V15.685H41.8169V5.16895Z" fill="white"/>
<path d="M58.1655 5.09387H60.2986L64.8056 15.6849H62.3869L61.4253 13.3264H56.9786L56.0172 15.6849H53.6583L58.1655 5.09387ZM60.5991 11.2831L59.2019 7.87304L57.8051 11.2831H60.5991Z" fill="white"/>
<path d="M67.3029 5.16772H69.4363L74.3636 11.6426V5.16772H76.6471V15.6837H74.6792L69.5864 8.99863V15.6837H67.3029V5.16772Z" fill="white"/>
<path d="M84.9733 15.8641C84.2017 15.8641 83.486 15.7237 82.8248 15.4435C82.1637 15.1633 81.593 14.7801 81.1123 14.2942C80.6314 13.8085 80.2557 13.2351 79.9857 12.5742C79.7152 11.913 79.58 11.207 79.58 10.4558V10.4259C79.58 9.6747 79.7152 8.97129 79.9857 8.31518C80.2559 7.65924 80.6314 7.08332 81.1123 6.5876C81.5928 6.09188 82.1689 5.7011 82.8397 5.41573C83.5105 5.13036 84.2522 4.98767 85.0633 4.98767C85.5537 4.98767 86.0018 5.02792 86.4075 5.1078C86.8132 5.18815 87.1811 5.2981 87.5119 5.43828C87.8425 5.57862 88.1476 5.74887 88.4284 5.94904C88.7083 6.14952 88.969 6.36974 89.2094 6.61016L87.7374 8.30767C87.3263 7.93725 86.9084 7.64655 86.4828 7.43636C86.057 7.22617 85.5789 7.12091 85.0481 7.12091C84.6074 7.12091 84.1992 7.20612 83.8239 7.37637C83.4484 7.54662 83.1252 7.78187 82.8548 8.08228C82.5846 8.38269 82.3742 8.73087 82.2237 9.12635C82.0738 9.52214 81.9988 9.94519 81.9988 10.3958V10.4257C81.9988 10.8763 82.0738 11.3022 82.2237 11.7025C82.3742 12.1033 82.5816 12.4537 82.8474 12.7541C83.1126 13.0545 83.4332 13.2926 83.8086 13.4679C84.1845 13.6433 84.5975 13.7307 85.0481 13.7307C85.6493 13.7307 86.157 13.6206 86.5727 13.4002C86.9884 13.1801 87.4017 12.8796 87.8123 12.4988L89.2846 13.9861C89.0141 14.2767 88.7332 14.5371 88.4433 14.7672C88.1528 14.9978 87.8348 15.1954 87.4891 15.3608C87.1438 15.5259 86.7654 15.6514 86.3552 15.7363C85.9442 15.8213 85.4837 15.8641 84.9733 15.8641Z" fill="white"/>
<path d="M92.0076 5.16772H99.9245V7.22594H94.2912V9.35919H99.2487V11.4172H94.2912V13.6257H100V15.6837H92.0076V5.16772Z" fill="white"/>
</g>
</svg>
