<svg width="99" height="22" viewBox="0 0 99 22" fill="none" xmlns="http://www.w3.org/2000/svg">
<g opacity="0.5">
<path fill-rule="evenodd" clip-rule="evenodd" d="M7.75523 20.4967C12.8572 21.8701 17.897 18.574 19.0121 13.1352C20.1272 7.69597 16.8958 2.17244 11.7941 0.799292C6.69359 -0.573853 1.65383 2.72258 0.539328 8.16208C-0.576379 13.6006 2.65533 19.1235 7.75523 20.4967ZM11.7287 6.65948C13.0396 7.14687 14.0082 7.87435 13.858 9.22146C13.7497 10.2076 13.2567 10.6836 12.5896 10.849C13.5258 11.3709 14.0165 12.1684 13.6067 13.547C13.0981 15.2592 11.784 15.3997 10.0217 15.0356L9.64597 16.8773L8.61064 16.5971L8.98143 14.7801C8.7131 14.7077 8.43878 14.6309 8.15611 14.5477L7.78408 16.3733L6.74993 16.0931L7.12552 14.2479C7.02883 14.221 6.93151 14.1935 6.83351 14.1658C6.68638 14.1241 6.53769 14.0821 6.38725 14.0411L5.03993 13.6764L5.51591 12.406C5.51591 12.406 6.27914 12.6261 6.26846 12.6099C6.56155 12.6887 6.68513 12.484 6.73238 12.3475L7.326 9.43608C7.3514 9.44272 7.37628 9.44949 7.40028 9.45602C7.41222 9.45927 7.42394 9.46246 7.4354 9.46555C7.39394 9.44769 7.35645 9.43618 7.32755 9.42818L7.75101 7.34989C7.75723 7.11381 7.67397 6.81574 7.25464 6.70207C7.27043 6.69041 6.50271 6.49906 6.50271 6.49906L6.74414 5.313L8.17198 5.70011L8.17096 5.70581C8.38563 5.76377 8.60666 5.8189 8.83181 5.87467L9.20389 4.05099L10.2386 4.33117L9.87408 6.11911C10.1517 6.18802 10.4311 6.25758 10.7032 6.33123L11.0652 4.55499L12.1005 4.83517L11.7287 6.65948ZM8.656 13.2684C9.50115 13.5105 11.3483 14.0397 11.6056 12.7745C11.8693 11.4809 10.0799 11.0441 9.20681 10.8309C9.10924 10.8071 9.02312 10.7861 8.95257 10.7669L8.45409 13.2115C8.51202 13.2271 8.57995 13.2466 8.656 13.2684ZM9.35049 9.6962C10.0552 9.90015 11.5923 10.345 11.827 9.19514C12.0665 8.01899 10.5745 7.65952 9.84589 7.48397C9.76392 7.46422 9.69162 7.4468 9.63252 7.43081L9.1806 9.64794C9.22928 9.66112 9.28645 9.67767 9.35049 9.6962Z" fill="white"/>
<path d="M33.4417 6.64398C34.1619 6.64646 34.7925 6.79627 35.3318 7.08802C35.8737 7.38263 36.3294 7.77856 36.7052 8.27582C37.0763 8.7756 37.3645 9.35924 37.567 10.0277C37.7685 10.698 37.8912 11.4183 37.9346 12.1891C38.0013 13.373 37.8748 14.4909 37.5514 15.5439C37.2281 16.5986 36.7604 17.5127 36.1439 18.2917C35.5278 19.0698 34.7831 19.6822 33.91 20.1336C33.0382 20.5853 32.0754 20.8094 31.028 20.8058C30.8925 20.8053 30.6541 20.8 30.3173 20.791C29.9804 20.7819 29.5916 20.7408 29.1548 20.6723C28.7151 20.6013 28.2486 20.4968 27.7543 20.3573C27.2604 20.2204 26.7878 20.0292 26.3393 19.787L29.1751 1.10223L32.6236 0.496485L31.6049 7.12699C31.8943 6.9743 32.1879 6.85623 32.4828 6.77056C32.778 6.68616 33.0975 6.6428 33.4417 6.64398ZM31.1401 17.6449C31.6647 17.6467 32.1507 17.5007 32.5988 17.2124C33.0481 16.9237 33.428 16.5332 33.7371 16.0462C34.0462 15.557 34.2815 15.0056 34.441 14.3892C34.6006 13.7728 34.6626 13.1294 34.6248 12.4597C34.5785 11.6368 34.4221 10.9945 34.1565 10.5297C33.8909 10.0668 33.4345 9.83284 32.7909 9.83063C32.58 9.82991 32.3108 9.87502 31.9785 9.95612C31.6454 10.0423 31.353 10.2226 31.0972 10.4945L30.0115 17.5359C30.1019 17.5543 30.182 17.5718 30.2503 17.5882C30.3174 17.6059 30.3911 17.6185 30.4643 17.6273C30.5417 17.6375 30.63 17.6428 30.7363 17.6432C30.8426 17.6436 30.9756 17.6443 31.1401 17.6449Z" fill="white"/>
<path d="M42.9607 20.4021L39.8034 20.3916L41.7407 6.93858L44.9196 6.94913L42.9607 20.4021ZM43.6792 5.30512C43.2386 5.30366 42.8305 5.14495 42.4589 4.82838C42.0845 4.51369 41.8814 4.03053 41.8461 3.38014C41.8268 3.02239 41.8692 2.68697 41.9721 2.37071C42.077 2.05509 42.2216 1.78351 42.4087 1.55284C42.5957 1.32407 42.8167 1.14154 43.0716 1.0043C43.3282 0.869288 43.6053 0.802274 43.9045 0.803267C44.3449 0.804728 44.7508 0.963431 45.1238 1.28001C45.4954 1.59816 45.6999 2.08133 45.7349 2.72824C45.7544 3.08725 45.7123 3.42394 45.6082 3.73956C45.505 4.05519 45.3604 4.32676 45.1732 4.55743C44.9879 4.78653 44.7647 4.96842 44.5103 5.10439C44.2536 5.24162 43.9774 5.30611 43.6792 5.30512Z" fill="white"/>
<path d="M48.439 3.54748L51.8328 2.94271L51.2125 6.91923L54.8839 6.93171L54.3952 10.0601L50.7459 10.0477L50.0367 14.7666C49.9691 15.16 49.9388 15.5274 49.9436 15.869C49.9466 16.2122 50.0004 16.5071 50.1027 16.7555C50.2044 17.0046 50.3732 17.1969 50.6101 17.3333C50.8461 17.472 51.1768 17.5425 51.6054 17.544C51.9585 17.5452 52.3004 17.5073 52.6286 17.4311C52.955 17.3562 53.2842 17.2515 53.6156 17.1141L54.0226 20.0421C53.5908 20.2289 53.1209 20.3892 52.6124 20.5237C52.1032 20.6602 51.495 20.7246 50.7878 20.7222C49.771 20.7188 48.973 20.5408 48.3919 20.19C47.8115 19.8366 47.3883 19.3551 47.1172 18.7464C46.8495 18.14 46.706 17.4414 46.6915 16.6549C46.6779 15.8665 46.7341 15.0381 46.8622 14.1658L48.439 3.54748Z" fill="white"/>
<path d="M55.9838 14.995C55.9172 13.8264 56.022 12.725 56.2981 11.6945C56.5736 10.6631 57.0038 9.76183 57.5846 8.98908C58.1633 8.22015 58.8872 7.61188 59.7546 7.16652C60.618 6.72369 61.6003 6.50226 62.6969 6.50605C63.3834 6.50842 64.0006 6.58379 64.5485 6.73248C65.0986 6.88245 65.5996 7.07556 66.0565 7.31724L65.0607 10.3071C64.7481 10.1665 64.4248 10.0425 64.0914 9.92992C63.7577 9.81508 63.355 9.75892 62.8825 9.75729C61.7536 9.75339 60.8862 10.1895 60.272 11.0628C59.6603 11.9367 59.3942 13.1149 59.4785 14.5944C59.5285 15.4712 59.7365 16.1808 60.1037 16.7243C60.4692 17.2679 61.1027 17.5398 62.0002 17.5429C62.4432 17.5444 62.8676 17.4937 63.2712 17.3931C63.6778 17.2914 64.0347 17.1627 64.3467 17.0103L64.7741 20.0802C64.357 20.266 63.8949 20.4335 63.3859 20.5798C62.8755 20.721 62.2624 20.7931 61.5466 20.7906C60.6017 20.7874 59.793 20.6286 59.1212 20.3189C58.4488 20.0046 57.8844 19.5883 57.4284 19.062C56.9702 18.5343 56.6276 17.9189 56.3973 17.2131C56.167 16.5079 56.0278 15.7674 55.9838 14.995Z" fill="white"/>
<path d="M72.1736 20.7986C71.3613 20.7958 70.6478 20.6543 70.0335 20.3769C69.421 20.0996 68.9046 19.7116 68.4849 19.2094C68.0649 18.7098 67.7381 18.1183 67.4985 17.4372C67.2588 16.7565 67.1192 16.003 67.072 15.1778C67.0128 14.1427 67.1015 13.1084 67.3415 12.0775C67.5799 11.0443 67.9682 10.1167 68.5053 9.29282C69.0378 8.46768 69.7143 7.7939 70.5262 7.26952C71.3376 6.74865 72.2901 6.48851 73.377 6.49227C74.1745 6.49503 74.8844 6.63685 75.5069 6.91424C76.1265 7.19097 76.6462 7.58218 77.0679 8.0818C77.4856 8.58396 77.8148 9.17287 78.0525 9.85492C78.2915 10.5344 78.4335 11.2898 78.4807 12.1157C78.5397 13.1476 78.453 14.1819 78.2226 15.216C77.9916 16.245 77.6148 17.175 77.0943 18.0008C76.5748 18.8247 75.9048 19.4982 75.0836 20.0203C74.2636 20.5424 73.2928 20.8025 72.1736 20.7986ZM73.2421 9.74771C72.7376 9.74597 72.301 9.90902 71.9377 10.2328C71.5732 10.5603 71.2749 10.9726 71.0439 11.4703C70.8102 11.9702 70.6469 12.5156 70.5494 13.1088C70.4531 13.7033 70.4214 14.2654 70.452 14.7997C70.5013 15.662 70.6635 16.3339 70.9345 16.818C71.2087 17.2995 71.6657 17.5429 72.31 17.5451C72.8162 17.5468 73.2506 17.385 73.616 17.0578C73.9784 16.7328 74.277 16.3202 74.5099 15.8216C74.742 15.3242 74.9069 14.7772 75.0043 14.183C75.099 13.5905 75.1323 13.0251 75.1017 12.4918C75.0526 11.6318 74.8908 10.9583 74.6176 10.4748C74.3448 9.99327 73.8858 9.74994 73.2421 9.74771Z" fill="white"/>
<path d="M83.5315 20.4021L80.3713 20.3916L82.3088 6.93858L85.4895 6.94914L83.5315 20.4021ZM84.2477 5.30512C83.8073 5.30366 83.3994 5.14495 83.0283 4.82838C82.6558 4.5137 82.451 4.03053 82.4158 3.38014C82.3965 3.0224 82.4397 2.68698 82.5429 2.37072C82.6461 2.05509 82.7918 1.78352 82.979 1.55285C83.1649 1.32407 83.3881 1.14155 83.6424 1.00432C83.8974 0.869294 84.1745 0.80228 84.4727 0.803269C84.9142 0.804735 85.3215 0.963441 85.6937 1.28002C86.0662 1.59817 86.2717 2.08134 86.3067 2.72825C86.3262 3.08726 86.2807 3.42394 86.1784 3.73957C86.0762 4.0552 85.9306 4.32677 85.7442 4.55744C85.5565 4.78653 85.3361 4.96843 85.0812 5.1044C84.8242 5.24163 84.5475 5.30611 84.2477 5.30512Z" fill="white"/>
<path d="M88.556 7.45653C88.8106 7.37247 89.0944 7.27128 89.4031 7.16123C89.7129 7.05119 90.0602 6.94894 90.4494 6.85705C90.8342 6.76228 91.2702 6.68588 91.7511 6.62719C92.2319 6.56723 92.7822 6.53912 93.3954 6.54124C95.1978 6.54748 96.4739 7.13971 97.2271 8.31445C97.9797 9.48918 98.1903 11.0941 97.8622 13.1262L96.7114 20.466L93.2714 20.4541L94.3826 13.2687C94.4498 12.82 94.4979 12.3862 94.5275 11.9623C94.5578 11.5422 94.5334 11.1718 94.4515 10.8509C94.3726 10.5339 94.2146 10.2741 93.981 10.0724C93.7441 9.87397 93.3978 9.77347 92.9356 9.77187C92.49 9.77033 92.0398 9.82242 91.583 9.92429L89.9466 20.4423L86.5052 20.4304L88.556 7.45653Z" fill="white"/>
</g>
</svg>
