<svg width="70" height="20" viewBox="0 0 70 20" fill="none" xmlns="http://www.w3.org/2000/svg">
<g opacity="0.5">
<path d="M66.9359 0.696938C67.6461 0.300959 68.4352 0.538547 69.1454 0.538547C69.1454 0.538547 69.2243 0.696939 69.2243 0.776134C68.6719 4.02317 68.1196 7.27021 67.5672 10.5172C67.4883 11.1508 67.3305 11.3884 66.6203 11.3884C64.7265 11.3092 64.7265 11.3884 64.253 9.56689C63.7796 7.74538 63.2272 6.00307 62.7538 4.10237C62.4381 4.33995 62.517 4.73593 62.517 4.97352C62.2014 6.87423 61.8858 8.77493 61.5701 10.7548C61.4912 11.23 61.3334 11.3884 60.86 11.3884C59.124 11.3884 59.124 11.3884 59.4396 9.72528C59.913 6.87423 60.3865 4.02317 60.86 1.17211C60.9389 0.617743 61.0967 0.459351 61.649 0.459351C63.6218 0.459351 63.6218 0.459351 64.1741 2.36005C64.6476 4.10237 65.121 5.92387 65.7523 7.66618L66.9359 0.696938Z" fill="white"/>
<path d="M29.2951 3.30965C28.5061 2.83447 27.717 2.43849 26.849 2.35929C25.5864 2.2009 24.5606 2.59688 23.7715 3.62643C22.8246 4.89357 22.5879 6.31909 22.9035 7.82382C23.2191 9.32854 24.7184 9.96211 26.0599 9.40774C26.2966 9.32854 26.3755 9.17015 26.3755 8.93256C26.4544 8.61578 26.4544 8.29899 26.5333 7.98221C26.7701 7.26945 26.5333 7.03186 25.9021 7.19025C25.2708 7.26945 25.2708 7.03186 25.3497 6.47749C25.5864 5.28955 25.5864 5.28955 26.6911 5.28955C27.4013 5.28955 28.1115 5.28955 28.8217 5.28955C29.1373 5.28955 29.2951 5.36874 29.2162 5.76472C28.9795 7.26944 28.7428 8.69497 28.5061 10.1997C28.4271 10.5165 28.3482 10.6749 28.0326 10.7541C26.6122 11.4668 25.113 11.7836 23.5348 11.4668C21.7199 11.15 20.5362 9.80372 20.3784 7.90301C20.2995 6.71507 20.3784 5.60633 20.773 4.49759C22.2722 0.141807 26.1388 -0.49176 29.2951 0.854571C29.6108 1.01296 29.6897 1.17136 29.6108 1.48814C29.453 2.04251 29.3741 2.67608 29.2951 3.30965Z" fill="white"/>
<path d="M32.6889 11.3882C31.8209 11.3882 30.874 11.3882 30.006 11.3882C29.6114 11.3882 29.4536 11.3882 29.5325 10.9131C30.006 7.50764 30.5583 4.18141 31.1107 0.855181C31.1896 0.538397 31.2685 0.380005 31.5841 0.380005C33.399 0.380005 35.2929 0.380005 37.1078 0.380005C37.5023 0.380005 37.5812 0.538397 37.5023 0.934377C37.2656 2.5183 37.2656 2.5183 35.6874 2.5183C35.0561 2.5183 34.5038 2.59749 33.8725 2.5183C33.3201 2.4391 33.1623 2.67669 33.0834 3.15186C32.8467 4.4982 32.8467 4.4982 34.1881 4.4982C34.8983 4.4982 35.5296 4.4982 36.2398 4.4982C36.5554 4.4982 36.7132 4.57739 36.6343 4.97337V5.05257C36.3976 6.71568 36.3976 6.71568 34.8194 6.71568H34.4249C32.61 6.71568 32.61 6.71568 32.2943 8.53719C32.2154 9.01237 32.2943 9.17076 32.7678 9.17076C33.7936 9.17076 34.8194 9.17076 35.7663 9.17076C36.1609 9.17076 36.3187 9.24995 36.2398 9.72513C36.003 11.3882 36.003 11.3882 34.4249 11.3882H32.6889Z" fill="white"/>
<path d="M44.9196 8.53712C44.9196 9.32908 44.7617 9.96265 44.6828 10.5962C44.6828 10.8338 44.4461 10.913 44.2883 10.9922C43.2625 11.3882 42.2366 11.6258 41.2108 11.5466C39.4748 11.4674 37.9756 10.2794 37.6599 8.53712C37.1076 5.92365 37.7388 3.54777 39.6327 1.72627C41.2108 0.142347 43.7359 -0.174437 45.7086 0.855111C46.0243 1.0135 46.1821 1.17189 46.1032 1.48868C45.9454 2.04305 45.8665 2.67662 45.7876 3.31019C45.7086 3.31019 45.6297 3.23099 45.5508 3.15179C43.3414 1.56787 41.2108 2.28064 40.3428 4.8941C40.0272 5.68606 39.9483 6.55722 40.0272 7.34918C40.2639 9.09149 41.3687 9.88345 43.0257 9.40828C43.657 9.24988 44.2883 8.8539 44.9196 8.53712Z" fill="white"/>
<path d="M56.7563 11.3885C55.6516 11.3885 55.6516 11.3885 55.8094 10.2005C56.2829 7.19109 56.8353 4.18164 57.2298 1.17219C57.3087 0.617821 57.5454 0.380233 58.0978 0.459429C59.7549 0.538625 59.7549 0.459429 59.5182 2.12254C59.0447 4.81521 58.6502 7.42867 58.1767 10.1213C58.0189 11.3885 58.0189 11.3885 56.7563 11.3885Z" fill="white"/>
<path d="M47.5235 15.9811C47.5235 15.1892 47.6024 14.4764 47.5235 13.6845C47.4446 13.0509 47.7602 12.8925 48.3126 12.9717C48.7861 12.9717 49.1017 12.9717 49.1017 13.6845C49.1017 15.4268 49.1806 15.4268 50.8377 15.2684C51.1533 15.2684 51.3111 15.11 51.3111 14.7932C51.3111 14.4764 51.3111 14.2388 51.3111 13.922C51.3111 13.1301 51.9424 12.7341 52.6526 13.0509C52.8893 13.1301 52.8104 13.3677 52.8104 13.5261C52.8104 15.1892 52.8104 16.9315 52.8104 18.5946C52.8104 19.2282 52.337 19.0698 52.0213 19.0698C51.7057 19.0698 51.2322 19.3074 51.2322 18.5946C51.2322 18.2778 51.2322 17.8818 51.2322 17.5651C51.2322 17.1691 51.469 16.6147 51.0744 16.4563C50.5221 16.2187 49.8119 16.2979 49.2595 16.4563C49.0228 16.4563 49.1017 16.7731 49.1017 16.9315C49.1017 17.4859 49.1017 17.961 49.1017 18.5154C49.1806 19.2282 48.7071 19.0698 48.3126 19.0698C47.918 19.0698 47.5235 19.2282 47.5235 18.5154C47.5235 18.1194 47.5235 17.6443 47.5235 17.2483V15.9811Z" fill="white"/>
<path d="M17.5382 15.9014C17.5382 15.1095 17.5382 14.3175 17.5382 13.5255C17.5382 13.1296 17.6171 12.892 18.0906 12.892C19.1164 12.892 20.1422 12.892 21.0891 12.892C21.4836 12.892 21.6415 12.9712 21.6415 13.4463C21.6415 13.8423 21.5626 14.0799 21.0891 14.0799C20.6156 14.0799 20.1422 14.0799 19.5898 14.0799C19.1953 14.0799 19.0375 14.1591 18.9586 14.6343C18.9586 15.1095 19.1164 15.1887 19.5898 15.1887C19.9844 15.1887 20.4578 15.1887 20.8524 15.1887C21.2469 15.1887 21.4836 15.2678 21.4836 15.743C21.4836 16.2182 21.3258 16.2974 20.8524 16.2974C20.5367 16.2974 20.2211 16.2974 19.9055 16.2974C19.0375 16.2974 18.8007 16.6142 18.9586 17.4853C19.1164 17.8021 19.2742 17.8021 19.5109 17.8021C20.0633 17.8021 20.6156 17.8021 21.168 17.8021C21.6415 17.8021 21.7204 17.9605 21.7204 18.3565C21.7204 18.7525 21.6415 18.9109 21.168 18.9109C20.1422 18.9109 19.0375 18.9109 18.0116 18.9109C17.6171 18.9109 17.5382 18.7525 17.5382 18.4357C17.5382 17.6437 17.5382 16.7726 17.5382 15.9014Z" fill="white"/>
<path d="M53.8367 15.9817C53.8367 15.1898 53.8367 14.3186 53.8367 13.5267C53.8367 13.1307 53.9156 12.9723 54.3891 12.9723C55.4149 12.9723 56.4407 12.9723 57.4665 12.9723C57.8611 12.9723 58.0189 13.1307 58.0189 13.5267C58.0189 13.9226 57.94 14.1602 57.5455 14.081C56.9931 14.081 56.4407 14.081 55.8884 14.081C55.4938 14.081 55.4149 14.2394 55.4149 14.6354C55.4149 14.9522 55.4149 15.269 55.8884 15.269C56.3618 15.269 56.8353 15.269 57.3087 15.269C57.7822 15.269 57.8611 15.4274 57.8611 15.9025C57.8611 16.3777 57.7033 16.4569 57.3087 16.4569C56.9931 16.4569 56.5985 16.4569 56.2829 16.4569C55.5727 16.3777 55.336 16.6945 55.4149 17.4073C55.4149 17.8824 55.5727 18.0408 55.9673 17.9616C56.4407 17.9616 56.9142 17.9616 57.4665 17.9616C57.8611 17.9616 58.0978 18.0408 58.0978 18.516C58.0978 18.9912 57.94 19.1496 57.5455 19.0704C56.5196 19.0704 55.4938 19.0704 54.468 19.0704C54.0735 19.0704 53.9156 18.912 53.9156 18.516C53.9156 17.5657 53.8367 16.7737 53.8367 15.9817Z" fill="white"/>
<path d="M33.636 15.9015C33.636 15.1095 33.636 14.2384 33.636 13.4464C33.636 13.0504 33.7149 12.892 34.1094 12.9712C35.1352 12.9712 36.24 12.9712 37.2658 12.9712C37.7392 12.9712 37.7392 13.288 37.7392 13.6048C37.7392 14.0008 37.5814 14.1592 37.2658 14.08C36.7134 14.08 36.1611 14.08 35.6087 14.08C35.2142 14.08 35.1352 14.2384 35.1352 14.6343C35.1352 14.9511 35.1352 15.2679 35.6087 15.2679C36.0032 15.2679 36.3978 15.2679 36.8712 15.2679C37.2658 15.2679 37.5814 15.2679 37.5814 15.9015C37.5814 16.6142 37.1869 16.3766 36.8712 16.4558C36.6345 16.4558 36.3189 16.4558 36.0821 16.4558C35.2141 16.4558 34.9774 16.7726 35.1352 17.6438C35.2931 17.8022 35.4509 17.8022 35.6876 17.8022C36.24 17.8022 36.7923 17.8022 37.3447 17.8022C37.8181 17.8022 37.8971 17.9606 37.8971 18.3565C37.8971 18.7525 37.7392 18.9109 37.3447 18.9109C36.3189 18.9109 35.2141 18.9109 34.1883 18.9109C33.7938 18.9109 33.7149 18.7525 33.7149 18.3565C33.7149 17.6438 33.636 16.7726 33.636 15.9015Z" fill="white"/>
<path d="M64.8836 15.9025C64.8836 15.1106 64.8836 14.3186 64.8836 13.5267C64.8836 13.1307 64.9625 12.9723 65.357 12.9723C66.3829 12.9723 67.4087 12.9723 68.4345 12.9723C68.829 12.9723 68.908 13.1307 68.908 13.5267C68.908 13.8434 68.908 14.1602 68.4345 14.1602C67.8821 14.1602 67.3298 14.1602 66.7774 14.1602C66.3829 14.1602 66.304 14.3978 66.304 14.7146C66.304 15.0314 66.304 15.3482 66.7774 15.3482C67.2509 15.3482 67.7243 15.3482 68.1978 15.3482C68.5923 15.3482 68.7501 15.5066 68.7501 15.9025C68.7501 16.2985 68.6712 16.4569 68.1978 16.4569C67.8821 16.4569 67.4876 16.4569 67.172 16.4569C66.4618 16.3777 66.2251 16.6153 66.304 17.3281C66.304 17.8824 66.4618 18.0408 66.9352 17.9616C67.4087 17.9616 67.8032 17.9616 68.2767 17.9616C68.6712 17.9616 68.9869 17.9616 68.9869 18.516C68.9869 19.0704 68.7501 19.1496 68.3556 19.0704C67.4087 19.0704 66.3829 19.0704 65.436 19.0704C64.9625 19.0704 64.8047 18.912 64.8047 18.4368C64.8836 17.5657 64.8836 16.6945 64.8836 15.9025Z" fill="white"/>
<path d="M10.9884 17.4072C11.0673 18.7536 10.9095 18.9119 9.56806 18.9911C7.04297 19.1495 5.5437 17.4864 6.09606 15.1105C6.49061 13.2098 9.01569 12.1011 10.6728 13.1306C11.2251 13.4474 10.8306 14.0018 10.9884 14.477C9.88369 13.9226 8.77897 13.5266 7.91097 14.7146C7.3586 15.4273 7.43751 16.6945 7.98988 17.4072C8.62115 18.0408 9.56806 18.0408 10.9884 17.4072Z" fill="white"/>
<path d="M16.5126 17.4072C16.6704 18.6744 16.5126 18.8328 15.3289 18.9911C12.7249 19.3079 11.0679 17.5656 11.6202 15.1105C12.0937 13.2098 14.6188 12.1011 16.2758 13.1306C16.7493 13.4474 16.5915 13.9226 16.5126 14.2394C16.3548 14.5562 16.118 14.2394 15.8813 14.1602C15.0922 13.8434 14.3031 13.8434 13.6718 14.477C13.1195 15.0313 13.0406 16.2193 13.4351 17.0112C13.8297 17.8032 14.6188 18.12 15.5657 17.8032C15.8813 17.724 16.1969 17.5656 16.5126 17.4072Z" fill="white"/>
<path d="M30.5582 12.972C31.2684 12.972 31.9785 12.972 32.6887 12.972C33.0833 12.972 33.2411 13.1304 33.2411 13.5263C33.2411 13.9223 33.1622 14.0807 32.7676 14.0807C31.3473 14.1599 31.3473 14.1599 31.3473 15.6646C31.3473 16.5358 31.2684 17.4069 31.3473 18.2781C31.4262 18.9909 31.0316 18.9117 30.5582 18.9909C30.0058 18.9909 29.7691 18.9117 29.7691 18.2781C29.848 17.0902 29.7691 15.9814 29.7691 14.7935C29.7691 14.2391 29.6113 14.0015 29.0589 14.0807C28.8222 14.0807 28.5855 14.0807 28.3487 14.0807C27.9542 14.0807 27.7175 14.0015 27.7175 13.5263C27.7175 13.0512 27.8753 12.8928 28.2698 12.972C29.0589 12.972 29.7691 12.972 30.5582 12.972Z" fill="white"/>
<path fill-rule="evenodd" clip-rule="evenodd" d="M1.67769 11.3878H2.23005C2.63499 11.3878 3.03992 11.3669 3.4342 11.3466C3.80823 11.3274 4.17268 11.3086 4.51841 11.3086C6.1755 11.1502 7.43805 10.3582 8.38496 8.93271C9.17405 7.66557 9.56859 6.24005 9.48968 4.73532C9.41077 2.04266 8.06932 0.696328 5.38641 0.537936C4.91296 0.498338 4.41978 0.498338 3.91673 0.498338C3.41369 0.498338 2.90078 0.498338 2.38787 0.45874C1.7566 0.45874 1.59878 0.696328 1.51987 1.2507C1.12533 4.02254 0.651879 6.79438 0.178428 9.56622L0.178418 9.56628C0.0196834 10.4823 -0.0592231 10.9377 0.132394 11.164C0.321797 11.3878 0.775508 11.3878 1.67769 11.3878ZM3.09805 9.24915C5.46532 9.32835 6.96459 7.82362 6.96459 5.28935C7.0435 3.38865 6.1755 2.59669 4.36059 2.5175C3.88714 2.5175 3.72932 2.67589 3.65041 3.15106L3.65031 3.15165C3.33471 5.05216 3.01911 6.95266 2.7035 8.77398C2.54568 9.24915 2.78241 9.24915 3.09805 9.24915Z" fill="white"/>
<path fill-rule="evenodd" clip-rule="evenodd" d="M47.2869 2.43874C46.2611 3.78507 45.8665 5.36899 45.8665 7.0321C45.8665 9.48718 47.0502 11.1503 48.944 11.5463C50.9956 11.8631 52.8105 11.3087 54.0731 9.56637C55.3356 7.90326 55.8091 6.00255 55.5723 3.94346C55.4145 2.12195 54.3098 0.775621 52.7316 0.379641C50.68 -0.174731 48.5494 0.696424 47.2869 2.43874ZM49.3389 3.3896C48.6287 4.41915 48.392 5.52789 48.392 6.63664C48.392 7.19101 48.392 7.58699 48.5498 7.98297C48.9444 9.48769 50.3647 9.96287 51.6273 9.01252C51.9429 8.77493 52.2585 8.45815 52.4163 8.06217C52.9687 6.95342 53.2843 5.60709 53.1265 4.33995C53.0476 3.4688 52.8109 2.59764 51.7851 2.36006C50.8382 2.12247 49.9702 2.51845 49.3389 3.3896Z" fill="white"/>
<path fill-rule="evenodd" clip-rule="evenodd" d="M18.4855 9.33004C19.5113 7.9837 19.9059 6.47898 19.9059 4.81587C19.9059 2.59838 18.959 0.935264 17.1441 0.460088C15.1713 -0.0942839 13.3564 0.301696 11.9361 1.88562C10.279 3.78632 9.72661 6.083 10.279 8.53808C10.5946 10.2012 11.6993 11.2307 13.3564 11.4683C15.4081 11.7851 17.223 11.1515 18.4855 9.33004ZM16.6709 7.98372C17.1444 7.11256 17.3811 6.08302 17.3811 5.05347C17.3811 3.46955 16.9077 2.59839 15.9608 2.3608C14.856 2.12322 13.8302 2.75678 13.1989 4.10312C12.5677 5.29106 12.4098 6.63739 12.7255 7.90452C13.0411 9.40925 14.3826 9.96362 15.6451 9.17166C16.1186 8.85487 16.4342 8.45889 16.6709 7.98372Z" fill="white"/>
<path fill-rule="evenodd" clip-rule="evenodd" d="M38.7651 13.6052V15.9811C38.7651 16.7731 38.7651 17.565 38.844 18.4362C38.844 18.8322 39.0018 18.9906 39.3964 18.9906C39.7745 18.9589 40.14 18.9526 40.503 18.9463C41.049 18.9367 41.5894 18.9273 42.1582 18.8322C43.4996 18.5946 44.2887 17.565 44.3676 16.0603C44.3676 14.6348 43.5786 13.4468 42.2371 13.1301C41.6453 12.9816 41.0535 12.9878 40.4616 12.9939C40.1066 12.9977 39.7515 13.0014 39.3964 12.9717C38.844 12.8925 38.7651 13.1301 38.7651 13.6052ZM40.2644 15.2676V15.9011V17.3267V17.3267C40.2644 17.5643 40.2644 17.7227 40.58 17.8018C41.2902 17.881 42.1582 17.4851 42.4738 16.8515C42.7895 16.0595 42.6317 14.9508 42.0004 14.4756C41.5269 14.1588 40.9746 13.9212 40.4222 14.1588C40.1707 14.2598 40.2078 14.5216 40.2473 14.8008C40.2697 14.9596 40.293 15.124 40.2644 15.2676Z" fill="white"/>
<path fill-rule="evenodd" clip-rule="evenodd" d="M59.0446 13.5265V15.9024V18.3575C59.0446 18.3828 59.0426 18.4103 59.0405 18.4387C59.0294 18.5879 59.0163 18.7661 59.2813 18.8326C60.0704 19.1494 60.5439 18.8326 60.5439 17.9615V17.4071C60.5705 17.3 60.5611 17.1839 60.5523 17.074C60.5349 16.8588 60.5194 16.6676 60.7806 16.6152C61.1751 16.536 61.5697 16.6152 61.8064 17.0111L62.5166 18.4367C62.6744 18.7534 63.858 19.0702 64.1737 18.8326C64.3315 18.7534 64.2526 18.5951 64.1737 18.5159C63.858 17.7239 63.5424 16.9319 62.99 16.2984C62.9718 16.2801 62.9536 16.2628 62.9361 16.2463C62.8021 16.1196 62.7109 16.0333 62.99 15.8232C63.6213 15.348 63.7002 14.7145 63.5424 14.0017C63.3057 13.2097 62.6744 12.9721 61.9642 12.8929H59.597C59.1235 12.8929 59.0446 13.1305 59.0446 13.5265ZM60.5428 14.8083C60.5436 14.855 60.5444 14.9029 60.5444 14.9517C60.4655 15.3477 60.6233 15.5853 61.0968 15.6645C61.1446 15.6565 61.1924 15.6493 61.2398 15.6422C61.661 15.5788 62.0437 15.5213 62.0437 14.9517C62.0437 14.3043 61.653 14.2449 61.2266 14.1801C61.1836 14.1736 61.1402 14.167 61.0968 14.1597C60.5303 14.0887 60.5357 14.4003 60.5428 14.8083Z" fill="white"/>
<path fill-rule="evenodd" clip-rule="evenodd" d="M4.28121 13.9213C4.04448 13.2086 3.80776 12.7334 2.93976 12.971C2.83552 12.9919 2.72578 12.9852 2.61781 12.9786C2.31708 12.9602 2.03007 12.9426 1.91394 13.5254C1.5983 14.3965 1.28267 15.2479 0.967031 16.0992C0.651395 16.9506 0.335759 17.8019 0.0201238 18.6731C0.0201238 18.7155 0.0144585 18.7523 0.00919985 18.7864C-0.00516699 18.8796 -0.0164977 18.9531 0.0990331 19.0691C0.493578 19.3067 1.51939 18.9899 1.5983 18.5939C1.67721 18.0395 1.99285 17.9603 2.4663 17.9603H3.72885C4.04448 17.8811 4.28121 18.0395 4.28121 18.2771C4.36012 18.9899 4.91248 18.9899 5.46485 18.9899C6.09612 18.9899 6.01721 18.7523 5.85939 18.3563C5.74146 18.035 5.62353 17.7174 5.50637 17.4018C5.07476 16.2393 4.65358 15.1048 4.28121 13.9213ZM3.57071 16.2184C3.33398 15.664 3.17616 15.1888 3.01835 14.6344L2.86053 14.7136C2.78162 14.9512 2.70271 15.18 2.6238 15.4088C2.46598 15.8664 2.30816 16.324 2.15034 16.8519L3.17616 16.8519C3.72852 16.8519 3.72852 16.6143 3.57071 16.2184Z" fill="white"/>
<path fill-rule="evenodd" clip-rule="evenodd" d="M24.7698 12.9662C24.6693 12.9692 24.5729 12.9721 24.4822 12.9721C23.9299 12.9721 23.5353 12.9721 22.983 12.8929C22.6673 12.8929 22.5095 12.9721 22.5095 13.2889V18.5159C22.5095 18.9735 22.7784 18.9454 23.0054 18.9217C23.0534 18.9167 23.0995 18.9118 23.1408 18.9118C23.2185 18.9118 23.3058 18.931 23.3944 18.9505C23.6656 19.0102 23.9493 19.0726 24.0088 18.5951C24.0373 18.3949 24.0143 18.1741 23.9919 17.9587C23.9523 17.5776 23.9145 17.2135 24.1666 17.0111C24.4296 16.7999 24.8329 16.7999 25.2363 16.7999C25.4379 16.7999 25.6396 16.7999 25.8237 16.7735H25.9026C26.8495 16.6152 27.323 15.9816 27.4019 15.1104C27.4808 14.0809 27.0862 13.4473 26.1393 13.1305C25.6927 12.9384 25.1945 12.9534 24.7698 12.9662ZM24.7979 14.1596C24.1666 14.0804 24.0877 14.3972 24.1666 14.8724C24.1666 14.943 24.1631 15.0119 24.1598 15.078C24.1406 15.4565 24.1261 15.7435 24.7979 15.7435C24.8485 15.7363 24.8991 15.7297 24.9493 15.7231C25.4469 15.6584 25.9026 15.599 25.9026 14.9516C25.9026 14.318 25.3502 14.2388 24.7979 14.1596Z" fill="white"/>
</g>
</svg>
