<svg width="96" height="32" viewBox="0 0 96 32" fill="none" xmlns="http://www.w3.org/2000/svg">
<g opacity="0.5">
<path d="M30.8531 17.327C30.8531 17.4835 30.7222 17.611 30.5654 17.611L25.0248 17.611C25.1631 18.9797 26.1932 20.2285 27.6423 20.2285C28.6324 20.2285 29.368 19.8499 29.9212 19.0601C30.0013 18.9507 30.1215 18.8817 30.2743 18.9473C30.3581 18.9837 30.4163 19.0601 30.4308 19.1475C30.4452 19.2384 30.42 19.2895 30.3944 19.3404C29.8375 20.3123 28.7272 20.7892 27.6386 20.7892C25.7746 20.7892 24.446 19.122 24.446 17.3381C24.446 15.5542 25.7746 13.8867 27.6386 13.8867C29.5026 13.8833 30.8494 15.5468 30.8531 17.327ZM30.2598 17.0577C30.1396 15.6891 29.0913 14.4403 27.6423 14.4403C26.1935 14.4403 25.1631 15.6888 25.0248 17.0577L30.2598 17.0577ZM37.5769 14.0216C37.7371 14.0216 37.8535 14.1599 37.8535 14.2983C37.8535 14.4584 37.7334 14.5749 37.5769 14.5749L36.0915 14.5749L36.0915 20.4032C36.0915 20.5415 35.9714 20.6798 35.8149 20.6798C35.6547 20.6798 35.5382 20.5415 35.5382 20.4032L35.5382 14.5749L34.111 14.5749C33.9509 14.5749 33.8344 14.4547 33.8344 14.2983C33.8344 14.1599 33.9545 14.0216 34.111 14.0216L35.5382 14.0216L35.5382 11.8884C35.5382 11.7537 35.6291 11.6299 35.7603 11.608C35.9461 11.5788 36.0915 11.7063 36.0915 11.881L36.0915 14.0216L37.5769 14.0216ZM46.6379 16.8391L46.6379 20.3702C46.6379 20.5304 46.4995 20.6469 46.3612 20.6469C46.201 20.6469 46.0846 20.5267 46.0846 20.3702L46.0846 16.8391C46.0846 15.6488 45.4112 14.4582 44.0823 14.4582C42.3785 14.4582 41.6431 15.947 41.7414 17.4724C41.7414 17.5125 41.7596 17.6908 41.7596 17.709L41.7596 20.3592C41.7596 20.4938 41.6687 20.6176 41.5375 20.6395C41.3518 20.6687 41.2063 20.5412 41.2063 20.3665L41.2063 8.76846C41.2063 8.63014 41.3265 8.49183 41.483 8.49183C41.6431 8.49183 41.7596 8.63014 41.7596 8.76846L41.7596 15.3321C42.2365 14.4803 43.0882 13.9049 44.0786 13.9049C45.706 13.9049 46.6379 15.3321 46.6379 16.8391ZM56.5727 17.327C56.5727 17.4835 56.4418 17.611 56.285 17.611L50.7408 17.611C50.8791 18.9797 51.9092 20.2285 53.3582 20.2285C54.3483 20.2285 55.0839 19.8499 55.6372 19.0601C55.7173 18.9507 55.8374 18.8817 55.9902 18.9473C56.074 18.9837 56.1322 19.0601 56.1467 19.1475C56.1612 19.2384 56.1359 19.2896 56.1104 19.3404C55.5534 20.3123 54.4432 20.7892 53.3546 20.7892C51.4906 20.7892 50.1619 19.122 50.1619 17.3381C50.1619 15.5542 51.4906 13.887 53.3546 13.887C55.222 13.8833 56.5691 15.5468 56.5727 17.327ZM55.9757 17.0578C55.8556 15.6891 54.8073 14.4403 53.3582 14.4403C51.9095 14.4403 50.8791 15.6888 50.7408 17.0578L55.9757 17.0578ZM63.3729 14.2801C63.3729 14.4584 63.2747 14.5567 63.1145 14.5786C61.4874 14.8152 60.7555 16.1441 60.7555 17.6911L60.7555 20.3413C60.7555 20.4759 60.6646 20.5997 60.5334 20.6216C60.3476 20.6508 60.2022 20.5233 60.2022 20.3487L60.2022 14.3091C60.2022 14.1744 60.2931 14.0506 60.4243 14.0287C60.61 13.9995 60.7555 14.127 60.7555 14.3017L60.7555 15.532C61.2104 14.7604 62.1241 14.0248 63.0744 14.0248C63.2128 14.0216 63.3729 14.1233 63.3729 14.2801ZM72.474 17.327C72.474 17.4835 72.343 17.611 72.1863 17.611L66.6457 17.611C66.784 18.9797 67.8141 20.2285 69.2632 20.2285C70.2532 20.2285 70.9888 19.8499 71.5421 19.0601C71.6222 18.9507 71.7423 18.8817 71.8951 18.9473C71.9789 18.9837 72.0371 19.0601 72.0516 19.1476C72.0661 19.2384 72.0408 19.2896 72.0153 19.3404C71.4583 20.3123 70.3481 20.7892 69.2595 20.7892C67.3955 20.7892 66.0668 19.122 66.0668 17.3381C66.0668 15.5542 67.3955 13.887 69.2595 13.887C71.1235 13.8833 72.4703 15.5468 72.474 17.327ZM71.8806 17.0578C71.7605 15.6891 70.7122 14.4403 69.2632 14.4403C67.8144 14.4403 66.784 15.6888 66.6457 17.0578L71.8806 17.0578ZM81.4185 14.3491L81.4185 20.4032C81.4185 20.5634 81.2802 20.6798 81.1418 20.6798C80.9817 20.6798 80.8652 20.5597 80.8652 20.4032L80.8652 19.2529C80.4102 20.1666 79.5948 20.8184 78.5644 20.8184C76.9188 20.8184 76.0051 19.3912 76.0051 17.8843L76.0051 14.3346C76.0051 14.1963 76.1253 14.058 76.2818 14.058C76.4419 14.058 76.5584 14.1963 76.5584 14.3346L76.5584 17.884C76.5584 19.0743 77.2318 20.2649 78.5607 20.2649C80.4247 20.2649 80.8615 18.521 80.8615 16.5954L80.8615 14.3346C80.8615 14.1744 81.0217 14.0106 81.2182 14.0688C81.3384 14.1088 81.4185 14.2253 81.4185 14.3491ZM95.4341 16.8175L95.4341 20.3668C95.4341 20.527 95.2958 20.6435 95.1575 20.6435C94.9973 20.6435 94.8808 20.5233 94.8808 20.3668L94.8808 16.8175C94.8808 15.6272 94.2074 14.4585 92.8785 14.4585C91.2114 14.4585 90.5777 16.2424 90.5777 17.6292L90.5777 20.3668C90.5777 20.527 90.4394 20.6435 90.3011 20.6435C90.1409 20.6435 90.0245 20.5233 90.0245 20.3668L90.0245 16.8175C90.0245 15.6272 89.3511 14.4585 88.0221 14.4585C86.3365 14.4585 85.6412 15.7871 85.7031 17.5528C85.7031 17.5929 85.7213 17.6729 85.7031 17.6911L85.7031 20.3595C85.7031 20.4941 85.6123 20.6179 85.4774 20.6398C85.2916 20.669 85.1462 20.5415 85.1462 20.3668L85.1462 14.3091C85.1462 14.1744 85.2371 14.0506 85.3683 14.0287C85.554 13.9995 85.6995 14.127 85.6995 14.3017L85.6995 15.3136C86.1763 14.4619 87.0281 13.9049 88.0184 13.9049C89.1468 13.9049 90.0208 14.6184 90.3775 15.6706C90.8325 14.6405 91.7246 13.9049 92.8748 13.9049C94.5023 13.9049 95.4341 15.3102 95.4341 16.8175Z" fill="white"/>
<g opacity="0.6">
<g opacity="0.6">
<path opacity="0.6" d="M9.75116 11.9301L1.06679 16.2768L10.3617 21.9951L18.963 16.3391L9.75116 11.9301Z" fill="white"/>
</g>
</g>
<g opacity="0.45">
<g opacity="0.45">
<path opacity="0.45" d="M1.64652 16.3638L10.0528 21.9148L8.90209 0.882579L1.64652 16.3638Z" fill="white"/>
</g>
</g>
<g opacity="0.8">
<g opacity="0.8">
<path opacity="0.8" d="M10.0585 0.854248L11.209 21.8865L19.0075 16.3922L10.0585 0.854248Z" fill="white"/>
</g>
</g>
<g opacity="0.45">
<g opacity="0.45">
<path opacity="0.45" d="M0.797909 17.9745L10.0527 31.2481L9.60246 23.5584L0.797909 17.9745Z" fill="white"/>
</g>
</g>
<g opacity="0.8">
<g opacity="0.8">
<path opacity="0.8" d="M10.3843 23.5283L10.8345 31.2178L18.5423 18.0048L10.3843 23.5283Z" fill="white"/>
</g>
</g>
</g>
</svg>
