<svg width="90" height="21" viewBox="0 0 90 21" fill="none" xmlns="http://www.w3.org/2000/svg">
<g opacity="0.5">
<path d="M10.7302 0.503178C8.70792 0.503177 6.73108 1.10284 5.04965 2.22634C3.36821 3.34984 2.05769 4.94672 1.28381 6.81503C0.509927 8.68334 0.307445 10.7392 0.701967 12.7226C1.09649 14.706 2.07029 16.5278 3.50024 17.9578C4.93019 19.3877 6.75205 20.3615 8.73544 20.756C10.7188 21.1506 12.7747 20.9481 14.643 20.1742C16.5113 19.4003 18.1082 18.0898 19.2317 16.4084C20.3552 14.7269 20.9548 12.7501 20.9548 10.7278C20.9548 9.38513 20.6904 8.05555 20.1765 6.81504C19.6627 5.57452 18.9095 4.44736 17.9601 3.49792C17.0106 2.54847 15.8835 1.79532 14.643 1.28149C13.4025 0.767648 12.0729 0.503178 10.7302 0.503178V0.503178ZM10.8959 11.0642L9.83236 14.653L15.521 14.653C15.5984 14.653 15.6726 14.6837 15.7273 14.7385C15.7821 14.7932 15.8128 14.8674 15.8128 14.9448C15.8123 14.9725 15.8082 14.9999 15.8005 15.0265L15.3058 16.7306C15.2822 16.812 15.2328 16.8835 15.1649 16.9344C15.0971 16.9852 15.0146 17.0127 14.9299 17.0125L6.24111 17.0125L7.71026 12.0511L6.08529 12.5457L6.44392 11.3857L8.07136 10.8911L10.1341 3.92129C10.1568 3.83962 10.2056 3.76761 10.273 3.71625C10.3404 3.66489 10.4228 3.63701 10.5076 3.63686L12.7088 3.63686C12.7862 3.63686 12.8605 3.66761 12.9152 3.72234C12.9699 3.77708 13.0007 3.85131 13.0007 3.92871C13.0045 3.95496 13.0045 3.98161 13.0007 4.00786L11.2595 9.90176L12.8745 9.4071L12.5258 10.5869L10.8959 11.0642Z" fill="white"/>
<path d="M31.3262 4.72913V18.8827H28.6632V4.72913H31.3262Z" fill="white"/>
<path d="M36.3205 8.91254V18.8827H33.6575V8.91254H36.3205ZM33.4917 6.31403C33.4917 5.92702 33.6268 5.60758 33.8971 5.35572C34.1674 5.10385 34.5298 4.97792 34.9844 4.97792C35.4329 4.97792 35.7922 5.10385 36.0625 5.35572C36.339 5.60758 36.4772 5.92702 36.4772 6.31403C36.4772 6.70105 36.339 7.02048 36.0625 7.27235C35.7922 7.52421 35.4329 7.65015 34.9844 7.65015C34.5298 7.65015 34.1674 7.52421 33.8971 7.27235C33.6268 7.02048 33.4917 6.70105 33.4917 6.31403Z" fill="white"/>
<path d="M43.3973 8.91254V10.7923H37.5921V8.91254H43.3973ZM39.0296 6.45225H41.6834V15.8788C41.6834 16.1675 41.7203 16.3886 41.794 16.5422C41.8739 16.6958 41.9906 16.8033 42.1442 16.8647C42.2977 16.92 42.4912 16.9477 42.7247 16.9477C42.8905 16.9477 43.038 16.9415 43.167 16.9292C43.3021 16.9108 43.4158 16.8924 43.5079 16.8739L43.5171 18.8274C43.2898 18.9011 43.0441 18.9595 42.78 19.0025C42.5158 19.0455 42.224 19.067 41.9046 19.067C41.321 19.067 40.8111 18.9718 40.375 18.7814C39.9449 18.5848 39.6132 18.2715 39.3798 17.8415C39.1463 17.4115 39.0296 16.8463 39.0296 16.146V6.45225Z" fill="white"/>
<path d="M49.4974 19.067C48.7234 19.067 48.0292 18.9441 47.4149 18.6984C46.8006 18.4466 46.2784 18.0995 45.8484 17.6572C45.4245 17.2149 45.099 16.7019 44.8717 16.1183C44.6444 15.5286 44.5307 14.902 44.5307 14.2386V13.87C44.5307 13.1144 44.6382 12.4233 44.8532 11.7967C45.0682 11.1701 45.3754 10.6265 45.7747 10.1657C46.1801 9.705 46.6716 9.35177 47.249 9.10605C47.8265 8.85419 48.4776 8.72825 49.2025 8.72825C49.909 8.72825 50.5356 8.84497 51.0823 9.07841C51.629 9.31184 52.0867 9.64357 52.4553 10.0736C52.83 10.5036 53.1126 11.0196 53.303 11.6216C53.4934 12.2175 53.5887 12.881 53.5887 13.612V14.7177H45.6641V12.9485H50.9809V12.7458C50.9809 12.3772 50.9134 12.0486 50.7782 11.7598C50.6492 11.465 50.4526 11.2315 50.1885 11.0595C49.9243 10.8875 49.5865 10.8015 49.1749 10.8015C48.8247 10.8015 48.5237 10.8783 48.2718 11.0319C48.02 11.1855 47.8142 11.4005 47.6545 11.6769C47.5009 11.9534 47.3842 12.2789 47.3043 12.6537C47.2306 13.0222 47.1937 13.4277 47.1937 13.87V14.2386C47.1937 14.6379 47.249 15.0065 47.3596 15.3443C47.4763 15.6822 47.6391 15.974 47.848 16.2197C48.063 16.4654 48.321 16.6559 48.622 16.791C48.9292 16.9262 49.2762 16.9937 49.6632 16.9937C50.1424 16.9937 50.5878 16.9016 50.9994 16.7173C51.4171 16.5269 51.7765 16.2412 52.0775 15.8603L53.3675 17.261C53.1586 17.562 52.873 17.8507 52.5106 18.1271C52.1543 18.4036 51.7242 18.6309 51.2205 18.809C50.7168 18.981 50.1424 19.067 49.4974 19.067Z" fill="white"/>
<path d="M59.2188 16.9937C59.5443 16.9937 59.8331 16.9323 60.0849 16.8094C60.3368 16.6804 60.5334 16.5023 60.6747 16.275C60.8221 16.0416 60.8989 15.7682 60.905 15.4549H63.4022C63.396 16.1552 63.2087 16.7787 62.8401 17.3255C62.4715 17.866 61.977 18.293 61.3565 18.6063C60.7361 18.9134 60.0419 19.067 59.2741 19.067C58.5 19.067 57.8243 18.938 57.2468 18.68C56.6755 18.422 56.1995 18.0657 55.8186 17.6111C55.4377 17.1504 55.1521 16.6159 54.9616 16.0078C54.7712 15.3935 54.676 14.7362 54.676 14.0358V13.7686C54.676 13.0622 54.7712 12.4049 54.9616 11.7967C55.1521 11.1824 55.4377 10.648 55.8186 10.1934C56.1995 9.73264 56.6755 9.37327 57.2468 9.11526C57.8181 8.85726 58.4877 8.72825 59.2556 8.72825C60.0726 8.72825 60.7883 8.8849 61.4026 9.1982C62.0231 9.51149 62.5084 9.95993 62.8585 10.5435C63.2148 11.121 63.396 11.8059 63.4022 12.5984H60.905C60.8989 12.2667 60.8282 11.9656 60.6931 11.6953C60.5641 11.4251 60.3737 11.21 60.1218 11.0503C59.8761 10.8845 59.572 10.8015 59.2096 10.8015C58.8225 10.8015 58.5062 10.8845 58.2604 11.0503C58.0147 11.21 57.8243 11.4312 57.6891 11.7138C57.554 11.9902 57.4588 12.3066 57.4035 12.6629C57.3543 13.013 57.3298 13.3816 57.3298 13.7686V14.0358C57.3298 14.4229 57.3543 14.7945 57.4035 15.1508C57.4526 15.5071 57.5448 15.8235 57.6799 16.0999C57.8212 16.3764 58.0147 16.5944 58.2604 16.7541C58.5062 16.9139 58.8256 16.9937 59.2188 16.9937Z" fill="white"/>
<path d="M64.5171 13.999V13.8055C64.5171 13.0745 64.6216 12.4018 64.8304 11.7875C65.0393 11.167 65.3434 10.6295 65.7427 10.1749C66.142 9.72036 66.6334 9.36713 67.217 9.11526C67.8006 8.85726 68.4702 8.72825 69.2258 8.72825C69.9814 8.72825 70.6541 8.85726 71.2438 9.11526C71.8335 9.36713 72.328 9.72036 72.7273 10.1749C73.1328 10.6295 73.4399 11.167 73.6488 11.7875C73.8577 12.4018 73.9621 13.0745 73.9621 13.8055V13.999C73.9621 14.7239 73.8577 15.3965 73.6488 16.017C73.4399 16.6313 73.1328 17.1688 72.7273 17.6295C72.328 18.0841 71.8366 18.4373 71.253 18.6892C70.6694 18.9411 69.9998 19.067 69.2442 19.067C68.4886 19.067 67.816 18.9411 67.2262 18.6892C66.6426 18.4373 66.1481 18.0841 65.7427 17.6295C65.3434 17.1688 65.0393 16.6313 64.8304 16.017C64.6216 15.3965 64.5171 14.7239 64.5171 13.999ZM67.1709 13.8055V13.999C67.1709 14.4167 67.2078 14.8068 67.2815 15.1692C67.3552 15.5317 67.472 15.8511 67.6317 16.1276C67.7975 16.3979 68.0125 16.6098 68.2767 16.7634C68.5408 16.9169 68.8634 16.9937 69.2442 16.9937C69.6128 16.9937 69.9292 16.9169 70.1933 16.7634C70.4575 16.6098 70.6694 16.3979 70.8291 16.1276C70.9889 15.8511 71.1056 15.5317 71.1793 15.1692C71.2591 14.8068 71.2991 14.4167 71.2991 13.999V13.8055C71.2991 13.4 71.2591 13.0192 71.1793 12.6629C71.1056 12.3004 70.9858 11.981 70.8199 11.7046C70.6602 11.422 70.4483 11.2008 70.1841 11.0411C69.92 10.8814 69.6005 10.8015 69.2258 10.8015C68.8511 10.8015 68.5316 10.8814 68.2675 11.0411C68.0095 11.2008 67.7975 11.422 67.6317 11.7046C67.472 11.981 67.3552 12.3004 67.2815 12.6629C67.2078 13.0192 67.1709 13.4 67.1709 13.8055Z" fill="white"/>
<path d="M78.3943 8.91254V18.8827H75.7313V8.91254H78.3943ZM75.5654 6.31403C75.5654 5.92702 75.7006 5.60758 75.9709 5.35572C76.2412 5.10385 76.6036 4.97792 77.0582 4.97792C77.5066 4.97792 77.866 5.10385 78.1363 5.35572C78.4127 5.60758 78.5509 5.92702 78.5509 6.31403C78.5509 6.70105 78.4127 7.02048 78.1363 7.27235C77.866 7.52421 77.5066 7.65015 77.0582 7.65015C76.6036 7.65015 76.2412 7.52421 75.9709 7.27235C75.7006 7.02048 75.5654 6.70105 75.5654 6.31403Z" fill="white"/>
<path d="M83.1859 11.0411V18.8827H80.5321V8.91254H83.02L83.1859 11.0411ZM82.7989 13.5475H82.0801C82.0801 12.8103 82.1754 12.1469 82.3658 11.5571C82.5562 10.9613 82.8234 10.4545 83.1675 10.0367C83.5115 9.61285 83.92 9.29034 84.393 9.06919C84.8722 8.8419 85.4066 8.72825 85.9963 8.72825C86.4632 8.72825 86.8901 8.79583 87.2772 8.93097C87.6642 9.06612 87.9959 9.28113 88.2723 9.57599C88.5549 9.87086 88.7699 10.2609 88.9174 10.7462C89.0709 11.2315 89.1477 11.8244 89.1477 12.5247V18.8827H86.4755V12.5154C86.4755 12.0731 86.4141 11.7291 86.2912 11.4834C86.1683 11.2377 85.9871 11.0657 85.7475 10.9674C85.5141 10.863 85.2254 10.8107 84.8814 10.8107C84.5251 10.8107 84.2148 10.8814 83.9507 11.0227C83.6927 11.164 83.4777 11.3606 83.3057 11.6124C83.1398 11.8581 83.0139 12.1469 82.9279 12.4786C82.8419 12.8103 82.7989 13.1666 82.7989 13.5475Z" fill="white"/>
</g>
</svg>
