<svg width="80" height="22" viewBox="0 0 80 22" fill="none" xmlns="http://www.w3.org/2000/svg">
<g opacity="0.5">
<path d="M13.9287 0.925437C12.5186 1.74802 11.687 3.24856 11.687 4.82141C11.687 5.644 12.0214 6.48466 12.4372 7.22589C12.7717 7.88576 12.9344 9.05184 11.7774 9.63036C10.9458 10.1275 9.87007 9.79307 9.3729 8.97049C8.87574 8.31062 8.29722 7.6417 7.54695 7.14453C6.1368 6.32195 4.4826 6.32195 3.07245 7.14453C1.66231 7.96711 0.830688 9.46765 0.830688 11.0405C0.830688 12.6134 1.66231 14.1049 3.07245 14.9365C4.4826 15.7591 6.1368 15.7591 7.54695 14.9365C8.29722 14.5207 8.87574 13.8608 9.28251 13.1105C9.61697 12.532 10.5299 11.7817 11.687 12.4507C12.5186 12.9478 12.7627 14.0235 12.3469 14.8551C11.931 15.6054 11.687 16.428 11.687 17.2596C11.687 18.8325 12.5186 20.3239 13.9287 21.1556C15.3389 21.9782 16.9931 21.9782 18.4032 21.1556C19.8134 20.333 20.645 18.8325 20.645 17.2596C20.645 15.6867 19.8134 14.1953 18.4032 13.3636C17.653 12.9478 16.8304 12.7851 15.9174 12.7851C15.1671 12.7851 14.1819 12.2879 14.1819 11.0495C14.1819 10.0552 14.9321 9.31398 15.9174 9.31398C16.749 9.31398 17.653 9.15127 18.4032 8.73546C19.8134 7.91287 20.645 6.41234 20.645 4.83949C20.645 3.26664 19.8134 1.77514 18.4032 0.943517C17.7434 0.527705 16.9117 0.364994 16.1615 0.364994C15.4293 0.346916 14.5886 0.509626 13.9287 0.925437Z" fill="white"/>
<path d="M64.1338 8.68097C64.1338 6.09571 64.1338 3.51045 64.1248 0.925187C64.1248 0.644966 64.1609 0.536492 64.4864 0.545532C65.2909 0.57265 66.0863 0.56361 66.8908 0.545532C67.162 0.536492 67.2253 0.62689 67.2253 0.889032C67.2162 4.19745 67.2162 7.50585 67.2162 10.8143C67.2162 12.7035 67.2072 14.5837 67.2253 16.4729C67.2253 16.726 67.1711 16.8255 66.8908 16.8164C66.0683 16.7983 65.2457 16.7983 64.4231 16.8164C64.179 16.8255 64.1338 16.7441 64.1338 16.5091C64.1429 13.8967 64.1338 11.2843 64.1338 8.68097Z" fill="white"/>
<path d="M28.7172 6.98114C29.4585 6.21279 30.2901 5.86929 31.2573 5.83313C31.3206 5.83313 31.3929 5.83313 31.4562 5.83313C32.5047 5.86025 32.5771 5.9416 32.5771 6.96305C32.5771 7.56869 32.568 8.18338 32.5861 8.78901C32.5951 9.04212 32.5047 9.06923 32.2968 9.00595C31.7454 8.82516 31.176 8.74381 30.5974 8.82516C29.4675 8.97883 28.7263 9.90989 28.7172 11.1573C28.7082 12.8477 28.7082 14.5471 28.7263 16.2375C28.7263 16.5629 28.6269 16.6262 28.3286 16.6171C27.515 16.599 26.7015 16.6081 25.8879 16.6171C25.6891 16.6171 25.6167 16.581 25.6258 16.364C25.6348 13.0285 25.6348 9.70199 25.6258 6.36646C25.6258 6.14047 25.689 6.08624 25.906 6.08624C26.7376 6.09528 27.5783 6.09528 28.4099 6.08624C28.6359 6.08624 28.7444 6.13143 28.7172 6.38453C28.6992 6.54724 28.7172 6.719 28.7172 6.98114Z" fill="white"/>
<path d="M33.9963 11.3208C33.9963 9.68471 34.0053 8.04858 33.9872 6.41245C33.9872 6.16839 34.0324 6.078 34.3036 6.08704C35.1352 6.10512 35.9759 6.10512 36.8075 6.08704C37.0335 6.08704 37.0877 6.15935 37.0877 6.36726C37.0787 9.68471 37.0787 13.0112 37.0877 16.3286C37.0877 16.5366 37.0516 16.6179 36.8165 16.6179C35.9849 16.5998 35.1443 16.5998 34.3126 16.6179C34.0595 16.627 33.9872 16.5546 33.9963 16.3015C34.0053 14.6383 33.9963 12.9841 33.9963 11.3208Z" fill="white"/>
<path d="M35.5327 4.51461C34.6197 4.50557 33.9508 3.87282 33.9598 3.01408C33.9689 2.17341 34.6468 1.53162 35.5237 1.53162C36.4547 1.53162 37.1507 2.16437 37.1598 3.02311C37.1598 3.88185 36.4637 4.51461 35.5327 4.51461Z" fill="white"/>
<path d="M50.2311 10.2093C49.5983 6.27712 45.8289 5.12912 43.1713 6.21385C42.7374 6.3856 42.3758 6.65678 41.9781 6.9822C41.9781 6.72909 41.96 6.5483 41.9781 6.35848C42.0052 6.12345 41.9058 6.07826 41.6888 6.07826C40.9024 6.0873 40.107 6.09634 39.3205 6.07826C39.0584 6.06922 39.0042 6.15961 39.0042 6.40367C39.0132 11.2578 39.0132 16.121 39.0042 20.9752C39.0042 21.2283 39.0493 21.3277 39.3296 21.3277C40.1521 21.3096 40.9747 21.3096 41.8064 21.3277C42.0504 21.3277 42.1047 21.2554 42.1047 21.0203C42.0956 19.4023 42.0956 17.7933 42.0956 16.1752C42.0956 16.0577 42.0956 15.9402 42.0956 15.7685C42.186 15.8317 42.2312 15.8589 42.2674 15.895C44.4097 17.495 47.5192 17.0792 49.1463 14.9549C50.2311 13.5448 50.5113 11.9267 50.2311 10.2093ZM44.6086 14.0239C43.1261 14.0058 42.0233 12.8578 42.0233 11.3301C42.0233 9.79344 43.1442 8.67256 44.6628 8.67256C46.1181 8.67256 47.239 9.8296 47.239 11.3301C47.2481 12.8578 46.1001 14.0419 44.6086 14.0239Z" fill="white"/>
<path d="M62.7773 10.2549C62.262 6.93742 59.4146 5.40073 56.6215 5.94309C55.8351 6.09676 55.13 6.41313 54.5063 7.01877C54.5063 6.75663 54.4972 6.5668 54.5063 6.37697C54.5243 6.16907 54.4791 6.07868 54.2351 6.08772C53.4306 6.1058 52.6351 6.1058 51.8306 6.08772C51.6046 6.08772 51.5413 6.15099 51.5504 6.36794C51.5594 11.2582 51.5594 16.1486 51.5504 21.0389C51.5504 21.2558 51.6046 21.3281 51.8306 21.3281C52.6622 21.3191 53.5029 21.31 54.3345 21.3281C54.6057 21.3372 54.6419 21.2377 54.6419 21.0027C54.6328 19.3846 54.6328 17.7756 54.6328 16.1576C54.6328 16.0491 54.6328 15.9406 54.6328 15.7689C56.6667 17.4773 60.3276 17.2423 61.9818 14.5215C62.8044 13.2017 63.0123 11.7644 62.7773 10.2549ZM57.1638 14.0243C55.6814 14.0243 54.5695 12.8763 54.5695 11.3486C54.5695 9.81194 55.6633 8.68202 57.1548 8.68202C58.6644 8.68202 59.8033 9.83906 59.7853 11.3667C59.7762 12.8763 58.6373 14.0243 57.1638 14.0243Z" fill="white"/>
<path d="M78.9129 9.90096C78.5694 8.31002 77.8101 7.01739 76.2824 6.29424C73.5706 5.01065 68.7707 6.27617 68.4272 10.9586C68.3097 12.5947 68.7978 14.0591 69.982 15.2432C71.0125 16.2737 72.287 16.7618 73.7243 16.8432C75.6858 16.9517 77.331 16.3008 78.5784 14.737C78.714 14.5653 78.705 14.4749 78.5242 14.3483C77.9186 13.9144 77.322 13.4625 76.7434 13.0015C76.5446 12.8478 76.4451 12.8388 76.2734 13.0467C75.6768 13.7698 74.9536 14.2489 73.9593 14.267C72.8836 14.2851 71.9978 13.7517 71.6452 12.8388C71.5458 12.5857 71.591 12.5043 71.8712 12.5133C73.0102 12.5224 74.1491 12.5224 75.2971 12.5224C76.4632 12.5224 77.6203 12.5224 78.7863 12.5224C78.9762 12.5224 79.0666 12.4953 79.0666 12.2693C79.0575 11.4648 79.0846 10.6783 78.9129 9.90096ZM75.6949 10.0456C75.044 10.0275 74.3842 10.0365 73.7333 10.0365C73.1006 10.0365 72.4678 10.0275 71.8441 10.0456C71.582 10.0546 71.5639 9.97327 71.6452 9.75633C71.9616 8.91567 72.5311 8.39138 73.4531 8.31906C74.0678 8.27387 74.6644 8.31907 75.1977 8.69872C75.5774 8.96087 75.7853 9.34051 75.9028 9.7744C75.966 9.97327 75.9299 10.0546 75.6949 10.0456Z" fill="white"/>
</g>
</svg>
