<svg width="83" height="21" viewBox="0 0 83 21" fill="none" xmlns="http://www.w3.org/2000/svg">
<g opacity="0.5">
<path fill-rule="evenodd" clip-rule="evenodd" d="M20.5025 10.7289C20.5025 16.3764 15.9243 20.9546 10.2768 20.9546C4.62929 20.9546 0.0510864 16.3764 0.0510864 10.7289C0.0510864 5.08137 4.62929 0.503174 10.2768 0.503174C15.9243 0.503174 20.5025 5.08137 20.5025 10.7289ZM11.3595 11.6792L11.3595 11.6809L11.3595 11.6825C13.824 11.5766 15.66 11.1441 15.6545 10.6204C15.6489 10.0967 13.8052 9.65414 11.3367 9.53471L11.3549 11.245C11.2833 11.2514 10.8996 11.2835 10.1314 11.2814C9.49182 11.2797 9.02768 11.2503 8.86644 11.2382L8.84824 9.52626C6.37888 9.63056 4.53797 10.0647 4.54353 10.5884C4.54912 11.1137 6.39772 11.5563 8.87107 11.6741L8.87105 11.6724C9.03063 11.6811 9.48164 11.7006 10.1245 11.7024C10.9285 11.7046 11.2896 11.684 11.3595 11.6792ZM11.3185 7.82607L11.3348 9.35739L11.3365 9.35905C14.1306 9.49759 16.2361 10.0685 16.2433 10.743C16.2505 11.4191 14.157 11.9769 11.3656 12.1002L11.4178 17.009L8.92933 17.0022L8.87715 12.0934C6.0797 11.9532 3.96936 11.3839 3.96218 10.7078C3.95499 10.0316 6.05173 9.47389 8.848 9.3506L8.83172 7.81928L5.38957 7.80989L5.36475 5.4748L14.7359 5.50038L14.7607 7.83547L11.3185 7.82607Z" fill="white"/>
<path d="M32.1254 5.25348V7.95717H34.7531V9.98585H32.1073V14.0993C32.1073 15.0078 32.6086 15.4511 33.3433 15.4511C33.7107 15.4511 34.136 15.3353 34.4834 15.1616L35.1403 17.1704C34.4653 17.44 33.9043 17.5558 33.1895 17.5757C31.1228 17.6535 29.771 16.4754 29.771 14.0993V9.98585H27.9938V7.95717H29.771V5.50503L32.1254 5.25348ZM77.4276 7.83049L77.6014 8.93079C78.3361 7.75268 79.3206 7.57895 80.2869 7.57895C81.2714 7.57895 82.2179 7.96441 82.7391 8.4856L81.6768 10.5324C81.1936 10.127 80.7502 9.91346 79.9775 9.91346C78.7415 9.91346 77.6014 10.5704 77.6014 12.3276V17.3495H75.2451V7.82687L77.4276 7.83049ZM71.6529 11.4807C71.499 10.2446 70.5327 9.62572 69.1808 9.62572C67.9068 9.62572 66.8626 10.2446 66.5151 11.4807H71.6529ZM66.4771 13.4315C66.6309 14.6096 67.6552 15.4602 69.3165 15.4602C70.1852 15.4602 71.3253 15.1308 71.8664 14.5716L73.3721 16.0592C72.3677 17.1016 70.7263 17.6047 69.2767 17.6047C65.9939 17.6047 64.0413 15.576 64.0413 12.5249C64.0413 9.62753 66.012 7.54094 69.103 7.54094C72.2899 7.54094 74.2806 9.51171 73.9132 13.4315H66.4771ZM56.0858 3.83105V9.12262C56.9364 8.02232 57.9788 7.69296 59.061 7.69296C61.7647 7.69296 62.9627 9.52799 62.9627 12.3294V17.3513H60.6065V12.3493C60.6065 10.6102 59.698 9.87727 58.4421 9.87727C57.0504 9.87727 56.0858 11.0554 56.0858 12.485V17.3531H53.7296V3.83286L56.0858 3.83105ZM49.8279 5.1449V7.84859H52.4556V9.87727H49.8098V13.9907C49.8098 14.8992 50.3129 15.3426 51.0458 15.3426C51.4132 15.3426 51.8385 15.2267 52.1859 15.053L52.8428 17.0618C52.1678 17.3314 51.6068 17.4472 50.892 17.4672C48.8253 17.545 47.4735 16.365 47.4735 13.9907V9.87727H45.6963V7.84859H47.4735V5.39645L49.8279 5.1449ZM43.3184 11.4807C43.1646 10.2446 42.1982 9.62572 40.8463 9.62572C39.5723 9.62572 38.5281 10.2446 38.1806 11.4807H43.3184ZM38.1426 13.4315C38.2965 14.6096 39.3208 15.4602 40.9821 15.4602C41.8507 15.4602 42.9908 15.1308 43.5319 14.5716L45.0376 16.0592C44.0332 17.1016 42.3918 17.6047 40.9422 17.6047C37.6576 17.6047 35.7068 15.576 35.7068 12.5249C35.7068 9.62753 37.6775 7.54094 40.7667 7.54094C43.9536 7.54094 45.9424 9.51171 45.5769 13.4315H38.1426Z" fill="white"/>
</g>
</svg>
