<svg width="77" height="24" viewBox="0 0 77 24" fill="none" xmlns="http://www.w3.org/2000/svg">
<g opacity="0.5">
<path d="M30.7687 17.911L30.576 10.3521L30.8907 10.353L31.0834 17.9119L30.7687 17.911Z" fill="white" stroke="white" stroke-width="0.742114"/>
<path d="M27.209 7.43421L27.1909 6.77507L36.7441 6.80145L36.7622 7.46058L27.209 7.43421Z" fill="white" stroke="white" stroke-width="0.742114"/>
<path d="M33.0591 17.9124L32.8663 10.3535L33.1811 10.3543L33.3738 17.9133L33.0591 17.9124Z" fill="white" stroke="white" stroke-width="0.742114"/>
<path d="M69.5692 13.4158L69.6886 17.9206L69.3218 17.9195L69.1899 12.9427L69.5692 13.4158Z" fill="white" stroke="white" stroke-width="0.742114"/>
<path d="M67.4348 8.97884L67.6983 17.9611L67.2134 17.9593L66.8796 6.58213L75.2015 16.0206L75.877 16.7868L75.8475 15.7819L75.584 6.80256L76.0744 6.80432L76.4083 18.1818L68.0808 8.74006L67.4053 7.97423L67.4348 8.97884Z" fill="white" stroke="white" stroke-width="0.742114"/>
<path d="M52.8419 12.3577C52.7498 9.24569 55.0899 6.75306 58.0235 6.7636C60.9571 6.77414 63.4454 9.28691 63.5374 12.3961C63.6295 15.5082 61.2894 18.0008 58.3558 17.9903C55.4221 17.9797 52.934 15.4697 52.8419 12.3577ZM53.3322 12.3595C53.4144 15.1392 55.6459 17.4329 58.3396 17.4426C61.0333 17.4523 63.1293 15.171 63.0471 12.3944C62.9649 9.61468 60.7334 7.32092 58.0397 7.31124C55.3432 7.30155 53.2499 9.57992 53.3322 12.3595Z" fill="white" stroke="white" stroke-width="0.742114"/>
<path d="M57.7383 12.3741C57.7298 12.0882 57.9417 11.8853 58.1763 11.8861C58.4109 11.887 58.6348 12.0914 58.6433 12.3773C58.6518 12.6632 58.4399 12.8661 58.2053 12.8653C57.9707 12.8644 57.7468 12.66 57.7383 12.3741Z" fill="white" stroke="white" stroke-width="0.742114"/>
<path d="M47.2531 13.7249L49.501 17.961L48.8909 17.9593L46.5671 13.5619L46.4612 13.3614L46.2356 13.3608L43.3215 13.3529L42.9504 13.3519L42.9543 13.7229L42.9992 17.9461L42.4972 17.9447L42.4426 12.8048L46.4919 12.8185L46.4919 12.8185L46.4965 12.8185C47.9547 12.8056 49.1012 11.5828 49.0855 10.1C49.0696 8.60991 47.8805 7.37396 46.4089 7.36995L40.9897 7.35517L40.6186 7.35416L40.6226 7.7252L40.7311 17.9399L40.2291 17.9386L40.1109 6.80686L46.4031 6.82402C48.1441 6.82876 49.5936 8.29036 49.6128 10.1014C49.6277 11.5048 48.7344 12.7726 47.4578 13.2026L47.0491 13.3403L47.2531 13.7249Z" fill="white" stroke="white" stroke-width="0.742114"/>
<path d="M18.0675 5.27425L17.828 5.04677L17.5743 5.25822L13.0128 9.05998L11.9319 9.96089L13.3165 9.71013L20.5087 8.40765L21.2284 8.27731L20.6982 7.77353L18.0675 5.27425ZM11.4511 9.37071L11.6886 9.56766L11.9256 9.3701L16.7327 5.36269L17.3406 4.85595L16.5623 4.71274L4.17444 2.4334L2.77563 2.17602L3.87043 3.08395L11.4511 9.37071ZM11.5136 10.2435L11.5379 10.0427L11.3822 9.91354L3.48453 3.35828L2.9027 3.78081L9.56649 20.5531L10.2797 20.4606L11.5136 10.2435ZM12.2217 10.3738L11.9522 10.4226L11.9194 10.6945L10.7512 20.3802L10.5987 21.6444L11.4064 20.6601L20.5381 9.53184L21.1785 8.75141L20.1851 8.93134L12.2217 10.3738ZM10.0551 23.0247L1.48936 1.47371L17.9104 4.49433L22.0392 8.42217L10.0551 23.0247Z" fill="#EB0029" stroke="white" stroke-width="0.742114"/>
</g>
</svg>
