<svg width="20" height="12" viewBox="0 0 20 12" fill="none" xmlns="http://www.w3.org/2000/svg">
<g filter="url(#filter0_d_22_4078)">
<path d="M17.494 7.51664H17.1515C17.0258 7.51121 16.9054 7.46438 16.809 7.38344C16.7343 7.3121 16.6843 7.21878 16.6663 7.11705C16.6663 6.98386 16.6663 6.82212 16.6663 6.65087C16.6663 6.13711 16.6663 5.59482 16.6092 5.04301C16.5522 4.49119 16.6092 3.4066 16.6092 3.4066V2.34104C16.6019 2.14638 16.6179 1.95155 16.6568 1.76068C16.6809 1.63438 16.7524 1.52207 16.8566 1.44672C17.0156 1.37328 17.1863 1.3282 17.3608 1.31353H17.5797C17.5932 1.29219 17.6004 1.26744 17.6004 1.24217C17.6004 1.2169 17.5932 1.19215 17.5797 1.17082C17.5738 1.14823 17.5631 1.12718 17.5483 1.10911C17.5335 1.09105 17.515 1.07639 17.494 1.06616C17.3133 1.06616 17.142 1.06616 16.9803 1.06616H16.2001C16.0669 1.06616 15.9242 1.06616 15.734 1.06616C15.7019 1.35849 15.6249 1.64411 15.5056 1.91291L14.9253 3.1307L13.9168 5.14766L13.5172 5.97537C13.3897 6.24962 13.2467 6.51643 13.0891 6.77455C12.9559 6.52719 12.8417 6.29885 12.718 6.05149L12.3565 5.28085L11.1007 2.80722C10.9389 2.46472 10.7867 2.12221 10.6725 1.85582C10.5833 1.60216 10.5382 1.33506 10.5393 1.06616C10.3681 1.06616 10.2063 1.06616 10.0541 1.06616H9.293H8.87438C8.8549 1.07841 8.83866 1.09519 8.82707 1.11507C8.81547 1.13495 8.80886 1.15734 8.80778 1.18033C8.79609 1.20058 8.78994 1.22355 8.78994 1.24693C8.78994 1.27031 8.79609 1.29328 8.80778 1.31353H8.96952C9.121 1.34543 9.27034 1.38674 9.41668 1.43721C9.46569 1.46761 9.50789 1.50781 9.54063 1.55529C9.57338 1.60276 9.59596 1.6565 9.60696 1.71311C9.63343 1.87696 9.63343 2.04399 9.60696 2.20784C9.60696 2.49326 9.60696 2.83576 9.60696 3.22584C9.60696 3.61591 9.60696 4.03452 9.54036 4.45314C9.47376 4.87175 9.54036 5.07155 9.48328 5.31891C9.42619 5.56627 9.48328 5.80412 9.42619 6.01343C9.36911 6.22274 9.42619 6.45107 9.42619 6.6699C9.41328 6.8449 9.37811 7.01754 9.32154 7.18365C9.30776 7.23182 9.28358 7.27638 9.2507 7.31419C9.21782 7.352 9.17705 7.38214 9.13126 7.40247C9.02625 7.45229 8.91374 7.48444 8.79827 7.49761H8.57945C8.57945 7.49761 8.52236 7.56421 8.57945 7.63081C8.58 7.65423 8.58534 7.67729 8.59516 7.69857C8.60498 7.71984 8.61906 7.73887 8.63653 7.75449H9.1598H10.2063L10.7867 7.80206C10.8097 7.78278 10.8264 7.75715 10.8349 7.72838C10.8434 7.6996 10.8431 7.66897 10.8343 7.64032C10.8452 7.61812 10.8509 7.59371 10.8509 7.56897C10.8509 7.54423 10.8452 7.51981 10.8343 7.49761H10.4252C10.3165 7.49656 10.2106 7.46346 10.1207 7.40247C10.0394 7.32537 9.99162 7.21949 9.98752 7.10754C9.95483 6.90589 9.95483 6.70029 9.98752 6.49864C9.98752 6.04197 9.98752 5.59482 9.98752 5.14766C9.98752 4.7005 9.98752 4.30092 9.98752 3.96793C9.98752 3.63494 10.0351 3.34 10.0446 3.01653C10.0541 2.69305 10.0446 2.37909 10.0922 2.06513L10.4252 2.94042L10.7677 3.70153L11.7191 5.74704C11.8047 5.91829 11.8998 6.1276 12.014 6.38448C12.1282 6.64135 12.2709 6.91726 12.385 7.17414C12.4863 7.3963 12.5721 7.62518 12.6419 7.85914H12.6895C12.714 7.8687 12.7411 7.8687 12.7656 7.85914C12.8417 7.68789 12.9273 7.47858 13.051 7.22171C13.1747 6.96483 13.2984 6.6699 13.4411 6.37496C13.5838 6.08003 13.7551 5.75655 13.9263 5.42356L14.8777 3.57785C14.9443 3.42563 15.0204 3.25438 15.1156 3.0641L15.401 2.5218C15.4771 2.35055 15.5627 2.9975 15.5627 2.9975H15.5912V6.61281C15.6847 6.77365 15.7184 6.96234 15.6864 7.14559C15.6854 7.1968 15.6718 7.24698 15.6469 7.29176C15.6221 7.33653 15.5866 7.37454 15.5437 7.40247C15.4866 7.46907 15.3724 7.49761 15.1821 7.51664H14.8682C14.8682 7.51664 14.8682 7.58324 14.8682 7.65935C14.8704 7.70644 14.8908 7.75082 14.9253 7.78303C15.1441 7.78303 15.3724 7.78303 15.5817 7.72595H16.8186C17.0279 7.72595 17.2467 7.77352 17.456 7.78303C17.4766 7.77027 17.4929 7.75174 17.5031 7.72976C17.5132 7.70777 17.5167 7.68329 17.5131 7.65935C17.5219 7.63584 17.5248 7.6105 17.5215 7.5856C17.5182 7.5607 17.5087 7.53701 17.494 7.51664Z" fill="white"/>
<path d="M7.40928 1.15182C7.13562 0.998081 6.84064 0.885859 6.53399 0.818835C6.15656 0.757899 5.77461 0.729253 5.39231 0.733209C4.96418 0.733209 4.58363 0.733209 4.24112 0.733209C3.89862 0.733209 3.59417 0.733209 3.28972 0.790293C3.26667 0.805748 3.24827 0.827213 3.23654 0.852366C3.2248 0.87752 3.22016 0.905404 3.22313 0.933003C3.22003 0.962984 3.22799 0.993064 3.24551 1.01759C3.26303 1.04212 3.2889 1.0594 3.31827 1.0662H3.6798C3.80524 1.06422 3.92706 1.10822 4.0223 1.18988C4.0767 1.23405 4.11914 1.29116 4.14574 1.35599C4.17234 1.42081 4.18223 1.49128 4.17452 1.56093C4.18734 1.78591 4.18734 2.01144 4.17452 2.23642V4.36755C4.49137 4.38658 4.80908 4.38658 5.12592 4.36755V1.38967C5.10027 1.29949 5.10027 1.20395 5.12592 1.11377C5.14062 1.08696 5.16102 1.0637 5.18567 1.04562C5.21033 1.02754 5.23864 1.01508 5.26863 1.00911H5.69676C5.93804 0.992255 6.18024 1.02399 6.40903 1.10243C6.63782 1.18087 6.84854 1.30443 7.02872 1.46579C7.33146 1.81209 7.48831 2.26218 7.46636 2.72163C7.49084 3.15133 7.3628 3.57587 7.10483 3.92039C6.86224 4.21748 6.52741 4.42508 6.15343 4.51026C5.54823 4.62257 4.93203 4.66407 4.31723 4.63394C3.67028 4.61491 2.99479 4.57686 2.27173 4.51026C2.83392 4.64027 3.40231 4.74188 3.97473 4.81471C4.6408 4.90551 5.31611 4.90551 5.98218 4.81471C6.28393 4.768 6.58031 4.69151 6.86698 4.58637C7.14176 4.46083 7.40314 4.30783 7.64713 4.1297C7.82638 3.98725 7.96975 3.80478 8.06574 3.59692C8.17751 3.33855 8.23577 3.06022 8.23699 2.77871C8.2364 2.44453 8.1478 2.11639 7.98012 1.82732C7.85115 1.55677 7.65453 1.3241 7.40928 1.15182Z" fill="white"/>
<path d="M5.90599 7.4595C5.72363 7.46592 5.5429 7.4232 5.38272 7.33582C5.32039 7.29165 5.26791 7.23502 5.22861 7.16951C5.1893 7.104 5.16403 7.03105 5.15438 6.95526C5.12685 6.67686 5.12685 6.39643 5.15438 6.11803V5.10004C4.83795 5.12991 4.51941 5.12991 4.20299 5.10004V6.15609C4.20701 6.43594 4.19111 6.71572 4.15542 6.99332C4.15916 7.06512 4.14346 7.13661 4.10997 7.20024C4.07648 7.26387 4.02645 7.31728 3.96514 7.35485C3.82802 7.45636 3.65978 7.50683 3.48944 7.49756H3.25159C3.22907 7.51281 3.21221 7.53505 3.20361 7.56085C3.19501 7.58665 3.19516 7.61456 3.20402 7.64027C3.20178 7.66645 3.20681 7.69274 3.21857 7.71624C3.23032 7.73974 3.24833 7.75955 3.27062 7.77346L3.95562 7.72589H5.34466L6.20092 7.77346C6.20092 7.77346 6.20092 7.69735 6.26752 7.64027C6.2772 7.61773 6.2822 7.59345 6.2822 7.56891C6.2822 7.54438 6.2772 7.5201 6.26752 7.49756L5.90599 7.4595Z" fill="white"/>
</g>
<defs>
<filter id="filter0_d_22_4078" x="0.271729" y="0.732849" width="19.3286" height="11.1335" filterUnits="userSpaceOnUse" color-interpolation-filters="sRGB">
<feFlood flood-opacity="0" result="BackgroundImageFix"/>
<feColorMatrix in="SourceAlpha" type="matrix" values="0 0 0 0 0 0 0 0 0 0 0 0 0 0 0 0 0 0 127 0" result="hardAlpha"/>
<feOffset dy="2"/>
<feGaussianBlur stdDeviation="1"/>
<feColorMatrix type="matrix" values="0 0 0 0 0 0 0 0 0 0 0 0 0 0 0 0 0 0 0.25 0"/>
<feBlend mode="normal" in2="BackgroundImageFix" result="effect1_dropShadow_22_4078"/>
<feBlend mode="normal" in="SourceGraphic" in2="effect1_dropShadow_22_4078" result="shape"/>
</filter>
</defs>
</svg>
