<svg width="370" height="255" viewBox="0 0 370 255" fill="none" xmlns="http://www.w3.org/2000/svg">
<path d="M363.993 3.02964L358.195 0.806274L352.413 3.02964L346.632 0.806274L340.85 3.02964L335.069 0.806274L329.287 3.02964L323.506 0.806274L317.725 3.02964L311.943 0.806274L306.162 3.02964L300.38 0.806274L294.599 3.02964L288.817 0.806274L283.036 3.02964L277.255 0.806274L271.473 3.02964L265.709 0.806274L259.928 3.02964L254.146 0.806274L248.365 3.02964L242.583 0.806274L236.802 3.02964L231.02 0.806274L225.256 3.02964L219.475 0.806274L213.693 3.02964L207.912 0.806274L202.148 3.02964L196.366 0.806274L190.585 3.02964L184.821 0.806274L179.039 3.02964L173.258 0.806274L167.493 3.02964L161.712 0.806274L155.948 3.02964L150.166 0.806274L144.402 3.02964L138.621 0.806274L132.839 3.02964L127.075 0.806274L121.293 3.02964L115.529 0.806274L109.748 3.02964L103.966 0.806274L98.1849 3.02964L92.4207 0.806274L86.6392 3.02964L80.8578 0.806274L75.0935 3.02964L69.3121 0.806274L63.5307 3.02964L57.7493 0.806274L51.985 3.02964L46.2036 0.806274L40.4222 3.02964L34.6579 0.806274L28.8765 3.02964L23.0951 0.806274L17.3308 3.02964L11.5494 0.806274L5.76793 3.02964L0.00366211 0.806274V4.69715V18.902V235.919V247.244V254.014L5.7851 251.791L11.5837 254.014L17.3651 251.791L23.1465 254.014L28.9279 251.791L34.7094 254.014L40.4908 251.791L46.2722 254.014L52.0536 251.791L57.8351 254.014L63.6165 251.791L69.3979 254.014L75.1793 251.791L80.9607 254.014L86.7422 251.791L92.5236 254.014L98.305 251.791L104.069 254.014L109.851 251.791L115.632 254.014L121.414 251.791L127.195 254.014L132.976 251.791L138.758 254.014L144.522 251.791L150.304 254.014L156.085 251.791L161.866 254.014L167.631 251.791L173.412 254.014L179.193 251.791L184.958 254.014L190.739 251.791L196.521 254.014L202.285 251.791L208.066 254.014L213.831 251.791L219.612 254.014L225.376 251.791L231.158 254.014L236.939 251.791L242.703 254.014L248.485 251.791L254.249 254.014L260.03 251.791L265.812 254.014L271.593 251.791L277.358 254.014L283.139 251.791L288.92 254.014L294.685 251.791L300.466 254.014L306.248 251.791L312.029 254.014L317.793 251.791L323.575 254.014L329.356 251.791L335.12 254.014L340.902 251.791L346.683 254.014L352.447 251.791L358.229 254.014L364.01 251.791L369.775 254.014V247.244V235.919V18.902V4.69715V0.806274L363.993 3.02964Z" fill="#EBEBEB"/>
</svg>
