<svg width="14" height="19" viewBox="0 0 14 19" fill="none" xmlns="http://www.w3.org/2000/svg">
<path d="M12.2549 5.70948C12.0686 3.73449 10.3651 3.0664 8.21174 2.87209V0.13052H6.54816V2.79224C6.10898 2.79224 5.65915 2.79224 5.2173 2.79224V0.119873H3.54841V2.86144C3.18907 2.86144 2.8324 2.86144 2.48372 2.86144H0.183993L0.173346 4.6448C0.173346 4.6448 1.40572 4.6235 1.38443 4.6448C2.0605 4.6448 2.28143 5.03873 2.34265 5.37677V8.50163C2.40204 8.49826 2.46158 8.49826 2.52098 8.50163H2.33732L2.32401 12.8961C2.30979 13.0494 2.23604 13.191 2.1186 13.2905C2.00116 13.3901 1.84939 13.4396 1.69585 13.4285C1.71714 13.4471 0.482105 13.4285 0.482105 13.4285L0.146729 15.4248H2.31869H3.51114V18.1983H5.18004V15.4567C5.63786 15.4567 6.0797 15.4727 6.5109 15.4727V18.2036H8.1798V15.4354C10.9852 15.3076 12.9496 14.605 13.1892 11.9725C13.3914 9.84313 12.3906 8.90089 10.7936 8.51227C11.7625 8.01986 12.3693 7.1548 12.2309 5.70682L12.2549 5.70948ZM9.90459 11.6318C9.90459 13.7053 6.35386 13.4604 5.22263 13.4578V9.78458C6.35386 9.78458 9.90193 9.47316 9.89661 11.6318H9.90459ZM9.14068 6.44944C9.14068 8.33394 6.17818 8.10503 5.23594 8.10503V4.77256C6.18617 4.77522 9.146 4.48243 9.14068 6.44944Z" fill="white"/>
</svg>
