<svg width="15" height="13" viewBox="0 0 15 13" fill="none" xmlns="http://www.w3.org/2000/svg">
<path d="M8.84881 4.35893V2.68603H12.6729V0.138184H2.27386V2.68603H6.0863V4.3566C2.97382 4.49893 0.640625 5.11489 0.640625 5.85218C0.640625 6.58947 2.97382 7.20543 6.0863 7.34776V12.7141H8.85114V7.34776C11.952 7.20543 14.2852 6.58947 14.2852 5.85218C14.2852 5.11489 11.952 4.50126 8.84881 4.35893ZM8.84881 6.89512C8.76948 6.89512 8.36817 6.92312 7.47689 6.92312C6.76293 6.92312 6.26129 6.90212 6.07697 6.89279C3.3308 6.77379 1.28225 6.29549 1.28225 5.72619C1.28225 5.15689 3.3308 4.67625 6.07697 4.55959V6.42615C6.25663 6.42615 6.77693 6.46814 7.47689 6.46814C8.32851 6.46814 8.75781 6.43315 8.83714 6.42615V4.55959C11.5763 4.68092 13.6225 5.15922 13.6225 5.72619C13.6225 6.29315 11.5903 6.77146 8.85114 6.90445L8.84881 6.89512Z" fill="white"/>
</svg>
