<svg width="28" height="16" viewBox="0 0 28 16" fill="none" xmlns="http://www.w3.org/2000/svg">
<g filter="url(#filter0_d_22_8700)">
<path d="M25.5184 11.2073H24.9902C24.7963 11.1989 24.6107 11.1267 24.4621 11.0019C24.3468 10.8919 24.2698 10.748 24.242 10.5911C24.242 10.3858 24.242 10.1364 24.242 9.87228C24.242 9.08005 24.242 8.24382 24.154 7.39291C24.0659 6.542 24.154 4.86952 24.154 4.86952V3.22639C24.1427 2.92623 24.1673 2.62579 24.2273 2.33147C24.2645 2.13671 24.3747 1.96353 24.5354 1.84733C24.7807 1.73409 25.0438 1.66458 25.313 1.64194H25.6504C25.6713 1.60904 25.6824 1.57087 25.6824 1.53191C25.6824 1.49294 25.6713 1.45478 25.6504 1.42188C25.6413 1.38704 25.6248 1.35458 25.6021 1.32673C25.5793 1.29887 25.5507 1.27628 25.5184 1.2605C25.2396 1.2605 24.9755 1.2605 24.7261 1.2605H23.5231C23.3177 1.2605 23.0977 1.2605 22.8043 1.2605C22.7549 1.71127 22.6361 2.15171 22.4522 2.5662L21.5572 4.44407L20.0021 7.55429L19.386 8.83065C19.1893 9.25354 18.9689 9.66498 18.7258 10.063V10.063C18.5204 9.68156 18.3443 9.32946 18.1536 8.94801L17.5961 7.75968L15.6596 3.94526C15.4102 3.41711 15.1754 2.88896 14.9994 2.47818C14.8617 2.08703 14.7923 1.67515 14.794 1.2605C14.5299 1.2605 14.2805 1.2605 14.0458 1.2605H12.8721H12.2266C12.1965 1.27939 12.1715 1.30526 12.1536 1.33592C12.1357 1.36657 12.1255 1.4011 12.1239 1.43655C12.1059 1.46777 12.0964 1.50319 12.0964 1.53924C12.0964 1.5753 12.1059 1.61072 12.1239 1.64194H12.3733C12.6069 1.69114 12.8372 1.75484 13.0628 1.83266C13.1384 1.87954 13.2035 1.94153 13.254 2.01474C13.3045 2.08795 13.3393 2.17081 13.3562 2.25811C13.3971 2.51077 13.3971 2.76834 13.3562 3.021C13.3562 3.46112 13.3562 3.98927 13.3562 4.59078C13.3562 5.19228 13.3562 5.8378 13.2535 6.48332C13.1508 7.12883 13.2535 7.43692 13.1655 7.81836C13.0775 8.1998 13.1655 8.56657 13.0775 8.88933C12.9895 9.21209 13.0775 9.56419 13.0775 9.90162C13.0576 10.1715 13.0034 10.4377 12.9161 10.6938C12.8949 10.7681 12.8576 10.8368 12.8069 10.8951C12.7562 10.9534 12.6933 10.9999 12.6227 11.0313C12.4608 11.1081 12.2873 11.1577 12.1092 11.178H11.7718C11.7718 11.178 11.6838 11.2807 11.7718 11.3834C11.7726 11.4195 11.7809 11.4551 11.796 11.4879C11.8112 11.5207 11.8329 11.55 11.8598 11.5741H12.6667H14.2805L15.1754 11.6474C15.2109 11.6177 15.2367 11.5782 15.2498 11.5338C15.2628 11.4895 15.2625 11.4422 15.2488 11.398C15.2656 11.3638 15.2744 11.3262 15.2744 11.288C15.2744 11.2499 15.2656 11.2122 15.2488 11.178H14.6179C14.4504 11.1764 14.2871 11.1253 14.1485 11.0313C14.0231 10.9124 13.9494 10.7491 13.9431 10.5765C13.8927 10.2655 13.8927 9.94849 13.9431 9.63754C13.9431 8.93334 13.9431 8.24381 13.9431 7.55429C13.9431 6.86476 13.9431 6.24858 13.9431 5.7351C13.9431 5.22162 14.0164 4.76683 14.0311 4.26802C14.0458 3.76921 14.0311 3.28507 14.1045 2.80094L14.6179 4.15065L15.1461 5.32432L16.6132 8.47855C16.7452 8.74262 16.8919 9.06538 17.068 9.46149C17.244 9.85761 17.4641 10.2831 17.6401 10.6792C17.7962 11.0218 17.9286 11.3747 18.0362 11.7355H18.1096C18.1473 11.7502 18.1892 11.7502 18.227 11.7355C18.227 11.7355 18.227 11.7355 18.227 11.7355C18.3443 11.4714 18.4764 11.1486 18.6671 10.7525C18.8578 10.3564 19.0485 9.90162 19.2686 9.44682C19.4886 8.99203 19.7527 8.49322 20.0168 7.97974L21.4839 5.1336C21.5866 4.89886 21.7039 4.63479 21.8507 4.34137L22.2908 3.50514C22.4081 3.24106 22.5402 4.23868 22.5402 4.23868H22.5842V9.81359C22.7283 10.0616 22.7803 10.3526 22.7309 10.6352C22.7293 10.7141 22.7084 10.7915 22.6701 10.8606C22.6317 10.9296 22.577 10.9882 22.5108 11.0313C22.4228 11.134 22.2468 11.178 21.9533 11.2073H21.4692C21.4692 11.2073 21.4692 11.31 21.4692 11.4274C21.4726 11.5 21.5041 11.5684 21.5572 11.6181C21.8947 11.6181 22.2468 11.6181 22.5695 11.5301H24.4767C24.7995 11.5301 25.1369 11.6034 25.4597 11.6181C25.4914 11.5984 25.5167 11.5699 25.5323 11.536C25.548 11.5021 25.5533 11.4643 25.5477 11.4274C25.5613 11.3911 25.5658 11.3521 25.5607 11.3137C25.5556 11.2753 25.541 11.2387 25.5184 11.2073V11.2073Z" fill="white"/>
<path d="M9.96742 1.39265C9.54543 1.15558 9.09056 0.982527 8.6177 0.879174C8.03569 0.785209 7.44672 0.741037 6.8572 0.747137C6.19701 0.747137 5.61018 0.747137 5.08203 0.747137C4.55388 0.747137 4.08441 0.747137 3.61495 0.835162C3.57939 0.858994 3.55103 0.892094 3.53293 0.930881C3.51483 0.969668 3.50768 1.01267 3.51225 1.05522C3.50748 1.10146 3.51975 1.14784 3.54677 1.18566C3.57378 1.22348 3.61368 1.25014 3.65896 1.26062H4.21645C4.40988 1.25757 4.59774 1.32541 4.7446 1.45134C4.82849 1.51944 4.89393 1.60751 4.93495 1.70748C4.97596 1.80744 4.99122 1.9161 4.97933 2.0235C4.9991 2.37043 4.9991 2.7182 4.97933 3.06513V6.3514C5.46792 6.38074 5.95783 6.38074 6.44642 6.3514V1.75942C6.40686 1.62036 6.40686 1.47303 6.44642 1.33397C6.46908 1.29263 6.50053 1.25676 6.53855 1.22888C6.57657 1.201 6.62024 1.18179 6.66648 1.17259H7.32667C7.69872 1.14659 8.07221 1.19552 8.42501 1.31648C8.77781 1.43745 9.10275 1.62798 9.38058 1.87679C9.84742 2.4108 10.0893 3.10486 10.0554 3.81334C10.0932 4.47595 9.89575 5.13061 9.49795 5.66187C9.12387 6.11999 8.60755 6.44011 8.03087 6.57146C7.09764 6.74464 6.14742 6.80865 5.1994 6.76218C4.20178 6.73284 3.16015 6.67415 2.04517 6.57146C2.91209 6.77194 3.78856 6.92863 4.67125 7.04092C5.69834 7.18095 6.73969 7.18095 7.76679 7.04092C8.2321 6.9689 8.68912 6.85095 9.13118 6.68883C9.55489 6.49524 9.95795 6.25931 10.3342 5.98463C10.6106 5.76497 10.8317 5.48359 10.9797 5.16306C11.1521 4.76465 11.2419 4.33545 11.2438 3.90137C11.2429 3.38604 11.1062 2.88004 10.8477 2.43428C10.6488 2.0171 10.3456 1.65831 9.96742 1.39265V1.39265Z" fill="white"/>
<path d="M7.64922 11.1193C7.36802 11.1292 7.08933 11.0633 6.84232 10.9286C6.74621 10.8605 6.66529 10.7732 6.60468 10.6721C6.54407 10.5711 6.50509 10.4586 6.49022 10.3418C6.44776 9.91247 6.44776 9.48003 6.49022 9.05074V7.48096C6.00228 7.52702 5.51108 7.52702 5.02314 7.48096V9.10942C5.02935 9.54096 5.00483 9.97239 4.94979 10.4005C4.95556 10.5112 4.93135 10.6214 4.87971 10.7195C4.82807 10.8177 4.75091 10.9 4.65637 10.9579C4.44494 11.1145 4.18551 11.1923 3.92283 11.178H3.55606C3.52134 11.2015 3.49534 11.2358 3.48208 11.2756C3.46882 11.3154 3.46904 11.3584 3.4827 11.3981C3.47925 11.4384 3.48701 11.479 3.50514 11.5152C3.52326 11.5515 3.55103 11.582 3.5854 11.6035L4.6417 11.5301H6.78364L8.10401 11.6035C8.10401 11.6035 8.10401 11.4861 8.20671 11.3981C8.22164 11.3633 8.22935 11.3259 8.22935 11.288C8.22935 11.2502 8.22164 11.2128 8.20671 11.178L7.64922 11.1193Z" fill="white"/>
</g>
<defs>
<filter id="filter0_d_22_8700" x="0.045166" y="0.746582" width="27.6372" height="15" filterUnits="userSpaceOnUse" color-interpolation-filters="sRGB">
<feFlood flood-opacity="0" result="BackgroundImageFix"/>
<feColorMatrix in="SourceAlpha" type="matrix" values="0 0 0 0 0 0 0 0 0 0 0 0 0 0 0 0 0 0 127 0" result="hardAlpha"/>
<feOffset dy="2"/>
<feGaussianBlur stdDeviation="1"/>
<feColorMatrix type="matrix" values="0 0 0 0 0 0 0 0 0 0 0 0 0 0 0 0 0 0 0.25 0"/>
<feBlend mode="normal" in2="BackgroundImageFix" result="effect1_dropShadow_22_8700"/>
<feBlend mode="normal" in="SourceGraphic" in2="effect1_dropShadow_22_8700" result="shape"/>
</filter>
</defs>
</svg>
