<svg width="12" height="11" viewBox="0 0 12 11" fill="none" xmlns="http://www.w3.org/2000/svg">
<path d="M5.99999 0.336182C3.09739 0.336182 0.735992 2.69758 0.735992 5.60018C0.735992 8.50278 3.09739 10.8642 5.99999 10.8642C8.90259 10.8642 11.264 8.50278 11.264 5.60018C11.264 2.69758 8.90259 0.336182 5.99999 0.336182ZM5.99999 10.4162C3.34439 10.4162 1.18399 8.25578 1.18399 5.60018C1.18399 2.94458 3.34439 0.784182 5.99999 0.784182C8.65559 0.784182 10.816 2.94458 10.816 5.60018C10.816 8.25578 8.65559 10.4162 5.99999 10.4162ZM4.76327 6.62658C4.38765 6.62658 3.44147 6.85306 3.32819 7.42088L3.25233 7.87628C3.23194 7.99839 3.31452 8.1137 3.43655 8.13402C3.44897 8.13613 3.46139 8.13707 3.4735 8.13707C3.58116 8.13707 3.676 8.05949 3.69428 7.9498L3.76874 7.50144C3.80905 7.2994 4.39608 7.07448 4.76328 7.07448C4.88695 7.07448 4.98726 6.97409 4.98726 6.8505C4.98742 6.72683 4.88703 6.6266 4.76328 6.6266L4.76327 6.62658ZM8.01867 7.41354C7.91156 6.87878 7.09969 6.62956 6.58461 6.62956C6.46094 6.62956 6.36063 6.72995 6.36063 6.85354C6.36063 6.97721 6.46102 7.07752 6.58461 7.07752C7.02679 7.07752 7.53821 7.29534 7.57805 7.49424L7.65391 7.94956C7.67219 8.05917 7.76704 8.13683 7.87469 8.13683C7.8868 8.13683 7.8993 8.13581 7.91165 8.13378C8.03376 8.11339 8.11619 7.998 8.09587 7.87604L8.01867 7.41354ZM6.60781 6.30948L6.61961 6.29167C6.74594 6.1019 6.90665 5.70871 6.98179 5.51643C7.10421 5.45424 7.18819 5.32729 7.18819 5.18089V4.87745C7.18819 4.75401 7.1285 4.64449 7.03639 4.57597V4.498C7.03639 3.73996 6.52709 3.28738 5.67413 3.28738C4.82117 3.28738 4.31187 3.73996 4.31187 4.498V4.57808C4.22039 4.64738 4.16 4.75691 4.16 4.87754V5.18098C4.16 5.32739 4.24414 5.45434 4.36656 5.51652C4.44179 5.70894 4.60234 6.10214 4.7289 6.29192L4.74054 6.30942C4.84679 6.47067 5.045 6.77106 5.6743 6.77106C6.30328 6.7709 6.5014 6.47074 6.60782 6.3095L6.60781 6.30948ZM6.23383 6.06276C6.15329 6.18472 6.06212 6.32292 5.67415 6.32292C5.28595 6.32292 5.19493 6.18472 5.11439 6.0626L5.10166 6.04323C4.989 5.87424 4.8065 5.41627 4.74572 5.25409C4.72166 5.1901 4.67033 5.1419 4.60806 5.12073V4.93784C4.69642 4.90768 4.75994 4.82416 4.75994 4.72558V4.49784C4.75994 3.99182 5.06752 3.73526 5.67416 3.73526C6.28088 3.73526 6.58838 3.99182 6.58838 4.49784V4.72558C6.58838 4.82401 6.6519 4.90769 6.74018 4.93768V5.12072C6.67775 5.14189 6.62658 5.19018 6.60268 5.25408C6.54174 5.41627 6.35907 5.87432 6.24673 6.04314L6.23383 6.06276ZM9.11883 3.55616H8.40203V2.83936C8.40203 2.71569 8.30164 2.61538 8.17805 2.61538C8.05438 2.61538 7.95407 2.71577 7.95407 2.83936V3.55616H7.23735C7.11368 3.55616 7.01337 3.65655 7.01337 3.78014C7.01337 3.90381 7.11376 4.00412 7.23735 4.00412H7.95407V4.72092C7.95407 4.84459 8.05446 4.9449 8.17805 4.9449C8.30173 4.9449 8.40203 4.84451 8.40203 4.72092V4.00412H9.11883C9.24251 4.00412 9.34281 3.90373 9.34281 3.78014C9.34289 3.65647 9.2425 3.55616 9.11883 3.55616Z" fill="white"/>
</svg>
