<svg width="12" height="12" viewBox="0 0 12 12" fill="none" xmlns="http://www.w3.org/2000/svg">
<path d="M1.41118 8.18571C1.33444 7.99366 1.10395 7.89777 0.912018 7.9745C0.719963 8.05125 0.624072 8.26245 0.700811 8.47367C1.12321 9.5104 1.83358 10.3937 2.75528 11.0081C3.63855 11.6033 4.71371 11.9681 5.86564 11.9681C7.40168 11.9681 8.78408 11.3345 9.78244 10.3361C10.8 9.31847 11.4145 7.93607 11.4145 6.40007C11.4145 4.86404 10.8 3.48164 9.78244 2.46407C8.78401 1.46564 7.40161 0.832001 5.86564 0.832001C4.71358 0.832001 3.63841 1.19684 2.75528 1.792C1.83371 2.40647 1.12321 3.2896 0.700811 4.32647C0.624069 4.53768 0.719962 4.74887 0.912018 4.82564C1.10407 4.90238 1.33442 4.80648 1.41118 4.61443C1.77602 3.73116 2.39035 2.96323 3.17758 2.42563C3.94551 1.9072 4.86722 1.6001 5.86551 1.6001C7.19035 1.6001 8.38068 2.1377 9.24468 3.02093C10.1086 3.8849 10.6462 5.0754 10.6462 6.4001C10.6462 7.72493 10.1086 8.91526 9.24468 9.77926C8.38071 10.6625 7.19021 11.2001 5.86551 11.2001C4.86708 11.2001 3.94551 10.8929 3.17758 10.3746C2.39035 9.83697 1.77602 9.06904 1.41118 8.18577V8.18571Z" fill="white"/>
<path d="M6.8256 6.01612H0.969598C0.758391 6.01612 0.585632 6.18889 0.585632 6.40009C0.585632 6.61128 0.758402 6.78405 0.969598 6.78405H6.8256V7.64802C6.8256 7.85922 6.99837 8.03198 7.20956 8.03198C7.28631 8.03198 7.36318 8.01283 7.43992 7.95524C7.51667 7.9168 8.47666 7.36008 8.47666 7.36008L9.57112 6.72648C9.74389 6.63045 9.80148 6.38094 9.70559 6.20804C9.66715 6.15045 9.60956 6.09286 9.55197 6.07358L7.40161 4.82564C7.20955 4.71046 6.97921 4.78721 6.88317 4.96011C6.84473 5.0177 6.82558 5.09457 6.82558 5.15216L6.8256 6.01612ZM8.09283 6.11215L8.61127 6.40009L8.09283 6.68804L7.59367 6.97598V5.80478L8.09283 6.11201V6.11215Z" fill="white"/>
</svg>
