<svg width="206" height="41" viewBox="0 0 206 41" fill="none" xmlns="http://www.w3.org/2000/svg">
<path fill-rule="evenodd" clip-rule="evenodd" d="M25.9212 4.59792C25.4165 4.82538 24.8875 5.00142 24.3428 5.13368C24.1644 4.94927 23.9145 4.83495 23.6375 4.83495C23.2469 4.83495 22.9094 5.06313 22.7513 5.39343C21.1694 5.53766 19.541 5.37358 18.0789 5.03036C17.9318 4.99544 17.7847 4.96075 17.6374 4.92488C17.4212 4.44389 16.938 4.10927 16.3767 4.10927C16.1177 4.10927 15.8751 4.18055 15.6678 4.30468C15.2332 4.10186 14.7732 3.79188 14.7182 3.27908C14.6077 2.25658 16.2468 1.7323 16.9804 1.49192C18.7381 0.916932 20.7843 0.661725 22.6258 0.546201C23.3643 0.500039 24.1077 0.475404 24.8509 0.475165C22.1175 -0.133549 19.2856 -0.163209 16.485 0.419674C12.9334 1.15874 9.50049 2.86649 6.79512 5.28652C6.39927 5.64027 6.01993 6.00669 5.65662 6.38388C5.55473 6.35518 5.44781 6.33987 5.33683 6.33987C4.68842 6.33987 4.16294 6.86511 4.16294 7.51377C4.16294 7.68215 4.19857 7.8424 4.26243 7.98759C1.42528 11.6116 -0.0731882 16.0434 0.0279852 20.7173C0.0169829 20.4941 0.00813074 20.2697 0.00454303 20.0447C0.00286876 20.1569 0 20.2688 0 20.3817C0 31.7686 9.23141 41 20.6186 41C30.7768 41 39.2189 33.6533 40.9231 23.984C39.3641 28.3796 36.8886 32.3613 33.1131 35.2424L33.1133 35.241C31.6881 36.4266 30.098 37.4207 28.3814 38.182C27.6153 38.4857 26.842 38.7517 26.0726 38.9758C24.9994 39.2884 23.842 39.5577 22.7233 39.6094C22.3548 39.6266 21.9616 39.6228 21.6011 39.5386C21.2378 39.4539 20.8286 39.2583 20.8637 38.7971C20.8814 38.5694 20.9159 38.3358 20.9902 38.1191C21.0362 38.0846 21.0802 38.048 21.122 38.009L21.2275 38.1133L21.5748 37.7629L21.4354 37.6249C21.4794 37.5513 21.5184 37.474 21.5511 37.3936C22.0711 37.0844 22.8996 37.0535 23.4643 36.9959C24.2675 36.9141 25.0293 36.7899 25.7829 36.5864C25.2216 36.6412 24.6619 36.7211 24.1027 36.7911C23.3215 36.8892 22.3894 36.9117 21.6671 36.5534C21.5951 35.9095 21.1668 35.3738 20.5836 35.1477C20.4868 34.7708 20.4585 34.3714 20.4523 33.9918C20.4468 33.6584 20.4588 33.3252 20.4645 32.9918C20.4698 32.6715 20.4748 32.3582 20.5509 32.0446C20.6121 31.7937 20.6329 31.5478 20.6465 31.2907C20.6602 31.0262 20.686 30.7626 20.7274 30.5043C20.7389 30.5045 20.7508 30.5048 20.7623 30.5048C22.3239 30.5048 23.5899 29.2393 23.5899 27.6772C23.5899 27.5777 23.5846 27.4786 23.5746 27.3815C23.8583 27.2868 24.1465 27.2041 24.4366 27.1314C24.926 27.0091 25.4235 26.8991 25.9243 26.8003C25.1202 26.7389 24.3093 26.6678 23.5162 26.5454C23.4607 26.5368 23.4021 26.5277 23.3419 26.5176C23.1773 26.1522 22.9376 25.8283 22.6423 25.565L23.9245 23.127C23.9869 23.143 24.0525 23.1514 24.1197 23.1514C24.554 23.1514 24.9063 22.7991 24.9063 22.3647C24.9063 22.1284 24.8021 21.9163 24.6373 21.7723L27.395 16.5299C27.538 16.5639 27.6871 16.5823 27.8401 16.5823C27.9308 16.5823 28.0198 16.5758 28.1073 16.5636C28.1855 16.7119 28.2558 16.8722 28.3204 17.0418C28.7732 18.2281 28.7569 19.5625 29.1154 20.5644C29.1154 20.5644 29.3307 20.4666 29.3345 20.5135C29.2625 19.5945 28.9011 17.141 28.9626 16.218C29.441 15.8705 29.7517 15.307 29.7517 14.6705C29.7517 14.5478 29.7397 14.4282 29.7179 14.312C29.927 14.1168 30.6486 13.7738 30.8808 13.6074C30.8808 13.6074 30.6809 13.576 30.822 13.4696C30.4003 13.626 29.9564 13.7583 29.5352 13.786C29.2159 13.1756 28.5766 12.759 27.8401 12.759C27.8093 12.759 27.5763 12.7781 27.5457 12.7798C26.4498 10.8903 25.451 8.8637 24.2254 6.60369C24.4646 6.42454 24.6198 6.13872 24.6198 5.81702C24.6198 5.64003 24.5729 5.47404 24.4914 5.33077C24.5832 5.26189 24.6856 5.2052 24.7935 5.15282C25.0123 5.04686 25.2364 4.9543 25.455 4.84595C25.6303 4.75841 25.7851 4.67709 25.9212 4.59792ZM19.8639 39.9038C17.2026 39.8603 14.6661 39.303 12.3503 38.325C11.8055 38.0703 11.3804 37.9017 11.091 37.2688C11.0293 37.1336 10.9731 36.966 10.9679 36.8186L10.9533 36.4295L11.3092 36.2716C11.6809 36.1064 12.3685 36.2587 12.7608 36.3649C13.5527 36.5797 14.3456 36.8091 15.1554 36.9459C15.8115 37.0566 16.4704 37.1521 17.1313 37.231C17.5422 37.2795 17.9546 37.3204 18.3657 37.3647C18.6137 38.0052 19.2361 38.4594 19.9642 38.4594C19.9905 38.4594 20.0165 38.4589 20.0426 38.4575C20.0522 38.5568 20.0565 38.6541 20.0605 38.7448C20.079 39.1296 20.1474 39.6006 19.8639 39.9038ZM23.4495 22.7778L22.1783 25.2299C21.7738 24.9957 21.306 24.8587 20.8065 24.8508C20.5078 24.0311 20.4973 23.032 20.5133 22.2459C20.5171 22.0569 20.5183 21.8677 20.5186 21.6785L23.3325 22.3729C23.3345 22.5216 23.3768 22.6599 23.4495 22.7778ZM23.4359 21.9751L20.5171 21.2547C20.5128 20.663 20.5018 20.0715 20.5145 19.4797C22.0333 19.1884 23.1809 17.8528 23.1809 16.2491C23.1809 16.2321 23.1802 16.2152 23.1802 16.1982C24.1749 16.0145 25.1496 15.733 26.1479 15.5605C26.3039 15.8564 26.5352 16.1066 26.8162 16.2855L24.0709 21.5797C23.7989 21.5965 23.5638 21.7512 23.4359 21.9751ZM16.3434 20.2245C16.2516 19.6295 15.7366 19.1738 15.116 19.1738C14.9624 19.1738 14.8153 19.2013 14.6795 19.2525L13.1564 15.9683C13.2618 15.8449 13.3513 15.7071 13.4211 15.5588C13.5613 15.5567 13.7019 15.5624 13.8416 15.5727C14.7364 15.6404 15.7108 15.7688 16.608 16.0444C16.6039 16.1121 16.601 16.1802 16.601 16.2491C16.601 18.0339 18.0225 19.4864 19.7948 19.5374C19.8635 20.0514 19.8675 20.5788 19.8517 21.0904L16.3434 20.2245ZM19.8532 21.5142C19.8819 22.043 19.8828 22.5738 19.8814 23.1031C19.8802 23.568 19.8776 24.033 19.8601 24.4975C19.8539 24.6671 19.846 24.8371 19.8338 25.0065C19.5344 25.1108 19.2581 25.2638 19.0139 25.4559L15.9627 21.3248C16.1528 21.1478 16.2872 20.9117 16.337 20.6462L19.8532 21.5142ZM11.0748 27.2277C11.3053 26.9996 11.4974 26.7319 11.6385 26.4358C11.8562 26.4609 12.0726 26.5049 12.2795 26.5585C12.7 26.6681 13.1217 26.7642 13.546 26.846C13.5675 27.0529 13.6639 27.2378 13.8077 27.3732L12.8442 29.2531L11.0748 27.2277ZM13.23 29.6947L14.3006 27.5985C14.3291 27.6013 14.358 27.6028 14.3874 27.6028C14.7371 27.6028 15.0373 27.3904 15.1662 27.0876C15.7957 27.1653 16.425 27.2409 17.0512 27.3449C17.3681 27.3973 17.6647 27.505 17.9354 27.6686V27.6774C17.9354 28.1163 18.0352 28.532 18.2138 28.9025L15.8754 31.3031C15.7474 31.2254 15.5972 31.1804 15.4367 31.1804C15.1774 31.1804 14.9454 31.2974 14.79 31.4806L13.23 29.6947ZM14.6017 31.8899C14.5943 31.9346 14.5905 31.9805 14.5905 32.0269C14.5905 32.4943 14.9696 32.8729 15.4367 32.8729C15.5819 32.8729 15.7187 32.8365 15.8378 32.772L18.6912 35.5995C18.4822 35.8315 18.3356 36.1205 18.2782 36.4405C17.7072 36.6876 17.0318 36.7567 16.4272 36.6845C15.5996 36.5859 14.7873 36.4374 13.9889 36.1961C13.4089 36.021 12.8433 35.8043 12.2802 35.5818C11.7973 35.3912 11.312 35.1817 10.9069 34.8492C10.8322 34.788 10.7624 34.7229 10.6966 34.6553L13.0284 30.0891L14.6017 31.8899ZM12.6424 29.6471L10.3228 34.1738C9.88772 33.4723 9.72843 32.594 9.62965 31.7896C9.51101 30.8231 9.42347 29.8499 9.40195 28.8759C9.39573 28.5963 9.40242 28.3053 9.44595 28.0223C9.9346 27.9604 10.3843 27.7736 10.7622 27.4949L12.6424 29.6471ZM5.75468 29.0175C5.87116 28.863 5.93981 28.6705 5.93981 28.4619C5.93981 28.2763 5.88528 28.1036 5.79128 27.9589L6.77694 26.8484C7.17398 27.4095 7.77074 27.8197 8.46364 27.9757C8.45694 28.8023 8.52104 29.6239 8.63035 30.4454C8.71645 31.0948 8.86283 31.7332 9.01806 32.3689C9.09628 32.6899 9.16946 33.1793 9.03552 33.5034L5.75468 29.0175ZM8.69636 33.8679L8.50072 33.8684C8.14242 33.8695 7.62723 33.5462 7.32729 33.3445C7.01875 33.1367 6.72791 32.9049 6.42367 32.6916C5.32559 31.9229 4.64321 31.3402 3.98164 30.1453C2.79482 28.0025 2.52407 27.2191 2.64055 24.7441C2.66256 24.2837 2.70106 23.4604 2.85701 23.0464L2.94383 22.8161L4.50736 27.6877C4.25526 27.853 4.08903 28.1381 4.08903 28.4617C4.08903 28.9728 4.50353 29.3873 5.0149 29.3873C5.14166 29.3873 5.26245 29.362 5.37271 29.3156L8.69636 33.8679ZM3.39325 22.6027L3.65611 22.7367C3.93117 22.8768 4.20431 23.0993 4.45641 23.2813C4.89028 23.5944 5.30718 23.9433 5.76138 24.2263C5.95081 24.3444 6.1412 24.4616 6.33183 24.5786C6.28447 24.784 6.25935 24.9979 6.25935 25.2177C6.25935 25.6391 6.35168 26.0388 6.51695 26.3985L5.42246 27.6312C5.29928 27.5705 5.1608 27.5365 5.01442 27.5365C5.00174 27.5365 4.98883 27.5368 4.97663 27.5375L3.39325 22.6027ZM7.95706 22.625C7.58035 22.7895 7.24645 23.0332 6.97665 23.3356C6.4031 23.05 5.86303 22.7032 5.31077 22.3786L5.27513 22.3578L5.24308 22.3324C4.75563 21.9428 4.26005 21.5563 3.82211 21.1107C3.49945 20.7818 3.2098 20.4121 3.07897 19.9626C2.95842 19.5484 2.99191 19.1308 3.09619 18.7177C3.22463 18.2111 3.37747 17.7103 3.53676 17.2123C3.74844 16.551 3.97709 15.8949 4.22632 15.2465C4.43441 14.7062 4.65637 14.1704 4.90511 13.6468C5.08402 13.2708 5.33229 12.9128 5.70254 12.704C5.86566 12.6121 6.03763 12.5581 6.21534 12.5337L6.44974 17.1939C6.08786 17.3197 5.82811 17.6639 5.82811 18.0686C5.82811 18.5797 6.24261 18.9942 6.75374 18.9942C6.76642 18.9942 6.77885 18.994 6.79177 18.9932L6.87094 19.2403L7.95706 22.625ZM6.68892 12.5337C7.37944 12.6172 8.09363 13.0302 8.61361 13.3718C8.97453 13.5906 9.34215 13.798 9.6837 14.047C9.79013 14.1245 9.8937 14.207 9.98722 14.2986C9.94608 14.4517 9.92384 14.6119 9.92384 14.7777C9.92384 14.793 9.92408 14.8083 9.92479 14.8236L7.18809 17.2508C7.09457 17.2011 6.99125 17.1671 6.88194 17.1518L6.68892 12.5337ZM10.0339 15.4041C10.1035 15.5957 10.2039 15.7724 10.3293 15.9281C10.3123 16.0176 10.2936 16.1044 10.275 16.1881C10.1843 16.5995 10.0731 17.0056 9.96283 17.412C9.80568 17.9918 9.64639 18.5706 9.49379 19.1516C9.36105 19.6579 9.25485 20.1707 9.16013 20.6857C9.08288 21.1066 9.00945 21.5233 8.91306 21.9414C8.88293 22.072 8.84729 22.2337 8.80136 22.4042C8.67292 22.4169 8.54688 22.4386 8.42418 22.4681L7.26104 18.8423C7.51266 18.677 7.67913 18.3919 7.67913 18.0683C7.67913 17.9107 7.63967 17.7622 7.57054 17.6325L10.0339 15.4041ZM10.4766 7.60083C10.7201 7.4059 10.8911 7.12438 10.943 6.80268L15.0789 5.96699C15.1724 6.22196 15.3391 6.44176 15.5537 6.60106L15.5441 6.61732C15.4685 6.74839 15.3841 6.87253 15.2999 6.99786C15.2179 7.1196 15.1389 7.23464 15.0361 7.34084C14.9705 7.40805 14.9139 7.47957 14.8591 7.55515C14.3391 8.26815 13.882 9.02922 13.4384 9.79101C13.0473 10.4636 12.6696 11.1443 12.2991 11.8286C12.1659 12.0745 11.9829 12.439 11.7591 12.7384L10.4766 7.60083ZM11.3147 12.9967C11.1116 13.0474 10.9217 13.1316 10.7514 13.2441C10.3986 13.1814 10.0085 12.9802 9.73153 12.8542C9.16037 12.5944 8.76405 12.2256 8.29215 11.8317C7.85684 11.4684 7.36652 10.9709 7.3902 10.3593C7.4134 9.76709 7.94271 9.17273 8.31248 8.73837C8.59017 8.41261 8.8724 8.09115 9.16229 7.77639C9.31919 7.8448 9.49212 7.88235 9.67389 7.88235C9.79588 7.88235 9.91403 7.86536 10.026 7.83355L11.3147 12.9967ZM10.9255 6.30304C10.9114 6.24228 10.893 6.18345 10.8705 6.12652C11.2135 5.83352 11.5651 5.55105 11.9231 5.27671C12.2719 5.00955 12.677 4.7034 13.1214 4.63595C13.4671 4.58333 13.7971 4.67924 14.1066 4.82681C14.4063 4.96984 14.7089 5.10881 15.0201 5.22577C15.004 5.30805 14.9952 5.39343 14.9947 5.48073L10.9255 6.30304ZM9.67413 5.31187C8.96425 5.31187 8.38902 5.88734 8.38902 6.59699C8.38902 6.89429 8.48995 7.16767 8.65905 7.38557C8.46914 7.56256 8.28258 7.74338 8.10344 7.93066C7.94032 8.10096 7.78772 8.28202 7.62914 8.45662C7.4354 8.66901 7.22971 8.91058 7.00727 9.08997L6.42128 9.56307L6.11824 8.87351C6.06753 8.75703 6.02496 8.62237 5.9898 8.48891C6.3036 8.27843 6.51025 7.92037 6.51025 7.51377C6.51025 7.25617 6.42726 7.01843 6.28662 6.82469C6.33374 6.77877 6.38038 6.73356 6.42582 6.68764C7.95467 5.12986 9.73704 3.85909 11.6933 2.89495L12.5352 2.48045L12.5233 3.41876C12.5218 3.53811 12.5505 3.65268 12.607 3.75768L12.7698 4.06024L12.5809 4.34678C12.4953 4.47666 12.3508 4.57831 12.209 4.64169C12.0858 4.69694 11.9762 4.77898 11.8619 4.85049C11.4319 5.1179 11.0195 5.41544 10.6179 5.72518C10.3835 5.47117 10.0475 5.31187 9.67413 5.31187ZM18.476 29.3407C18.7307 29.6903 19.0634 29.9793 19.449 30.1823C19.7369 31.5048 19.6979 33.0123 19.7075 34.1063C19.7104 34.4522 19.6647 34.7799 19.5631 35.0803C19.3875 35.1224 19.2225 35.1917 19.0725 35.2831L16.1853 32.4215C16.2475 32.3039 16.2827 32.1697 16.2827 32.0271C16.2827 31.9004 16.2549 31.7801 16.205 31.6724L18.476 29.3407ZM18.6532 25.7958C18.3234 26.1651 18.0895 26.6209 17.9892 27.1256C17.349 27.1034 16.7053 26.9742 16.0772 26.8556C15.795 26.8022 15.5132 26.7494 15.2313 26.6944C15.1992 26.2562 14.8337 25.9106 14.3874 25.9106C14.0669 25.9106 13.7885 26.0888 13.6445 26.3514C13.4391 26.3004 13.2341 26.2461 13.0298 26.1875C12.5902 26.0617 12.2078 25.884 11.8791 25.6642C11.9023 25.5186 11.9143 25.3693 11.9143 25.217C11.9143 24.6716 11.76 24.1624 11.4924 23.7309L14.4721 21.4783C14.6599 21.5924 14.8801 21.6577 15.1162 21.6577C15.2652 21.6577 15.4085 21.6314 15.5412 21.5831L18.6532 25.7958ZM11.1661 23.3016C10.9047 23.0179 10.5856 22.7881 10.2281 22.63C10.1805 22.1114 10.2008 21.5692 10.2805 21.0248C10.3137 20.7959 10.3572 20.5692 10.4099 20.3441C10.5404 19.7859 10.6785 19.2295 10.8239 18.6754C10.9918 18.0339 11.137 17.2116 11.4859 16.5931C11.5754 16.6065 11.6665 16.6132 11.7595 16.6132C12.0992 16.6132 12.4173 16.5211 12.69 16.3603L14.2379 19.5371C14.0126 19.762 13.8734 20.0729 13.8734 20.4164C13.8734 20.6438 13.9347 20.8569 14.0413 21.0406L11.1661 23.3016ZM18.5355 13.251C17.673 13.6418 17.0091 14.3931 16.7364 15.3132C16.0079 15.1886 15.2834 15.0336 14.5685 14.8504C14.2915 14.7794 13.9182 14.6842 13.5795 14.5373C13.5068 13.9803 13.1839 13.5019 12.7273 13.2177C12.771 12.9331 12.8705 12.643 12.9454 12.4069C13.2327 11.5 13.6572 10.626 14.1138 9.7934C14.5855 8.93259 15.1074 8.09928 15.6627 7.29037C15.7632 7.14399 15.8718 6.98016 15.9899 6.81847C16.1124 6.85411 16.2423 6.87324 16.3764 6.87324C16.4594 6.87324 16.5403 6.86583 16.6192 6.85196L18.5355 13.251ZM17.0029 6.72328C17.3458 6.54891 17.6063 6.23511 17.7096 5.85649C17.8417 5.85768 17.9732 5.86605 18.1014 5.87658C18.6786 5.9237 19.238 6.10356 19.587 6.59795C20.0782 7.29348 19.99 8.45183 19.9914 9.27246C19.9938 10.5028 19.934 11.7308 19.8802 12.9594C19.5343 12.9609 19.2012 13.0154 18.8883 13.1154L17.0029 6.72328ZM25.9578 15.0042C25.0111 15.2089 24.0561 15.3752 23.0969 15.5067C22.7994 14.217 21.7439 13.2177 20.4248 13.0025L20.2729 7.43938C20.2416 6.71299 20.5159 5.98971 21.3344 5.89045C21.7061 5.84548 22.2242 5.7656 22.6554 5.81726C22.6554 6.35948 23.095 6.7991 23.6375 6.7991C23.7413 6.7991 23.8415 6.78283 23.935 6.75317C25.1343 9.0969 26.3539 11.0127 27.1568 12.9233C27.0936 12.9532 26.8722 13.0187 26.8138 13.0549C26.2702 13.3921 25.9269 13.9908 25.9284 14.6708C25.93 15.4239 25.9384 14.8963 25.9578 15.0042ZM5.09885 8.66327L5.32751 9.44611C5.40189 9.70107 5.45882 9.96226 5.51502 10.2215C5.6315 10.7578 5.25527 11.4332 4.98524 11.8853C4.76711 12.2507 4.51357 12.6052 4.32175 12.9845C3.89792 13.8226 3.50806 14.6779 3.1689 15.5538C3.10719 15.7129 3.05912 15.8906 3.01176 16.0547C2.93809 16.3094 2.86706 16.5646 2.79267 16.8186C2.71255 17.0927 2.62883 17.3675 2.5322 17.6361L2.06221 18.9387L1.47024 17.6868C1.45637 17.6574 1.44274 17.6282 1.42934 17.5988L1.36237 17.452L1.38151 17.2919C1.69579 14.6483 2.54919 12.107 3.94935 9.83932C4.06416 9.65348 4.17489 9.46644 4.29759 9.2849L4.79174 8.55325C4.88741 8.60348 4.9905 8.64079 5.09885 8.66327Z" fill="url(#paint0_linear_6_2899)"/>
<path d="M50.848 13.808C52.2587 13.808 53.3243 14.176 54.045 14.912C54.7657 15.6327 55.126 16.66 55.126 17.994V25.906C55.126 27.24 54.7657 28.275 54.045 29.011C53.3243 29.7317 52.2587 30.092 50.848 30.092H46.363V32.047C46.363 32.277 46.248 32.392 46.018 32.392H43.488C43.2427 32.392 43.12 32.277 43.12 32.047V30.092H38.635C37.2243 30.092 36.1587 29.7317 35.438 29.011C34.7327 28.2903 34.38 27.2553 34.38 25.906V17.994C34.38 16.6447 34.7327 15.6097 35.438 14.889C36.1587 14.1683 37.2243 13.808 38.635 13.808H50.848ZM51.883 25.653V18.247C51.883 17.189 51.3003 16.66 50.135 16.66H39.371C38.2057 16.66 37.623 17.189 37.623 18.247V25.653C37.623 26.711 38.2057 27.24 39.371 27.24H50.135C51.3003 27.24 51.883 26.711 51.883 25.653ZM68.7986 30C66.0539 30 64.6816 28.6047 64.6816 25.814V14.245C64.6816 14.015 64.7966 13.9 65.0266 13.9H67.5566C67.8019 13.9 67.9246 14.015 67.9246 14.245V25.561C67.9246 26.1437 68.0473 26.5577 68.2926 26.803C68.5533 27.033 68.9673 27.148 69.5346 27.148H80.5746C81.1419 27.148 81.5483 27.033 81.7936 26.803C82.0543 26.5577 82.1846 26.1437 82.1846 25.561V14.245C82.1846 14.015 82.2996 13.9 82.5296 13.9H85.0596C85.3049 13.9 85.4276 14.015 85.4276 14.245V25.814C85.4276 28.6047 84.0553 30 81.3106 30H68.7986ZM95.0928 14.245C95.0928 14.015 95.2078 13.9 95.4378 13.9H97.9678C98.2131 13.9 98.3358 14.015 98.3358 14.245V29.655C98.3358 29.885 98.2131 30 97.9678 30H95.4378C95.2078 30 95.0928 29.885 95.0928 29.655V14.245Z" fill="white"/>
<path d="M125.119 13.9C127.864 13.9 129.236 15.2953 129.236 18.086V25.814C129.236 28.6047 127.864 30 125.119 30H108.352C108.122 30 108.007 29.885 108.007 29.655V14.245C108.007 14.015 108.122 13.9 108.352 13.9H125.119ZM126.016 25.561V18.316C126.016 17.7487 125.886 17.35 125.625 17.12C125.38 16.8747 124.973 16.752 124.406 16.752H111.25V27.148H124.406C124.973 27.148 125.38 27.033 125.625 26.803C125.886 26.5577 126.016 26.1437 126.016 25.561ZM157.247 27.148C157.477 27.148 157.592 27.263 157.592 27.493V29.655C157.592 29.885 157.477 30 157.247 30H139.123C138.893 30 138.778 29.885 138.778 29.655V14.245C138.778 14.015 138.893 13.9 139.123 13.9H157.132C157.362 13.9 157.477 14.015 157.477 14.245V16.407C157.477 16.637 157.362 16.752 157.132 16.752H142.021V20.524H156.902C157.132 20.524 157.247 20.639 157.247 20.869V23.031C157.247 23.261 157.132 23.376 156.902 23.376H142.021V27.148H157.247Z" fill="#FDA748"/>
<path fill-rule="evenodd" clip-rule="evenodd" d="M179.42 36.567L175.085 28.3297V26.4211L179.18 18.7043H184.719L179.822 27.3748L185 36.567H179.42Z" fill="#F3361A"/>
<path fill-rule="evenodd" clip-rule="evenodd" d="M170.58 25.8627L174.975 17.5112V15.83L170.82 8H165.281L170.178 16.6704L165 25.8627H170.58Z" fill="#FDA748"/>
<defs>
<linearGradient id="paint0_linear_6_2899" x1="7.31574" y1="10.1461" x2="55.5" y2="51.5" gradientUnits="userSpaceOnUse">
<stop stop-color="#FDA748"/>
<stop offset="1" stop-color="#F3361A"/>
</linearGradient>
</defs>
</svg>
