<svg width="142" height="142" viewBox="0 0 142 142" fill="none" xmlns="http://www.w3.org/2000/svg">
<g clip-path="url(#clip0_32_13)">
<path d="M94.6129 23.8671L88.0352 21.1281C108.375 29.5979 116.175 57.8274 105.432 84.6309C94.5722 111.727 68.8751 127.106 48.0385 118.98C47.8131 118.894 47.5913 118.804 47.3703 118.712L53.948 121.451C54.169 121.543 54.3928 121.633 54.6162 121.719C75.4528 129.845 101.15 114.466 112.01 87.3699C122.753 60.5664 114.955 32.3378 94.6129 23.8671Z" fill="url(#paint0_linear_32_13)"/>
<path d="M50.1187 111.64C67.8009 119.003 89.9271 106.26 99.5391 83.1767C109.151 60.0938 102.609 35.4125 84.9265 28.0494C67.2443 20.6864 45.1181 33.43 35.5061 56.5129C25.8942 79.5959 32.4364 104.277 50.1187 111.64Z" fill="url(#paint1_linear_32_13)"/>
<path d="M84.1238 26.5494L84.3638 27.8244C102.21 34.7837 109.138 59.2374 99.8365 82.4456C90.5345 105.654 68.5274 118.824 50.6786 111.866C32.8326 104.907 25.9039 80.4533 35.2059 57.2452C44.5078 34.037 66.5178 20.8651 84.3638 27.8244L84.1238 26.5494C65.8496 19.4235 43.3134 32.9112 33.7897 56.6742C24.2661 80.4371 31.3591 105.478 49.6333 112.604C67.9075 119.73 90.4437 106.242 99.9674 82.479C109.493 58.717 102.398 33.6754 84.1238 26.5494Z" fill="url(#paint2_linear_32_13)"/>
<path d="M103.619 83.9038C93.0429 110.289 68.0207 125.264 47.7306 117.353C27.4386 109.44 19.5618 81.6365 30.1376 55.2516C40.7134 28.8666 65.7356 13.8911 86.0256 21.8027C106.316 29.7144 114.195 57.5168 103.619 83.9038ZM84.1238 26.5495C65.8496 19.4236 43.3134 32.9113 33.7897 56.6742C24.2661 80.4371 31.3591 105.478 49.6333 112.604C67.9075 119.73 90.4437 106.242 99.9674 82.4791C109.493 58.717 102.398 33.6755 84.1238 26.5495Z" fill="url(#paint3_linear_32_13)"/>
<path d="M87.3669 20.8594L86.0264 21.8009C106.318 29.7134 114.193 57.5161 103.619 83.902C93.0437 110.287 68.0214 125.262 47.7314 117.351C27.4385 109.44 19.5617 81.6367 30.1375 55.2517C40.7133 28.8667 65.7355 13.8913 86.0256 21.8029L87.3669 20.8594C66.5304 12.7342 40.8332 28.1131 29.9731 55.209C19.113 82.3048 27.2011 110.858 48.0385 118.981C68.875 127.106 94.5721 111.727 105.432 84.6311C116.292 57.5353 108.205 28.9854 87.3669 20.8594Z" fill="url(#paint4_linear_32_13)"/>
</g>
<path d="M80.6578 45.7513L79.5974 46.6491L60.7538 79.2872L60.9178 79.8078L81.2099 79.5987L80.6578 45.7513Z" fill="#B47D1E"/>
<path d="M80.6575 45.7512L50.9817 62.1465L60.9757 79.8412L80.6575 45.7512Z" fill="#B47D1E"/>
<path d="M59.3158 82.7154L58.9785 82.8304L52.2725 94.4454L52.1573 95.1145L79.637 82.5231L59.3158 82.7154Z" fill="#B47D1E"/>
<path d="M52.1576 95.1147L59.3161 82.7156L49.3221 65.0209L52.1576 95.1147Z" fill="#B47D1E"/>
<path d="M60.9755 79.8413L81.2676 79.6322L70.1123 64.0159L60.9755 79.8413Z" fill="#B47D1E"/>
<path d="M50.9816 62.1465L60.9756 79.8413L70.1124 64.0159L50.9816 62.1465Z" fill="#B47D1E"/>
<defs>
<linearGradient id="paint0_linear_32_13" x1="109.995" y1="30.273" x2="69.3564" y2="127.867" gradientUnits="userSpaceOnUse">
<stop stop-color="#FFEDC2"/>
<stop offset="0.0889" stop-color="#FCEEB6"/>
<stop offset="0.1767" stop-color="#F7EFA6"/>
<stop offset="0.3763" stop-color="#F3D16E"/>
<stop offset="0.4657" stop-color="#EEC65E"/>
<stop offset="0.5574" stop-color="#E4B650"/>
<stop offset="0.6203" stop-color="#AF7121"/>
<stop offset="0.6528" stop-color="#AF7121"/>
<stop offset="0.7254" stop-color="#F2D76C"/>
<stop offset="0.7921" stop-color="#F8E77D"/>
<stop offset="0.8441" stop-color="#F7F1A4"/>
<stop offset="0.8919" stop-color="#FFF2C5"/>
<stop offset="0.9342" stop-color="#E6AD06"/>
<stop offset="0.9529" stop-color="#E6AD06"/>
<stop offset="1" stop-color="#FBCB4A"/>
</linearGradient>
<linearGradient id="paint1_linear_32_13" x1="82.8857" y1="107.133" x2="52.1587" y2="32.5571" gradientUnits="userSpaceOnUse">
<stop stop-color="#E2AA21"/>
<stop offset="0.3709" stop-color="#E8C53E"/>
<stop offset="0.8239" stop-color="#EEC86A"/>
<stop offset="1" stop-color="#EEBE5B"/>
</linearGradient>
<linearGradient id="paint2_linear_32_13" x1="84.6992" y1="26.7815" x2="49.0585" y2="112.372" gradientUnits="userSpaceOnUse">
<stop stop-color="#BA7322"/>
<stop offset="0.0259" stop-color="#AA6118"/>
<stop offset="0.0645" stop-color="#8B3E04"/>
<stop offset="0.0763" stop-color="#A05B17"/>
<stop offset="0.1063" stop-color="#D3A045"/>
<stop offset="0.128" stop-color="#F3CB62"/>
<stop offset="0.139" stop-color="#FFDC6D"/>
<stop offset="0.2087" stop-color="#FFFFB5"/>
<stop offset="0.318" stop-color="#FCFDF6"/>
<stop offset="0.5529" stop-color="#FFFF9C"/>
<stop offset="0.6844" stop-color="#FDDF59"/>
<stop offset="0.7758" stop-color="#FDDC53"/>
<stop offset="0.7981" stop-color="#F5CF4A"/>
<stop offset="0.8393" stop-color="#E1AD31"/>
<stop offset="0.8944" stop-color="#C0770A"/>
<stop offset="0.903" stop-color="#BB6E03"/>
<stop offset="1" stop-color="#5B1F03"/>
</linearGradient>
<linearGradient id="paint3_linear_32_13" x1="30.4779" y1="54.4196" x2="103.28" y2="84.7348" gradientUnits="userSpaceOnUse">
<stop stop-color="#E6C049"/>
<stop offset="1" stop-color="#E09719"/>
</linearGradient>
<linearGradient id="paint4_linear_32_13" x1="88.0227" y1="21.1237" x2="47.3838" y2="118.718" gradientUnits="userSpaceOnUse">
<stop stop-color="#DBA42F"/>
<stop offset="0.1348" stop-color="#FFE964"/>
<stop offset="0.3944" stop-color="#FFDC6D"/>
<stop offset="0.62" stop-color="#FFFFB5"/>
<stop offset="0.7538" stop-color="#FCFDF6"/>
<stop offset="0.8106" stop-color="#FFFF9C"/>
<stop offset="0.8561" stop-color="#FDDC53"/>
<stop offset="0.8714" stop-color="#F5CF4A"/>
<stop offset="0.8996" stop-color="#E1AD31"/>
<stop offset="0.9373" stop-color="#C0770A"/>
<stop offset="0.9432" stop-color="#BB6E03"/>
<stop offset="1" stop-color="#5B1F03"/>
</linearGradient>
<clipPath id="clip0_32_13">
<rect width="107.826" height="107.826" fill="white" transform="translate(41.9973 0.852539) rotate(22.6072)"/>
</clipPath>
</defs>
</svg>
